<svg width="132" height="115" viewBox="0 0 132 115" fill="none" xmlns="http://www.w3.org/2000/svg">
<g opacity="0.26">
<mask id="mask0_603_4367" style="mask-type:alpha" maskUnits="userSpaceOnUse" x="0" y="0" width="11" height="11">
<path d="M5.24503 10.425C8.14178 10.425 10.4901 8.09121 10.4901 5.21245C10.4901 2.33368 8.14178 0 5.24503 0C2.34828 0 0 2.33368 0 5.21245C0 8.09121 2.34828 10.425 5.24503 10.425Z" fill="url(#paint0_linear_603_4367)"/>
</mask>
<g mask="url(#mask0_603_4367)">
<path d="M5.24503 10.425C8.14178 10.425 10.4901 8.09121 10.4901 5.21245C10.4901 2.33368 8.14178 0 5.24503 0C2.34828 0 0 2.33368 0 5.21245C0 8.09121 2.34828 10.425 5.24503 10.425Z" fill="url(#paint1_linear_603_4367)"/>
</g>
<mask id="mask1_603_4367" style="mask-type:alpha" maskUnits="userSpaceOnUse" x="30" y="0" width="11" height="11">
<path d="M35.6225 10.425C38.5192 10.425 40.8675 8.09121 40.8675 5.21245C40.8675 2.33368 38.5192 0 35.6225 0C32.7257 0 30.3774 2.33368 30.3774 5.21245C30.3774 8.09121 32.7257 10.425 35.6225 10.425Z" fill="url(#paint2_linear_603_4367)"/>
</mask>
<g mask="url(#mask1_603_4367)">
<path d="M35.6225 10.425C38.5192 10.425 40.8675 8.09121 40.8675 5.21245C40.8675 2.33368 38.5192 0 35.6225 0C32.7257 0 30.3774 2.33368 30.3774 5.21245C30.3774 8.09121 32.7257 10.425 35.6225 10.425Z" fill="url(#paint3_linear_603_4367)"/>
</g>
<mask id="mask2_603_4367" style="mask-type:alpha" maskUnits="userSpaceOnUse" x="60" y="0" width="12" height="11">
<path d="M65.9999 10.425C68.8966 10.425 71.2449 8.09121 71.2449 5.21245C71.2449 2.33368 68.8966 0 65.9999 0C63.1031 0 60.7548 2.33368 60.7548 5.21245C60.7548 8.09121 63.1031 10.425 65.9999 10.425Z" fill="url(#paint4_linear_603_4367)"/>
</mask>
<g mask="url(#mask2_603_4367)">
<path d="M65.9999 10.425C68.8966 10.425 71.2449 8.09121 71.2449 5.21245C71.2449 2.33368 68.8966 0 65.9999 0C63.1031 0 60.7548 2.33368 60.7548 5.21245C60.7548 8.09121 63.1031 10.425 65.9999 10.425Z" fill="url(#paint5_linear_603_4367)"/>
</g>
<mask id="mask3_603_4367" style="mask-type:alpha" maskUnits="userSpaceOnUse" x="91" y="0" width="11" height="11">
<path d="M96.3776 10.425C99.2743 10.425 101.623 8.09121 101.623 5.21245C101.623 2.33368 99.2743 0 96.3776 0C93.4808 0 91.1325 2.33368 91.1325 5.21245C91.1325 8.09121 93.4808 10.425 96.3776 10.425Z" fill="url(#paint6_linear_603_4367)"/>
</mask>
<g mask="url(#mask3_603_4367)">
<path d="M96.3776 10.425C99.2743 10.425 101.623 8.09121 101.623 5.21245C101.623 2.33368 99.2743 0 96.3776 0C93.4808 0 91.1325 2.33368 91.1325 5.21245C91.1325 8.09121 93.4808 10.425 96.3776 10.425Z" fill="url(#paint7_linear_603_4367)"/>
</g>
<mask id="mask4_603_4367" style="mask-type:alpha" maskUnits="userSpaceOnUse" x="121" y="0" width="11" height="11">
<path d="M126.755 10.425C129.652 10.425 132 8.09121 132 5.21245C132 2.33368 129.652 0 126.755 0C123.858 0 121.51 2.33368 121.51 5.21245C121.51 8.09121 123.858 10.425 126.755 10.425Z" fill="url(#paint8_linear_603_4367)"/>
</mask>
<g mask="url(#mask4_603_4367)">
<path d="M126.755 10.425C129.652 10.425 132 8.09121 132 5.21245C132 2.33368 129.652 0 126.755 0C123.858 0 121.51 2.33368 121.51 5.21245C121.51 8.09121 123.858 10.425 126.755 10.425Z" fill="url(#paint9_linear_603_4367)"/>
</g>
<mask id="mask5_603_4367" style="mask-type:alpha" maskUnits="userSpaceOnUse" x="0" y="26" width="11" height="11">
<path d="M5.24503 36.5958C8.14178 36.5958 10.4901 34.2621 10.4901 31.3833C10.4901 28.5046 8.14178 26.1709 5.24503 26.1709C2.34828 26.1709 0 28.5046 0 31.3833C0 34.2621 2.34828 36.5958 5.24503 36.5958Z" fill="url(#paint10_linear_603_4367)"/>
</mask>
<g mask="url(#mask5_603_4367)">
<path d="M5.24503 36.5958C8.14178 36.5958 10.4901 34.2621 10.4901 31.3833C10.4901 28.5046 8.14178 26.1709 5.24503 26.1709C2.34828 26.1709 0 28.5046 0 31.3833C0 34.2621 2.34828 36.5958 5.24503 36.5958Z" fill="url(#paint11_linear_603_4367)"/>
</g>
<mask id="mask6_603_4367" style="mask-type:alpha" maskUnits="userSpaceOnUse" x="30" y="26" width="11" height="11">
<path d="M35.6225 36.5958C38.5192 36.5958 40.8675 34.2621 40.8675 31.3833C40.8675 28.5046 38.5192 26.1709 35.6225 26.1709C32.7257 26.1709 30.3774 28.5046 30.3774 31.3833C30.3774 34.2621 32.7257 36.5958 35.6225 36.5958Z" fill="url(#paint12_linear_603_4367)"/>
</mask>
<g mask="url(#mask6_603_4367)">
<path d="M35.6225 36.5958C38.5192 36.5958 40.8675 34.2621 40.8675 31.3833C40.8675 28.5046 38.5192 26.1709 35.6225 26.1709C32.7257 26.1709 30.3774 28.5046 30.3774 31.3833C30.3774 34.2621 32.7257 36.5958 35.6225 36.5958Z" fill="url(#paint13_linear_603_4367)"/>
</g>
<mask id="mask7_603_4367" style="mask-type:alpha" maskUnits="userSpaceOnUse" x="60" y="26" width="12" height="11">
<path d="M65.9999 36.5958C68.8966 36.5958 71.2449 34.2621 71.2449 31.3833C71.2449 28.5046 68.8966 26.1709 65.9999 26.1709C63.1031 26.1709 60.7548 28.5046 60.7548 31.3833C60.7548 34.2621 63.1031 36.5958 65.9999 36.5958Z" fill="url(#paint14_linear_603_4367)"/>
</mask>
<g mask="url(#mask7_603_4367)">
<path d="M65.9999 36.5958C68.8966 36.5958 71.2449 34.2621 71.2449 31.3833C71.2449 28.5046 68.8966 26.1709 65.9999 26.1709C63.1031 26.1709 60.7548 28.5046 60.7548 31.3833C60.7548 34.2621 63.1031 36.5958 65.9999 36.5958Z" fill="url(#paint15_linear_603_4367)"/>
</g>
<mask id="mask8_603_4367" style="mask-type:alpha" maskUnits="userSpaceOnUse" x="91" y="26" width="11" height="11">
<path d="M96.3776 36.5958C99.2743 36.5958 101.623 34.2621 101.623 31.3833C101.623 28.5046 99.2743 26.1709 96.3776 26.1709C93.4808 26.1709 91.1325 28.5046 91.1325 31.3833C91.1325 34.2621 93.4808 36.5958 96.3776 36.5958Z" fill="url(#paint16_linear_603_4367)"/>
</mask>
<g mask="url(#mask8_603_4367)">
<path d="M96.3776 36.5958C99.2743 36.5958 101.623 34.2621 101.623 31.3833C101.623 28.5046 99.2743 26.1709 96.3776 26.1709C93.4808 26.1709 91.1325 28.5046 91.1325 31.3833C91.1325 34.2621 93.4808 36.5958 96.3776 36.5958Z" fill="url(#paint17_linear_603_4367)"/>
</g>
<mask id="mask9_603_4367" style="mask-type:alpha" maskUnits="userSpaceOnUse" x="121" y="26" width="11" height="11">
<path d="M126.755 36.5958C129.652 36.5958 132 34.2621 132 31.3833C132 28.5046 129.652 26.1709 126.755 26.1709C123.858 26.1709 121.51 28.5046 121.51 31.3833C121.51 34.2621 123.858 36.5958 126.755 36.5958Z" fill="url(#paint18_linear_603_4367)"/>
</mask>
<g mask="url(#mask9_603_4367)">
<path d="M126.755 36.5958C129.652 36.5958 132 34.2621 132 31.3833C132 28.5046 129.652 26.1709 126.755 26.1709C123.858 26.1709 121.51 28.5046 121.51 31.3833C121.51 34.2621 123.858 36.5958 126.755 36.5958Z" fill="url(#paint19_linear_603_4367)"/>
</g>
<mask id="mask10_603_4367" style="mask-type:alpha" maskUnits="userSpaceOnUse" x="0" y="52" width="11" height="11">
<path d="M5.24503 62.7124C8.14178 62.7124 10.4901 60.3787 10.4901 57.5C10.4901 54.6212 8.14178 52.2875 5.24503 52.2875C2.34828 52.2875 0 54.6212 0 57.5C0 60.3787 2.34828 62.7124 5.24503 62.7124Z" fill="url(#paint20_linear_603_4367)"/>
</mask>
<g mask="url(#mask10_603_4367)">
<path d="M5.24503 62.7124C8.14178 62.7124 10.4901 60.3787 10.4901 57.5C10.4901 54.6212 8.14178 52.2875 5.24503 52.2875C2.34828 52.2875 0 54.6212 0 57.5C0 60.3787 2.34828 62.7124 5.24503 62.7124Z" fill="url(#paint21_linear_603_4367)"/>
</g>
<mask id="mask11_603_4367" style="mask-type:alpha" maskUnits="userSpaceOnUse" x="30" y="52" width="11" height="11">
<path d="M35.6225 62.7124C38.5192 62.7124 40.8675 60.3787 40.8675 57.5C40.8675 54.6212 38.5192 52.2875 35.6225 52.2875C32.7257 52.2875 30.3774 54.6212 30.3774 57.5C30.3774 60.3787 32.7257 62.7124 35.6225 62.7124Z" fill="url(#paint22_linear_603_4367)"/>
</mask>
<g mask="url(#mask11_603_4367)">
<path d="M35.6225 62.7124C38.5192 62.7124 40.8675 60.3787 40.8675 57.5C40.8675 54.6212 38.5192 52.2875 35.6225 52.2875C32.7257 52.2875 30.3774 54.6212 30.3774 57.5C30.3774 60.3787 32.7257 62.7124 35.6225 62.7124Z" fill="url(#paint23_linear_603_4367)"/>
</g>
<mask id="mask12_603_4367" style="mask-type:alpha" maskUnits="userSpaceOnUse" x="60" y="52" width="12" height="11">
<path d="M65.9999 62.7124C68.8966 62.7124 71.2449 60.3787 71.2449 57.5C71.2449 54.6212 68.8966 52.2875 65.9999 52.2875C63.1031 52.2875 60.7548 54.6212 60.7548 57.5C60.7548 60.3787 63.1031 62.7124 65.9999 62.7124Z" fill="url(#paint24_linear_603_4367)"/>
</mask>
<g mask="url(#mask12_603_4367)">
<path d="M65.9999 62.7124C68.8966 62.7124 71.2449 60.3787 71.2449 57.5C71.2449 54.6212 68.8966 52.2875 65.9999 52.2875C63.1031 52.2875 60.7548 54.6212 60.7548 57.5C60.7548 60.3787 63.1031 62.7124 65.9999 62.7124Z" fill="url(#paint25_linear_603_4367)"/>
</g>
<mask id="mask13_603_4367" style="mask-type:alpha" maskUnits="userSpaceOnUse" x="91" y="52" width="11" height="11">
<path d="M96.3776 62.7124C99.2743 62.7124 101.623 60.3787 101.623 57.5C101.623 54.6212 99.2743 52.2875 96.3776 52.2875C93.4808 52.2875 91.1325 54.6212 91.1325 57.5C91.1325 60.3787 93.4808 62.7124 96.3776 62.7124Z" fill="url(#paint26_linear_603_4367)"/>
</mask>
<g mask="url(#mask13_603_4367)">
<path d="M96.3776 62.7124C99.2743 62.7124 101.623 60.3787 101.623 57.5C101.623 54.6212 99.2743 52.2875 96.3776 52.2875C93.4808 52.2875 91.1325 54.6212 91.1325 57.5C91.1325 60.3787 93.4808 62.7124 96.3776 62.7124Z" fill="url(#paint27_linear_603_4367)"/>
</g>
<mask id="mask14_603_4367" style="mask-type:alpha" maskUnits="userSpaceOnUse" x="121" y="52" width="11" height="11">
<path d="M126.755 62.7124C129.652 62.7124 132 60.3787 132 57.5C132 54.6212 129.652 52.2875 126.755 52.2875C123.858 52.2875 121.51 54.6212 121.51 57.5C121.51 60.3787 123.858 62.7124 126.755 62.7124Z" fill="url(#paint28_linear_603_4367)"/>
</mask>
<g mask="url(#mask14_603_4367)">
<path d="M126.755 62.7124C129.652 62.7124 132 60.3787 132 57.5C132 54.6212 129.652 52.2875 126.755 52.2875C123.858 52.2875 121.51 54.6212 121.51 57.5C121.51 60.3787 123.858 62.7124 126.755 62.7124Z" fill="url(#paint29_linear_603_4367)"/>
</g>
<mask id="mask15_603_4367" style="mask-type:alpha" maskUnits="userSpaceOnUse" x="0" y="78" width="11" height="11">
<path d="M5.24503 88.8835C8.14178 88.8835 10.4901 86.5497 10.4901 83.6709C10.4901 80.7922 8.14178 78.4585 5.24503 78.4585C2.34828 78.4585 0 80.7922 0 83.6709C0 86.5497 2.34828 88.8835 5.24503 88.8835Z" fill="url(#paint30_linear_603_4367)"/>
</mask>
<g mask="url(#mask15_603_4367)">
<path d="M5.24503 88.8835C8.14178 88.8835 10.4901 86.5497 10.4901 83.6709C10.4901 80.7922 8.14178 78.4585 5.24503 78.4585C2.34828 78.4585 0 80.7922 0 83.6709C0 86.5497 2.34828 88.8835 5.24503 88.8835Z" fill="url(#paint31_linear_603_4367)"/>
</g>
<mask id="mask16_603_4367" style="mask-type:alpha" maskUnits="userSpaceOnUse" x="30" y="78" width="11" height="11">
<path d="M35.6225 88.8833C38.5192 88.8833 40.8675 86.5496 40.8675 83.6708C40.8675 80.7921 38.5192 78.4584 35.6225 78.4584C32.7257 78.4584 30.3774 80.7921 30.3774 83.6708C30.3774 86.5496 32.7257 88.8833 35.6225 88.8833Z" fill="url(#paint32_linear_603_4367)"/>
</mask>
<g mask="url(#mask16_603_4367)">
<path d="M35.6225 88.8833C38.5192 88.8833 40.8675 86.5496 40.8675 83.6708C40.8675 80.7921 38.5192 78.4584 35.6225 78.4584C32.7257 78.4584 30.3774 80.7921 30.3774 83.6708C30.3774 86.5496 32.7257 88.8833 35.6225 88.8833Z" fill="url(#paint33_linear_603_4367)"/>
</g>
<mask id="mask17_603_4367" style="mask-type:alpha" maskUnits="userSpaceOnUse" x="60" y="78" width="12" height="11">
<path d="M65.9999 88.8833C68.8966 88.8833 71.2449 86.5496 71.2449 83.6708C71.2449 80.7921 68.8966 78.4584 65.9999 78.4584C63.1031 78.4584 60.7548 80.7921 60.7548 83.6708C60.7548 86.5496 63.1031 88.8833 65.9999 88.8833Z" fill="url(#paint34_linear_603_4367)"/>
</mask>
<g mask="url(#mask17_603_4367)">
<path d="M65.9999 88.8833C68.8966 88.8833 71.2449 86.5496 71.2449 83.6708C71.2449 80.7921 68.8966 78.4584 65.9999 78.4584C63.1031 78.4584 60.7548 80.7921 60.7548 83.6708C60.7548 86.5496 63.1031 88.8833 65.9999 88.8833Z" fill="url(#paint35_linear_603_4367)"/>
</g>
<mask id="mask18_603_4367" style="mask-type:alpha" maskUnits="userSpaceOnUse" x="91" y="78" width="11" height="11">
<path d="M96.3776 88.8833C99.2743 88.8833 101.623 86.5496 101.623 83.6708C101.623 80.7921 99.2743 78.4584 96.3776 78.4584C93.4808 78.4584 91.1325 80.7921 91.1325 83.6708C91.1325 86.5496 93.4808 88.8833 96.3776 88.8833Z" fill="url(#paint36_linear_603_4367)"/>
</mask>
<g mask="url(#mask18_603_4367)">
<path d="M96.3776 88.8833C99.2743 88.8833 101.623 86.5496 101.623 83.6708C101.623 80.7921 99.2743 78.4584 96.3776 78.4584C93.4808 78.4584 91.1325 80.7921 91.1325 83.6708C91.1325 86.5496 93.4808 88.8833 96.3776 88.8833Z" fill="url(#paint37_linear_603_4367)"/>
</g>
<mask id="mask19_603_4367" style="mask-type:alpha" maskUnits="userSpaceOnUse" x="121" y="78" width="11" height="11">
<path d="M126.755 88.8833C129.652 88.8833 132 86.5496 132 83.6708C132 80.7921 129.652 78.4584 126.755 78.4584C123.858 78.4584 121.51 80.7921 121.51 83.6708C121.51 86.5496 123.858 88.8833 126.755 88.8833Z" fill="url(#paint38_linear_603_4367)"/>
</mask>
<g mask="url(#mask19_603_4367)">
<path d="M126.755 88.8833C129.652 88.8833 132 86.5496 132 83.6708C132 80.7921 129.652 78.4584 126.755 78.4584C123.858 78.4584 121.51 80.7921 121.51 83.6708C121.51 86.5496 123.858 88.8833 126.755 88.8833Z" fill="url(#paint39_linear_603_4367)"/>
</g>
<mask id="mask20_603_4367" style="mask-type:alpha" maskUnits="userSpaceOnUse" x="0" y="104" width="11" height="11">
<path d="M5.24503 115C8.14178 115 10.4901 112.666 10.4901 109.788C10.4901 106.909 8.14178 104.575 5.24503 104.575C2.34828 104.575 0 106.909 0 109.788C0 112.666 2.34828 115 5.24503 115Z" fill="url(#paint40_linear_603_4367)"/>
</mask>
<g mask="url(#mask20_603_4367)">
<path d="M5.24503 115C8.14178 115 10.4901 112.666 10.4901 109.788C10.4901 106.909 8.14178 104.575 5.24503 104.575C2.34828 104.575 0 106.909 0 109.788C0 112.666 2.34828 115 5.24503 115Z" fill="url(#paint41_linear_603_4367)"/>
</g>
<mask id="mask21_603_4367" style="mask-type:alpha" maskUnits="userSpaceOnUse" x="30" y="104" width="11" height="11">
<path d="M35.6225 115C38.5192 115 40.8675 112.666 40.8675 109.788C40.8675 106.909 38.5192 104.575 35.6225 104.575C32.7257 104.575 30.3774 106.909 30.3774 109.788C30.3774 112.666 32.7257 115 35.6225 115Z" fill="url(#paint42_linear_603_4367)"/>
</mask>
<g mask="url(#mask21_603_4367)">
<path d="M35.6225 115C38.5192 115 40.8675 112.666 40.8675 109.788C40.8675 106.909 38.5192 104.575 35.6225 104.575C32.7257 104.575 30.3774 106.909 30.3774 109.788C30.3774 112.666 32.7257 115 35.6225 115Z" fill="url(#paint43_linear_603_4367)"/>
</g>
<mask id="mask22_603_4367" style="mask-type:alpha" maskUnits="userSpaceOnUse" x="60" y="104" width="12" height="11">
<path d="M65.9999 115C68.8966 115 71.2449 112.666 71.2449 109.788C71.2449 106.909 68.8966 104.575 65.9999 104.575C63.1031 104.575 60.7548 106.909 60.7548 109.788C60.7548 112.666 63.1031 115 65.9999 115Z" fill="url(#paint44_linear_603_4367)"/>
</mask>
<g mask="url(#mask22_603_4367)">
<path d="M65.9999 115C68.8966 115 71.2449 112.666 71.2449 109.788C71.2449 106.909 68.8966 104.575 65.9999 104.575C63.1031 104.575 60.7548 106.909 60.7548 109.788C60.7548 112.666 63.1031 115 65.9999 115Z" fill="url(#paint45_linear_603_4367)"/>
</g>
<mask id="mask23_603_4367" style="mask-type:alpha" maskUnits="userSpaceOnUse" x="91" y="104" width="11" height="11">
<path d="M96.3776 115C99.2743 115 101.623 112.666 101.623 109.788C101.623 106.909 99.2743 104.575 96.3776 104.575C93.4808 104.575 91.1325 106.909 91.1325 109.788C91.1325 112.666 93.4808 115 96.3776 115Z" fill="url(#paint46_linear_603_4367)"/>
</mask>
<g mask="url(#mask23_603_4367)">
<path d="M96.3776 115C99.2743 115 101.623 112.666 101.623 109.788C101.623 106.909 99.2743 104.575 96.3776 104.575C93.4808 104.575 91.1325 106.909 91.1325 109.788C91.1325 112.666 93.4808 115 96.3776 115Z" fill="url(#paint47_linear_603_4367)"/>
</g>
<mask id="mask24_603_4367" style="mask-type:alpha" maskUnits="userSpaceOnUse" x="121" y="104" width="11" height="11">
<path d="M126.755 115C129.652 115 132 112.666 132 109.788C132 106.909 129.652 104.575 126.755 104.575C123.858 104.575 121.51 106.909 121.51 109.788C121.51 112.666 123.858 115 126.755 115Z" fill="url(#paint48_linear_603_4367)"/>
</mask>
<g mask="url(#mask24_603_4367)">
<path d="M126.755 115C129.652 115 132 112.666 132 109.788C132 106.909 129.652 104.575 126.755 104.575C123.858 104.575 121.51 106.909 121.51 109.788C121.51 112.666 123.858 115 126.755 115Z" fill="url(#paint49_linear_603_4367)"/>
</g>
</g>
<defs>
<linearGradient id="paint0_linear_603_4367" x1="55.1711" y1="131.134" x2="-16.0643" y2="-50.8241" gradientUnits="userSpaceOnUse">
<stop stop-color="white"/>
<stop offset="1" stop-color="white"/>
</linearGradient>
<linearGradient id="paint1_linear_603_4367" x1="55.1711" y1="131.134" x2="-16.0643" y2="-50.8241" gradientUnits="userSpaceOnUse">
<stop stop-color="white"/>
<stop offset="1" stop-color="white"/>
</linearGradient>
<linearGradient id="paint2_linear_603_4367" x1="85.5486" y1="131.134" x2="14.3133" y2="-50.8241" gradientUnits="userSpaceOnUse">
<stop stop-color="white"/>
<stop offset="1" stop-color="white"/>
</linearGradient>
<linearGradient id="paint3_linear_603_4367" x1="85.5486" y1="131.134" x2="14.3133" y2="-50.8241" gradientUnits="userSpaceOnUse">
<stop stop-color="white"/>
<stop offset="1" stop-color="white"/>
</linearGradient>
<linearGradient id="paint4_linear_603_4367" x1="115.926" y1="131.134" x2="44.6907" y2="-50.8241" gradientUnits="userSpaceOnUse">
<stop stop-color="white"/>
<stop offset="1" stop-color="white"/>
</linearGradient>
<linearGradient id="paint5_linear_603_4367" x1="115.926" y1="131.134" x2="44.6907" y2="-50.8241" gradientUnits="userSpaceOnUse">
<stop stop-color="white"/>
<stop offset="1" stop-color="white"/>
</linearGradient>
<linearGradient id="paint6_linear_603_4367" x1="146.304" y1="131.134" x2="75.0683" y2="-50.8241" gradientUnits="userSpaceOnUse">
<stop stop-color="white"/>
<stop offset="1" stop-color="white"/>
</linearGradient>
<linearGradient id="paint7_linear_603_4367" x1="146.304" y1="131.134" x2="75.0683" y2="-50.8241" gradientUnits="userSpaceOnUse">
<stop stop-color="white"/>
<stop offset="1" stop-color="white"/>
</linearGradient>
<linearGradient id="paint8_linear_603_4367" x1="176.681" y1="131.134" x2="105.446" y2="-50.8241" gradientUnits="userSpaceOnUse">
<stop stop-color="white"/>
<stop offset="1" stop-color="white"/>
</linearGradient>
<linearGradient id="paint9_linear_603_4367" x1="176.681" y1="131.134" x2="105.446" y2="-50.8241" gradientUnits="userSpaceOnUse">
<stop stop-color="white"/>
<stop offset="1" stop-color="white"/>
</linearGradient>
<linearGradient id="paint10_linear_603_4367" x1="55.1711" y1="157.303" x2="-16.0631" y2="-24.6532" gradientUnits="userSpaceOnUse">
<stop stop-color="white"/>
<stop offset="1" stop-color="white"/>
</linearGradient>
<linearGradient id="paint11_linear_603_4367" x1="55.1711" y1="157.303" x2="-16.0631" y2="-24.6532" gradientUnits="userSpaceOnUse">
<stop stop-color="white"/>
<stop offset="1" stop-color="white"/>
</linearGradient>
<linearGradient id="paint12_linear_603_4367" x1="85.5486" y1="157.303" x2="14.3145" y2="-24.6532" gradientUnits="userSpaceOnUse">
<stop stop-color="white"/>
<stop offset="1" stop-color="white"/>
</linearGradient>
<linearGradient id="paint13_linear_603_4367" x1="85.5486" y1="157.303" x2="14.3145" y2="-24.6532" gradientUnits="userSpaceOnUse">
<stop stop-color="white"/>
<stop offset="1" stop-color="white"/>
</linearGradient>
<linearGradient id="paint14_linear_603_4367" x1="115.926" y1="157.303" x2="44.6919" y2="-24.6532" gradientUnits="userSpaceOnUse">
<stop stop-color="white"/>
<stop offset="1" stop-color="white"/>
</linearGradient>
<linearGradient id="paint15_linear_603_4367" x1="115.926" y1="157.303" x2="44.6919" y2="-24.6532" gradientUnits="userSpaceOnUse">
<stop stop-color="white"/>
<stop offset="1" stop-color="white"/>
</linearGradient>
<linearGradient id="paint16_linear_603_4367" x1="146.304" y1="157.303" x2="75.0696" y2="-24.6532" gradientUnits="userSpaceOnUse">
<stop stop-color="white"/>
<stop offset="1" stop-color="white"/>
</linearGradient>
<linearGradient id="paint17_linear_603_4367" x1="146.304" y1="157.303" x2="75.0696" y2="-24.6532" gradientUnits="userSpaceOnUse">
<stop stop-color="white"/>
<stop offset="1" stop-color="white"/>
</linearGradient>
<linearGradient id="paint18_linear_603_4367" x1="176.681" y1="157.303" x2="105.447" y2="-24.6532" gradientUnits="userSpaceOnUse">
<stop stop-color="white"/>
<stop offset="1" stop-color="white"/>
</linearGradient>
<linearGradient id="paint19_linear_603_4367" x1="176.681" y1="157.303" x2="105.447" y2="-24.6532" gradientUnits="userSpaceOnUse">
<stop stop-color="white"/>
<stop offset="1" stop-color="white"/>
</linearGradient>
<linearGradient id="paint20_linear_603_4367" x1="55.1711" y1="183.421" x2="-16.0643" y2="1.46338" gradientUnits="userSpaceOnUse">
<stop stop-color="white"/>
<stop offset="1" stop-color="white"/>
</linearGradient>
<linearGradient id="paint21_linear_603_4367" x1="55.1711" y1="183.421" x2="-16.0643" y2="1.46338" gradientUnits="userSpaceOnUse">
<stop stop-color="white"/>
<stop offset="1" stop-color="white"/>
</linearGradient>
<linearGradient id="paint22_linear_603_4367" x1="85.5486" y1="183.421" x2="14.3133" y2="1.46333" gradientUnits="userSpaceOnUse">
<stop stop-color="white"/>
<stop offset="1" stop-color="white"/>
</linearGradient>
<linearGradient id="paint23_linear_603_4367" x1="85.5486" y1="183.421" x2="14.3133" y2="1.46333" gradientUnits="userSpaceOnUse">
<stop stop-color="white"/>
<stop offset="1" stop-color="white"/>
</linearGradient>
<linearGradient id="paint24_linear_603_4367" x1="115.926" y1="183.421" x2="44.6907" y2="1.46333" gradientUnits="userSpaceOnUse">
<stop stop-color="white"/>
<stop offset="1" stop-color="white"/>
</linearGradient>
<linearGradient id="paint25_linear_603_4367" x1="115.926" y1="183.421" x2="44.6907" y2="1.46333" gradientUnits="userSpaceOnUse">
<stop stop-color="white"/>
<stop offset="1" stop-color="white"/>
</linearGradient>
<linearGradient id="paint26_linear_603_4367" x1="146.304" y1="183.421" x2="75.0683" y2="1.46333" gradientUnits="userSpaceOnUse">
<stop stop-color="white"/>
<stop offset="1" stop-color="white"/>
</linearGradient>
<linearGradient id="paint27_linear_603_4367" x1="146.304" y1="183.421" x2="75.0683" y2="1.46333" gradientUnits="userSpaceOnUse">
<stop stop-color="white"/>
<stop offset="1" stop-color="white"/>
</linearGradient>
<linearGradient id="paint28_linear_603_4367" x1="176.681" y1="183.421" x2="105.446" y2="1.46333" gradientUnits="userSpaceOnUse">
<stop stop-color="white"/>
<stop offset="1" stop-color="white"/>
</linearGradient>
<linearGradient id="paint29_linear_603_4367" x1="176.681" y1="183.421" x2="105.446" y2="1.46333" gradientUnits="userSpaceOnUse">
<stop stop-color="white"/>
<stop offset="1" stop-color="white"/>
</linearGradient>
<linearGradient id="paint30_linear_603_4367" x1="55.1711" y1="209.592" x2="-16.0643" y2="27.6344" gradientUnits="userSpaceOnUse">
<stop stop-color="white"/>
<stop offset="1" stop-color="white"/>
</linearGradient>
<linearGradient id="paint31_linear_603_4367" x1="55.1711" y1="209.592" x2="-16.0643" y2="27.6344" gradientUnits="userSpaceOnUse">
<stop stop-color="white"/>
<stop offset="1" stop-color="white"/>
</linearGradient>
<linearGradient id="paint32_linear_603_4367" x1="85.5486" y1="209.592" x2="14.3133" y2="27.6342" gradientUnits="userSpaceOnUse">
<stop stop-color="white"/>
<stop offset="1" stop-color="white"/>
</linearGradient>
<linearGradient id="paint33_linear_603_4367" x1="85.5486" y1="209.592" x2="14.3133" y2="27.6342" gradientUnits="userSpaceOnUse">
<stop stop-color="white"/>
<stop offset="1" stop-color="white"/>
</linearGradient>
<linearGradient id="paint34_linear_603_4367" x1="115.926" y1="209.592" x2="44.6907" y2="27.6342" gradientUnits="userSpaceOnUse">
<stop stop-color="white"/>
<stop offset="1" stop-color="white"/>
</linearGradient>
<linearGradient id="paint35_linear_603_4367" x1="115.926" y1="209.592" x2="44.6907" y2="27.6342" gradientUnits="userSpaceOnUse">
<stop stop-color="white"/>
<stop offset="1" stop-color="white"/>
</linearGradient>
<linearGradient id="paint36_linear_603_4367" x1="146.304" y1="209.592" x2="75.0683" y2="27.6342" gradientUnits="userSpaceOnUse">
<stop stop-color="white"/>
<stop offset="1" stop-color="white"/>
</linearGradient>
<linearGradient id="paint37_linear_603_4367" x1="146.304" y1="209.592" x2="75.0683" y2="27.6342" gradientUnits="userSpaceOnUse">
<stop stop-color="white"/>
<stop offset="1" stop-color="white"/>
</linearGradient>
<linearGradient id="paint38_linear_603_4367" x1="176.681" y1="209.592" x2="105.446" y2="27.6342" gradientUnits="userSpaceOnUse">
<stop stop-color="white"/>
<stop offset="1" stop-color="white"/>
</linearGradient>
<linearGradient id="paint39_linear_603_4367" x1="176.681" y1="209.592" x2="105.446" y2="27.6342" gradientUnits="userSpaceOnUse">
<stop stop-color="white"/>
<stop offset="1" stop-color="white"/>
</linearGradient>
<linearGradient id="paint40_linear_603_4367" x1="55.1711" y1="235.709" x2="-16.0643" y2="53.751" gradientUnits="userSpaceOnUse">
<stop stop-color="white"/>
<stop offset="1" stop-color="white"/>
</linearGradient>
<linearGradient id="paint41_linear_603_4367" x1="55.1711" y1="235.709" x2="-16.0643" y2="53.751" gradientUnits="userSpaceOnUse">
<stop stop-color="white"/>
<stop offset="1" stop-color="white"/>
</linearGradient>
<linearGradient id="paint42_linear_603_4367" x1="85.5486" y1="235.709" x2="14.3133" y2="53.7509" gradientUnits="userSpaceOnUse">
<stop stop-color="white"/>
<stop offset="1" stop-color="white"/>
</linearGradient>
<linearGradient id="paint43_linear_603_4367" x1="85.5486" y1="235.709" x2="14.3133" y2="53.7509" gradientUnits="userSpaceOnUse">
<stop stop-color="white"/>
<stop offset="1" stop-color="white"/>
</linearGradient>
<linearGradient id="paint44_linear_603_4367" x1="115.926" y1="235.709" x2="44.6907" y2="53.7509" gradientUnits="userSpaceOnUse">
<stop stop-color="white"/>
<stop offset="1" stop-color="white"/>
</linearGradient>
<linearGradient id="paint45_linear_603_4367" x1="115.926" y1="235.709" x2="44.6907" y2="53.7509" gradientUnits="userSpaceOnUse">
<stop stop-color="white"/>
<stop offset="1" stop-color="white"/>
</linearGradient>
<linearGradient id="paint46_linear_603_4367" x1="146.304" y1="235.709" x2="75.0683" y2="53.7509" gradientUnits="userSpaceOnUse">
<stop stop-color="white"/>
<stop offset="1" stop-color="white"/>
</linearGradient>
<linearGradient id="paint47_linear_603_4367" x1="146.304" y1="235.709" x2="75.0683" y2="53.7509" gradientUnits="userSpaceOnUse">
<stop stop-color="white"/>
<stop offset="1" stop-color="white"/>
</linearGradient>
<linearGradient id="paint48_linear_603_4367" x1="176.681" y1="235.709" x2="105.446" y2="53.7509" gradientUnits="userSpaceOnUse">
<stop stop-color="white"/>
<stop offset="1" stop-color="white"/>
</linearGradient>
<linearGradient id="paint49_linear_603_4367" x1="176.681" y1="235.709" x2="105.446" y2="53.7509" gradientUnits="userSpaceOnUse">
<stop stop-color="white"/>
<stop offset="1" stop-color="white"/>
</linearGradient>
</defs>
</svg>
