<svg width="150" height="80" viewBox="0 0 150 80" fill="none" xmlns="http://www.w3.org/2000/svg">
<g clip-path="url(#clip0_603_4177)">
<path d="M47.6231 60.8701L43.9679 54.5706L36.6073 67.3963L34.0354 62.9549H26.7249L36.6073 80" fill="white"/>
<path d="M39.4113 43.3356L35.4192 40.7568C35.0255 40.5244 34.6668 40.2376 34.354 39.9048C34.2189 39.7596 34.1143 39.589 34.0463 39.403C33.9783 39.217 33.9483 39.0194 33.958 38.8216C33.9742 38.5427 34.053 38.2709 34.1885 38.0263C34.3239 37.7816 34.5127 37.5702 34.741 37.4076C35.3057 36.9965 35.9949 36.7901 36.6938 36.823C37.4636 36.7857 38.2223 37.0182 38.8378 37.4802C39.0975 37.6876 39.3052 37.9525 39.4443 38.2538C39.5833 38.5551 39.65 38.8845 39.6389 39.2159H39.8483L40.0987 36.4106V36.1613H38.6921L38.2369 36.1115C37.7817 36.0616 37.372 36.0254 36.9623 35.9982C36.5527 35.971 36.2067 35.9574 35.929 35.9574C35.1455 35.9327 34.3668 36.0878 33.653 36.4106C33.0452 36.6913 32.527 37.1336 32.1554 37.6886C31.7861 38.2606 31.5641 38.9144 31.509 39.5921C31.426 40.3417 31.5735 41.0987 31.9319 41.7631C32.2904 42.4275 32.8429 42.9679 33.5165 43.3129L37.1581 45.7285C37.645 45.9695 38.076 46.3091 38.4235 46.7256C38.6755 47.0617 38.8099 47.4709 38.8059 47.8903C38.8084 48.2004 38.7425 48.5073 38.6127 48.7893C38.4829 49.0712 38.2924 49.3213 38.0548 49.5218C37.4558 50.0087 36.6968 50.2574 35.9245 50.2198C35.1704 50.2535 34.4218 50.0778 33.7623 49.7122C33.1784 49.3732 32.7044 48.8746 32.3967 48.2755C32.083 47.6697 31.9488 46.9875 32.0097 46.3086H31.8641C31.6591 46.6516 31.5057 47.0226 31.4089 47.4099C31.2936 47.8392 31.2279 48.2801 31.2131 48.7242C31.1903 49.0972 31.2398 49.4711 31.3588 49.8255C31.6665 50.1172 32.0283 50.3466 32.424 50.5008C32.9173 50.7068 33.4317 50.8587 33.958 50.954C34.5483 51.0601 35.1471 51.1132 35.747 51.1126C37.4175 51.1126 38.7376 50.7319 39.7163 49.9796C40.1996 49.6016 40.5913 49.1202 40.8624 48.571C41.1334 48.0219 41.2769 47.419 41.2822 46.8071C41.3482 46.1108 41.2047 45.4106 40.87 44.7956C40.5352 44.1807 40.0243 43.6788 39.4022 43.3537L39.4113 43.3356Z" fill="white"/>
<path d="M56.363 36.8773C54.9923 36.2679 53.5079 35.9529 52.0067 35.9529C50.5055 35.9529 49.0212 36.2679 47.6505 36.8773C46.464 37.4546 45.4734 38.3653 44.8009 39.4968C44.1431 40.7396 43.7993 42.1233 43.7993 43.5281C43.7993 44.9329 44.1431 46.3166 44.8009 47.5594C45.4778 48.6851 46.4675 49.5917 47.6505 50.1698C49.0212 50.7793 50.5055 51.0943 52.0067 51.0943C53.5079 51.0943 54.9923 50.7793 56.363 50.1698C57.5529 49.5902 58.5477 48.6785 59.2262 47.5458C59.8925 46.3064 60.241 44.9225 60.241 43.5168C60.241 42.1111 59.8925 40.7271 59.2262 39.4878C58.5469 38.3591 57.5519 37.452 56.363 36.8773ZM56.2083 47.079C55.8806 47.9882 55.3092 48.7907 54.5559 49.3994C53.8164 49.9327 52.9267 50.2199 52.0136 50.2199C51.1005 50.2199 50.2107 49.9327 49.4713 49.3994C48.7112 48.7951 48.1357 47.9914 47.8098 47.079C47.3923 45.9354 47.1932 44.7242 47.2226 43.5077C47.1926 42.3012 47.3871 41.0997 47.7961 39.9636C48.1221 39.0525 48.6977 38.2503 49.4576 37.6478C50.196 37.1118 51.0862 36.823 51.9999 36.823C52.9137 36.823 53.8039 37.1118 54.5422 37.6478C55.2953 38.2548 55.8669 39.0558 56.1946 39.9636C56.9715 42.2724 56.9715 44.7703 56.1946 47.079H56.2083Z" fill="white"/>
<path d="M71.7852 36.4515H71.9719C72.1109 36.4551 72.2477 36.4872 72.3738 36.5456C72.4998 36.6041 72.6125 36.6878 72.7047 36.7914C72.8152 36.9266 72.8802 37.0929 72.8909 37.2668C72.9015 37.4408 72.8571 37.6137 72.7639 37.7612L69.0859 46.3404L65.549 37.7612C65.4733 37.6272 65.4344 37.4757 65.4359 37.3219C65.4374 37.1681 65.4795 37.0174 65.5578 36.8849C65.6361 36.7524 65.7479 36.6426 65.8822 36.5665C66.0164 36.4905 66.1684 36.4508 66.3228 36.4515H66.5095V36.2566H59.8772V36.4651H60.041C60.3928 36.4739 60.7357 36.5773 61.0334 36.7642C61.4098 37.0103 61.7045 37.362 61.8801 37.7748L68.1482 51.2124H68.3348C68.3653 50.9959 68.4187 50.7832 68.4941 50.5779C68.5852 50.3105 68.6899 50.0295 68.8173 49.735C68.9448 49.4404 69.0586 49.1866 69.1633 48.9554C69.268 48.7243 69.3317 48.5702 69.359 48.5022L74.2342 37.7703C74.4156 37.3504 74.7203 36.995 75.1082 36.7506C75.3987 36.5663 75.7335 36.463 76.0778 36.4515H76.269V36.2566H71.7852V36.4515Z" fill="white"/>
<path d="M88.8098 48.339C88.4511 48.8272 87.9837 49.2259 87.4442 49.5038C86.8775 49.7788 86.2537 49.917 85.6234 49.9071H82.8921V44.0653H85.6507C86.127 44.0649 86.5846 44.2503 86.9252 44.5819C87.0906 44.7487 87.2203 44.9472 87.3063 45.1653C87.3924 45.3834 87.4331 45.6167 87.4259 45.8509V46.0186H87.6353V41.2418H87.3986V41.3868C87.406 41.6231 87.3654 41.8583 87.2794 42.0786C87.1934 42.2989 87.0636 42.4996 86.8979 42.6688C86.7322 42.838 86.5339 42.9722 86.3149 43.0635C86.0959 43.1547 85.8607 43.201 85.6234 43.1997H82.8648V37.1358H86.5064C87.0121 37.1609 87.4911 37.3688 87.8538 37.7204C88.0481 37.9251 88.199 38.1666 88.2975 38.4305C88.3961 38.6945 88.4402 38.9755 88.4274 39.2568V39.506H88.6368V35.8804C88.4336 35.9572 88.2231 36.0134 88.0086 36.0481C87.7173 36.1024 87.3986 36.1523 87.0572 36.1931C86.7356 36.2333 86.4118 36.2545 86.0877 36.2565H78.1307V36.465H78.4039C78.5739 36.4643 78.7424 36.4981 78.8989 36.5643C79.0554 36.6305 79.1968 36.7278 79.3143 36.8502C79.5639 37.0879 79.7109 37.413 79.7239 37.7566V49.2817C79.7072 49.6245 79.5608 49.9483 79.3143 50.1881C79.1961 50.3097 79.0547 50.4064 78.8983 50.4726C78.7419 50.5388 78.5738 50.573 78.4039 50.5733H78.1307V50.7818H88.9554L89.9159 46.5171H89.7065C89.5094 47.1691 89.2065 47.7845 88.8098 48.339Z" fill="white"/>
<path d="M103.067 36.1568C102.745 36.1994 102.421 36.2206 102.097 36.2203H93.8215C93.5003 36.22 93.1795 36.1988 92.8611 36.1568C92.5105 36.1161 92.1965 36.0707 91.9097 36.0118C91.693 35.9755 91.4798 35.9209 91.2724 35.8487V39.4743H91.4818V39.2477C91.4668 38.9641 91.51 38.6805 91.6086 38.414C91.7072 38.1476 91.8592 37.9039 92.0553 37.6977C92.26 37.5029 92.5012 37.3502 92.7652 37.2483C93.0293 37.1464 93.3109 37.0974 93.5939 37.104H96.3934V49.2953C96.3766 49.6381 96.2303 49.9619 95.9837 50.2017C95.8651 50.3227 95.7236 50.419 95.5673 50.4851C95.411 50.5513 95.2431 50.5859 95.0733 50.5869H94.8002V50.7954H101.15V50.5869H100.882C100.708 50.5886 100.536 50.5554 100.376 50.4892C100.215 50.423 100.07 50.3252 99.9485 50.2017C99.7036 49.9612 99.559 49.6375 99.5434 49.2953V37.095H102.32C102.606 37.0869 102.891 37.1353 103.158 37.2371C103.425 37.339 103.67 37.4925 103.877 37.6887C104.074 37.8946 104.226 38.1381 104.326 38.4046C104.425 38.671 104.469 38.9548 104.455 39.2386V39.4653H104.66V35.8396C104.458 35.9152 104.249 35.9699 104.036 36.0028C103.727 36.0707 103.408 36.1161 103.067 36.1568Z" fill="white"/>
<path d="M121.147 36.2565H116.532V36.465H116.932C117.101 36.4602 117.268 36.49 117.425 36.5523C117.582 36.6147 117.724 36.7083 117.843 36.8275C118.086 37.0672 118.225 37.3929 118.229 37.7339V45.9551L107.696 35.9302H107.487C107.643 36.7888 107.727 37.659 107.737 38.5316V49.327C107.733 49.6624 107.598 49.9831 107.36 50.2204C107.122 50.4576 106.799 50.5924 106.462 50.5959H106.062V50.8044H112.389V50.5959H111.98C111.643 50.5924 111.32 50.4576 111.082 50.2204C110.844 49.9831 110.708 49.6624 110.705 49.327V41.0831L121.275 51.0945H121.461C121.379 50.6413 121.316 50.2243 121.275 49.8164C121.234 49.4085 121.211 48.9463 121.211 48.4296V37.7203C121.214 37.5507 121.25 37.3833 121.318 37.2278C121.386 37.0722 121.484 36.9316 121.607 36.8139C121.727 36.6958 121.869 36.6029 122.025 36.5406C122.182 36.4783 122.349 36.4479 122.517 36.4514H122.904V36.2565H121.17H121.147Z" fill="white"/>
<path d="M129.277 36.2566H124.575V36.4651H124.844C125.017 36.4623 125.19 36.4951 125.35 36.5613C125.511 36.6276 125.656 36.7259 125.777 36.8503C126.022 37.0908 126.166 37.4145 126.182 37.7567V49.2817C126.166 49.6239 126.022 49.9476 125.777 50.1882C125.655 50.3117 125.51 50.4094 125.35 50.4756C125.189 50.5418 125.017 50.5751 124.844 50.5734H124.575V50.7819H130.925V50.5734H130.643C130.473 50.5723 130.305 50.5377 130.149 50.4716C129.993 50.4055 129.851 50.3091 129.732 50.1882C129.487 49.9476 129.343 49.6239 129.327 49.2817V37.7612C129.343 37.4191 129.487 37.0954 129.732 36.8548C129.85 36.733 129.992 36.6362 130.148 36.57C130.305 36.5038 130.473 36.4697 130.643 36.4696H130.916V36.2566H129.277Z" fill="white"/>
<path d="M147.39 50.2516C147.009 49.9958 146.676 49.6752 146.406 49.3044L141.226 42.2344L145.346 37.3715C145.607 37.0988 145.916 36.8747 146.256 36.7098C146.658 36.5219 147.096 36.4259 147.54 36.4288H147.626V36.2566H142.856V36.4424H143.065C143.183 36.4299 143.301 36.4529 143.405 36.5084C143.509 36.5639 143.594 36.6493 143.648 36.7535C143.703 36.8578 143.725 36.9759 143.711 37.0926C143.697 37.2093 143.648 37.3191 143.57 37.4077L138.595 43.9611L139.483 45.1893L140.316 46.345L141.185 47.5369C141.463 47.9267 141.704 48.262 141.914 48.5385C142.123 48.8149 142.264 48.9917 142.332 49.1005C142.646 49.5239 143.049 49.8748 143.511 50.1292C143.94 50.3612 144.4 50.532 144.877 50.6368C145.272 50.7288 145.674 50.7849 146.079 50.8045C146.434 50.8045 146.689 50.8045 146.843 50.8045H148.555V50.596C148.142 50.5921 147.738 50.4727 147.39 50.2516Z" fill="white"/>
<path d="M139.26 50.596C139.09 50.595 138.922 50.5604 138.766 50.4942C138.609 50.4281 138.468 50.3318 138.349 50.2108C138.104 49.9703 137.96 49.6466 137.944 49.3044V37.7612C137.96 37.4191 138.104 37.0954 138.349 36.8548C138.467 36.733 138.609 36.6362 138.765 36.57C138.922 36.5038 139.09 36.4697 139.26 36.4696H139.533V36.2566H133.183V36.4651H133.451C133.625 36.4623 133.798 36.4951 133.958 36.5613C134.119 36.6276 134.264 36.7259 134.385 36.8503C134.629 37.0908 134.774 37.4145 134.79 37.7567V49.2817C134.774 49.6239 134.629 49.9476 134.385 50.1882C134.263 50.3117 134.118 50.4094 133.957 50.4756C133.797 50.5418 133.625 50.5751 133.451 50.5734H133.183V50.7819H139.533V50.5734H139.26V50.596Z" fill="white"/>
<path fill-rule="evenodd" clip-rule="evenodd" d="M25.1472 62.1113H32.8018V62.5113H25.8354L35.1515 78.8631L34.8039 79.0611L25.1472 62.1113Z" fill="white"/>
<path fill-rule="evenodd" clip-rule="evenodd" d="M18.5086 30.1735L35.9973 0.0129395L36.3433 0.213588L18.8545 30.3745L18.1078 31.6573L17.7621 31.4561L18.5086 30.1735Z" fill="white"/>
<path fill-rule="evenodd" clip-rule="evenodd" d="M1.01508 60.3393L11.9354 41.5085L12.2814 41.7092L1.3611 60.5399L1.01508 60.3393Z" fill="white"/>
<path fill-rule="evenodd" clip-rule="evenodd" d="M13.7881 53.9355H40.9135V54.3355H13.7881V53.9355Z" fill="white"/>
<path fill-rule="evenodd" clip-rule="evenodd" d="M36.7839 65.4259L43.0019 54.4719L43.3498 54.6694L37.1317 65.6234L36.7839 65.4259Z" fill="white"/>
<path fill-rule="evenodd" clip-rule="evenodd" d="M37.6265 79.5061L48.1871 61.115L48.534 61.3142L37.9733 79.7053L37.6265 79.5061Z" fill="white"/>
<path fill-rule="evenodd" clip-rule="evenodd" d="M0.0488892 18.8301H22.232V19.2301H0.743159L18.0578 49.095L19.8376 52.1587L19.4918 52.3596L17.7119 49.296L0.0488892 18.8301Z" fill="white"/>
<path fill-rule="evenodd" clip-rule="evenodd" d="M34.5665 18.8301H71.1525V19.2301H34.7971L31.2041 25.4344L30.858 25.234L34.5665 18.8301Z" fill="white"/>
<path d="M57.5374 56.7776H57.5056C57.5 56.5896 57.4217 56.411 57.2871 56.2791C57.2219 56.2127 57.144 56.1601 57.058 56.1243C56.9719 56.0885 56.8796 56.0702 56.7864 56.0706H56.6407V55.9618H57.5511L57.5374 56.7776ZM57.5374 62.9593V63.7751H56.627V63.6618H56.7727C56.8657 63.6631 56.9579 63.6456 57.0439 63.6106C57.1299 63.5755 57.208 63.5236 57.2734 63.4579C57.4073 63.3254 57.4854 63.1471 57.4919 62.9593H57.5374ZM59.1762 55.9618V63.7751H57.4965V55.9618H59.1762ZM59.8726 55.9618C60.3667 55.9539 60.8592 56.0196 61.3338 56.1567C61.723 56.2622 62.0746 56.4742 62.3489 56.7685C62.6044 57.0776 62.7358 57.47 62.7176 57.8698C62.7284 58.1718 62.661 58.4714 62.5219 58.74C62.4056 58.9658 62.2292 59.1555 62.0121 59.2884C61.8109 59.4118 61.5861 59.4921 61.352 59.524C61.7078 59.5436 62.0539 59.6461 62.3626 59.8232C62.658 59.9941 62.9029 60.2395 63.0727 60.5347C63.2515 60.856 63.3411 61.2189 63.3322 61.5861C63.3453 62.0195 63.207 62.444 62.9407 62.7871C62.648 63.1289 62.2647 63.3817 61.8345 63.5168C61.3012 63.6892 60.7428 63.7719 60.1822 63.7615H59.0851C59.0851 63.5893 59.0851 63.4216 59.0851 63.2585H59.6906C60.0049 63.2679 60.317 63.2026 60.601 63.0681C60.8604 62.9405 61.0723 62.7342 61.2064 62.4789C61.3635 62.1593 61.4386 61.8058 61.4249 61.4502C61.4324 61.1634 61.3813 60.8782 61.2746 60.6117C61.1833 60.3967 61.0449 60.2047 60.8695 60.0498C60.6984 59.904 60.4983 59.7959 60.2823 59.7325C60.0534 59.6646 59.8156 59.631 59.5768 59.6328V59.5331C59.7487 59.5317 59.9194 59.5027 60.082 59.447C60.2507 59.3924 60.4058 59.3028 60.5372 59.1841C60.6769 59.0523 60.783 58.8891 60.8468 58.7083C61.012 58.176 60.9895 57.6036 60.783 57.0858C60.6798 56.8669 60.5048 56.6895 60.2869 56.5827C60.0514 56.4756 59.7946 56.4229 59.5358 56.4286H58.0746C58.0746 56.4286 58.0746 56.3788 58.0473 56.2972L57.9653 55.9482L59.8726 55.9618Z" fill="white"/>
<path d="M68.8082 55.8032C69.6152 55.7843 70.4152 55.9551 71.1434 56.3017C71.7809 56.6114 72.3151 57.0977 72.682 57.7021C73.0375 58.3685 73.2234 59.1116 73.2234 59.8662C73.2234 60.6207 73.0375 61.3638 72.682 62.0302C72.3154 62.636 71.7812 63.1238 71.1434 63.4352C70.408 63.7671 69.6103 63.94 68.8029 63.9423C67.9954 63.9447 67.1967 63.7765 66.4594 63.4488C65.8238 63.1398 65.2923 62.6531 64.9299 62.0484C64.5744 61.3819 64.3885 60.6389 64.3885 59.8843C64.3885 59.1297 64.5744 58.3867 64.9299 57.7202C65.2916 57.1138 65.8232 56.6255 66.4594 56.3153C67.1906 55.9621 67.9956 55.7866 68.8082 55.8032ZM68.8082 63.4624C69.3021 63.471 69.784 63.3111 70.1738 63.0092C70.5872 62.6855 70.9023 62.2541 71.0842 61.7628C71.503 60.525 71.503 59.1847 71.0842 57.9468C70.9023 57.4556 70.5872 57.0242 70.1738 56.7005C69.7765 56.4145 69.2986 56.2605 68.8082 56.2605C68.3179 56.2605 67.84 56.4145 67.4426 56.7005C67.0295 57.0244 66.7144 57.4557 66.5322 57.9468C66.1135 59.1847 66.1135 60.525 66.5322 61.7628C66.7144 62.2539 67.0295 62.6853 67.4426 63.0092C67.8346 63.3056 68.3161 63.4606 68.8082 63.4488V63.4624Z" fill="white"/>
<path d="M74.8852 56.7777H74.8487C74.8451 56.5893 74.7665 56.41 74.6303 56.2792C74.5661 56.2128 74.489 56.1601 74.4037 56.1242C74.3184 56.0884 74.2267 56.0702 74.1341 56.0707H73.9884V55.962H74.8988L74.8852 56.7777ZM74.8852 62.9595V63.7753H73.9748V63.662H74.1204C74.2194 63.6671 74.3183 63.6507 74.4103 63.6139C74.5023 63.5771 74.5851 63.5208 74.653 63.4489C74.7885 63.3176 74.8669 63.1386 74.8715 62.9504L74.8852 62.9595ZM76.533 55.962V63.7753H74.8487V55.962H76.533ZM77.8303 55.962C78.1626 55.9613 78.494 55.9978 78.8181 56.0707C79.1235 56.1396 79.4146 56.2607 79.6784 56.4288C79.9286 56.5917 80.1336 56.8145 80.2748 57.0769C80.435 57.3827 80.5134 57.7246 80.5024 58.0694C80.4992 58.3904 80.4327 58.7076 80.3066 59.003C80.1747 59.3124 79.9684 59.5848 79.7058 59.7961C79.4054 60.0277 79.0424 60.165 78.6633 60.1904C78.9103 60.2723 79.1348 60.4104 79.3188 60.5937C79.5009 60.7698 79.6641 60.9642 79.8059 61.1738C79.8059 61.1738 79.856 61.2554 79.9334 61.3733L80.2247 61.8265L80.5888 62.3567C80.7163 62.5335 80.8346 62.6921 80.9393 62.8099C81.079 62.9824 81.2311 63.1445 81.3945 63.2949C81.5196 63.4104 81.6645 63.5025 81.8224 63.5668C81.9877 63.6249 82.1615 63.6555 82.3368 63.6574V63.7707H81.2398C80.87 63.7732 80.5009 63.7383 80.1382 63.6665C79.827 63.6001 79.5307 63.4772 79.2642 63.3039C78.999 63.1201 78.7743 62.8841 78.6042 62.6105C78.5325 62.501 78.4672 62.3875 78.4084 62.2706C78.3356 62.1301 78.2628 61.9851 78.1899 61.8174C78.1171 61.6497 78.0397 61.5138 77.9714 61.3642C77.9031 61.2146 77.8394 61.0877 77.7848 60.9654C77.7302 60.843 77.6938 60.7524 77.671 60.6889C77.5986 60.4862 77.482 60.302 77.3296 60.1496C77.2146 60.0392 77.0685 59.9665 76.9108 59.9411V59.8278H77.2568C77.4604 59.8279 77.6618 59.7862 77.8485 59.7055C78.0493 59.615 78.2245 59.4764 78.3584 59.3021C78.5245 59.0746 78.6323 58.8101 78.6724 58.5317C78.6886 58.4553 78.7007 58.3781 78.7089 58.3005C78.7183 58.1995 78.7183 58.0979 78.7089 57.9969C78.724 57.5678 78.5798 57.1483 78.3037 56.8185C78.185 56.6978 78.0434 56.6016 77.8871 56.5355C77.7309 56.4693 77.5631 56.4346 77.3933 56.4333C77.2886 56.4333 77.1748 56.4333 77.0519 56.4333H76.5057C76.5057 56.4333 76.5057 56.3835 76.4784 56.3064L76.3964 55.9438L77.8303 55.962ZM76.4966 62.9595H76.533C76.5315 63.0525 76.5494 63.1447 76.5854 63.2305C76.6215 63.3163 76.6749 63.3937 76.7424 63.458C76.8771 63.5898 77.0588 63.6631 77.2477 63.662H77.3842V63.7753H76.4966V62.9595Z" fill="white"/>
<path d="M86.4882 55.8032C87.2952 55.7844 88.0952 55.9552 88.8234 56.3018C89.4609 56.6115 89.9951 57.0977 90.362 57.7022C90.7175 58.3686 90.9034 59.1117 90.9034 59.8662C90.9034 60.6208 90.7175 61.3639 90.362 62.0303C89.9954 62.6361 89.4612 63.1239 88.8234 63.4352C88.0883 63.7637 87.2917 63.9336 86.486 63.9336C85.6802 63.9336 84.8836 63.7637 84.1485 63.4352C83.5129 63.1262 82.9814 62.6396 82.619 62.0348C82.2635 61.3684 82.0776 60.6254 82.0776 59.8708C82.0776 59.1162 82.2635 58.3731 82.619 57.7067C82.9807 57.1003 83.5123 56.612 84.1485 56.3018C84.8782 55.9546 85.6798 55.7838 86.4882 55.8032ZM86.4882 63.4624C86.9821 63.4711 87.464 63.3112 87.8538 63.0092C88.2672 62.6855 88.5823 62.2541 88.7642 61.7629C89.183 60.5251 89.183 59.1848 88.7642 57.9469C88.5823 57.4557 88.2672 57.0243 87.8538 56.7006C87.4565 56.4145 86.9786 56.2605 86.4882 56.2605C85.9979 56.2605 85.52 56.4145 85.1226 56.7006C84.7095 57.0244 84.3944 57.4558 84.2122 57.9469C83.7935 59.1848 83.7935 60.5251 84.2122 61.7629C84.3944 62.254 84.7095 62.6854 85.1226 63.0092C85.515 63.305 85.9963 63.4599 86.4882 63.4488V63.4624Z" fill="white"/>
<path d="M99.5935 60.5166L99.6982 62.4336C99.5215 62.7204 99.2967 62.9749 99.0336 63.186C98.7262 63.4262 98.3777 63.6089 98.0048 63.7253C97.532 63.8717 97.0387 63.9421 96.5436 63.9338C95.7187 63.9419 94.9018 63.7718 94.1493 63.4352C93.496 63.1356 92.9452 62.6519 92.5652 62.0439C92.1994 61.3774 92.0078 60.6302 92.0078 59.8708C92.0078 59.1113 92.1994 58.3641 92.5652 57.6976C92.9363 57.0833 93.4853 56.5952 94.1402 56.2972C94.9088 55.9513 95.7459 55.7824 96.5892 55.8032C97.1302 55.7983 97.6698 55.8591 98.196 55.9845C98.6124 56.0856 99.0145 56.2379 99.3932 56.4377V58.3457H99.2931C99.1611 57.7192 98.8113 57.159 98.3053 56.764C97.8316 56.4505 97.2714 56.2921 96.703 56.3108C96.1556 56.3014 95.6185 56.4596 95.1644 56.764C94.7259 57.0719 94.3848 57.498 94.1811 57.9922C93.9337 58.5943 93.8144 59.2408 93.8306 59.8911C93.8169 60.5425 93.9298 61.1904 94.1629 61.7991C94.3527 62.296 94.6793 62.7295 95.1052 63.05C95.5261 63.3455 96.0286 63.5039 96.5436 63.5032C97.0452 63.5191 97.5441 63.4247 98.0048 63.2267C98.4102 63.0307 98.7443 62.7139 98.9608 62.3203C99.2413 61.7755 99.4261 61.1869 99.507 60.58L99.5935 60.5166Z" fill="white"/>
<path d="M101.578 56.7777H101.546C101.541 56.5897 101.462 56.4111 101.328 56.2792C101.263 56.2124 101.185 56.1595 101.099 56.1236C101.013 56.0878 100.92 56.0698 100.827 56.0707H100.681V55.9619H101.592L101.578 56.7777ZM101.578 62.9594V63.7752H100.668V63.6619H100.813C100.906 63.6637 100.999 63.6465 101.085 63.6114C101.171 63.5763 101.249 63.5241 101.314 63.4579C101.448 63.3255 101.526 63.1472 101.533 62.9594H101.578ZM103.231 55.9619V63.7752H101.546V55.9619H103.231ZM106.963 59.6465V60.1269H103.117V59.6465H106.963ZM103.194 56.7777V55.9619H104.105V56.0707H103.959C103.866 56.0699 103.774 56.0879 103.689 56.1238C103.604 56.1596 103.527 56.2125 103.463 56.2792C103.394 56.3433 103.34 56.4205 103.302 56.5062C103.265 56.5919 103.245 56.6842 103.244 56.7777H103.194ZM103.194 62.9594H103.231C103.232 63.0528 103.252 63.145 103.289 63.2306C103.327 63.3162 103.381 63.3935 103.449 63.4579C103.513 63.524 103.59 63.5762 103.676 63.6112C103.761 63.6463 103.853 63.6636 103.945 63.6619H104.091V63.7752H103.18L103.194 62.9594ZM106.895 56.7777H106.863C106.864 56.6843 106.846 56.5918 106.809 56.5059C106.772 56.4201 106.718 56.3429 106.649 56.2792C106.583 56.2127 106.504 56.16 106.418 56.1242C106.331 56.0884 106.238 56.0702 106.144 56.0707H105.998V55.9619H106.909L106.895 56.7777ZM106.895 62.9594V63.7752H105.985V63.6619H106.13C106.224 63.6632 106.317 63.6459 106.404 63.6108C106.49 63.5758 106.569 63.5238 106.635 63.4579C106.704 63.3939 106.758 63.3166 106.794 63.2308C106.831 63.1451 106.85 63.0527 106.849 62.9594H106.895ZM108.543 55.9619V63.7752H106.863V55.9619H108.543ZM108.511 56.7777V55.9619H109.421V56.0707H109.248C109.155 56.0698 109.062 56.0878 108.976 56.1236C108.89 56.1595 108.812 56.2124 108.748 56.2792C108.613 56.4111 108.535 56.5897 108.529 56.7777H108.511ZM108.511 62.9594H108.543C108.549 63.1472 108.627 63.3255 108.761 63.4579C108.826 63.5241 108.904 63.5763 108.99 63.6114C109.077 63.6465 109.169 63.6637 109.262 63.6619H109.408V63.7752H108.497L108.511 62.9594Z" fill="white"/>
<path d="M114.611 55.8032C115.418 55.7843 116.218 55.9551 116.946 56.3017C117.585 56.6093 118.12 57.096 118.484 57.7021C118.84 58.3685 119.026 59.1116 119.026 59.8662C119.026 60.6207 118.84 61.3638 118.484 62.0302C118.119 62.637 117.584 63.1251 116.946 63.4352C116.211 63.7637 115.414 63.9335 114.608 63.9335C113.803 63.9335 113.006 63.7637 112.271 63.4352C111.635 63.1262 111.104 62.6396 110.741 62.0348C110.389 61.3675 110.204 60.6248 110.204 59.8707C110.204 59.1166 110.389 58.3739 110.741 57.7066C111.103 57.1002 111.635 56.6119 112.271 56.3017C113.001 55.9551 113.802 55.7843 114.611 55.8032ZM114.611 63.4624C115.104 63.471 115.586 63.3111 115.976 63.0092C116.39 62.6855 116.705 62.2541 116.887 61.7628C117.305 60.525 117.305 59.1847 116.887 57.9468C116.705 57.4556 116.39 57.0242 115.976 56.7005C115.579 56.4145 115.101 56.2605 114.611 56.2605C114.12 56.2605 113.642 56.4145 113.245 56.7005C112.839 57.0259 112.531 57.4574 112.357 57.9468C111.932 59.1836 111.932 60.5261 112.357 61.7628C112.531 62.2523 112.839 62.6838 113.245 63.0092C113.637 63.3049 114.119 63.4599 114.611 63.4488V63.4624Z" fill="white"/>
<path d="M121.885 56.7777H119.914C119.819 56.5558 119.661 56.3667 119.458 56.2338C119.299 56.1319 119.115 56.0755 118.926 56.0707H118.835V55.9619H122.404V56.0707H122.299C122.216 56.0713 122.135 56.0934 122.063 56.1348C121.991 56.1762 121.931 56.2354 121.89 56.3068C121.848 56.3781 121.825 56.459 121.825 56.5416C121.824 56.6241 121.844 56.7055 121.885 56.7777ZM123.278 63.9973L119.563 56.0299H121.571L123.97 61.8445L123.278 63.9973ZM123.278 63.9973L123.241 62.6376L126.091 55.9936H126.896L123.929 62.5425L123.819 62.7917L123.633 63.2087C123.569 63.3673 123.51 63.5169 123.46 63.6619C123.42 63.7719 123.393 63.8859 123.378 64.0018L123.278 63.9973ZM125.754 56.7777C125.803 56.6981 125.827 56.6054 125.821 56.5121C125.815 56.4188 125.781 56.3295 125.722 56.2565C125.672 56.2002 125.611 56.1547 125.543 56.1227C125.475 56.0908 125.401 56.0731 125.326 56.0707H125.226V55.9619H127.625V56.0707H127.525C127.34 56.077 127.161 56.1334 127.006 56.2338C126.801 56.3642 126.642 56.5541 126.551 56.7777H125.754Z" fill="white"/>
<path d="M128.681 56.7777H128.649C128.643 56.5897 128.565 56.4111 128.43 56.2792C128.365 56.2128 128.287 56.1602 128.201 56.1244C128.115 56.0885 128.023 56.0703 127.93 56.0707H127.784V55.9619H128.695L128.681 56.7777ZM128.681 62.9594V63.7752H127.77V63.6619H127.912C128.005 63.6631 128.097 63.6457 128.183 63.6107C128.269 63.5756 128.347 63.5237 128.412 63.4579C128.546 63.3255 128.624 63.1472 128.631 62.9594H128.681ZM130.329 55.9619V63.7752H128.649V55.9619H130.329ZM130.297 56.7777V55.9619H131.207V56.0707H131.062C130.968 56.0698 130.876 56.0878 130.79 56.1236C130.704 56.1595 130.626 56.2124 130.561 56.2792C130.426 56.4111 130.348 56.5897 130.342 56.7777H130.297ZM130.297 62.9594H130.329C130.335 63.1472 130.413 63.3255 130.547 63.4579C130.612 63.5241 130.69 63.5763 130.776 63.6114C130.862 63.6465 130.955 63.6637 131.048 63.6619H131.194V63.7752H130.283L130.297 62.9594Z" fill="white"/>
<path d="M139.524 60.5165L139.624 62.4336C139.449 62.7202 139.226 62.9747 138.964 63.1859C138.654 63.4252 138.304 63.6078 137.931 63.7252C137.459 63.8717 136.967 63.9421 136.474 63.9337C135.649 63.9429 134.832 63.7727 134.08 63.4352C133.425 63.1356 132.873 62.652 132.491 62.0438C132.125 61.3774 131.933 60.6301 131.933 59.8707C131.933 59.1112 132.125 58.364 132.491 57.6976C132.863 57.0843 133.412 56.5965 134.066 56.2972C134.835 55.9517 135.672 55.7828 136.515 55.8032C137.057 55.7982 137.599 55.8591 138.126 55.9844C138.541 56.0863 138.941 56.2385 139.319 56.4376V58.3456H139.219C139.09 57.7177 138.74 57.1566 138.231 56.764C137.757 56.4505 137.197 56.292 136.629 56.3107C136.083 56.3005 135.547 56.4588 135.095 56.764C134.654 57.0702 134.311 57.4967 134.107 57.9921C133.861 58.5946 133.743 59.2411 133.761 59.8911C133.746 60.5421 133.857 61.19 134.089 61.7991C134.282 62.2942 134.608 62.7269 135.031 63.0499C135.453 63.3456 135.957 63.5039 136.474 63.5031C136.974 63.5185 137.471 63.4241 137.931 63.2267C138.336 63.0297 138.672 62.7133 138.891 62.3203C139.17 61.7751 139.353 61.1865 139.433 60.58L139.524 60.5165Z" fill="white"/>
<path d="M141.508 56.7777H141.472C141.471 56.6842 141.451 56.5919 141.414 56.5062C141.376 56.4205 141.322 56.3433 141.254 56.2792C141.189 56.2127 141.112 56.16 141.027 56.1242C140.942 56.0883 140.85 56.0701 140.757 56.0707H140.612V55.9619H141.522L141.508 56.7777ZM141.508 62.9594V63.7752H140.598V63.6619H140.744C140.836 63.663 140.927 63.6456 141.013 63.6105C141.098 63.5754 141.175 63.5236 141.24 63.4579C141.308 63.3935 141.362 63.3162 141.4 63.2306C141.437 63.145 141.457 63.0528 141.458 62.9594H141.508ZM143.156 55.9619V63.7752H141.472V55.9619H143.156ZM146.889 59.6465V60.1269H143.042V59.6465H146.889ZM143.124 56.7777V55.9619H144.035V56.0707H143.889C143.796 56.0698 143.703 56.0878 143.617 56.1236C143.531 56.1595 143.453 56.2124 143.388 56.2792C143.254 56.4111 143.175 56.5897 143.17 56.7777H143.124ZM143.124 62.9594H143.156C143.169 63.1459 143.252 63.3208 143.388 63.4489C143.454 63.515 143.532 63.5673 143.618 63.6023C143.704 63.6374 143.796 63.6546 143.889 63.6528H144.035V63.7661H143.124V62.9594ZM146.821 56.7777H146.789C146.79 56.6843 146.771 56.5918 146.735 56.5059C146.698 56.4201 146.643 56.3429 146.575 56.2792C146.509 56.2127 146.43 56.16 146.343 56.1242C146.257 56.0884 146.163 56.0702 146.07 56.0707H145.924V55.9619H146.834L146.821 56.7777ZM146.821 62.9594V63.7752H145.91V63.6619H146.056C146.152 63.6639 146.248 63.646 146.338 63.6094C146.427 63.5727 146.508 63.5181 146.575 63.4489C146.643 63.3848 146.697 63.3075 146.734 63.2218C146.771 63.136 146.789 63.0436 146.789 62.9504L146.821 62.9594ZM148.473 55.9619V63.7752H146.789V55.9619H148.473ZM148.437 56.7777V55.9619H149.347V56.0707H149.201C149.109 56.0699 149.017 56.0879 148.932 56.1238C148.846 56.1596 148.769 56.2125 148.705 56.2792C148.637 56.3433 148.582 56.4205 148.545 56.5062C148.507 56.5919 148.487 56.6842 148.487 56.7777H148.437ZM148.437 62.9594H148.473C148.474 63.0528 148.494 63.145 148.532 63.2306C148.569 63.3162 148.624 63.3935 148.692 63.4579C148.756 63.524 148.833 63.5762 148.918 63.6112C149.004 63.6463 149.095 63.6636 149.188 63.6619H149.333V63.7752H148.423L148.437 62.9594Z" fill="white"/>
<path d="M22.0272 38.5088L36.6073 13.3649L39.1792 17.8018H46.4897L36.6073 0.76123L19.1184 30.9221L18.3719 32.2047L22.0272 38.5088Z" fill="white"/>
<path d="M16.2006 48.5565L12.5453 42.2524L1.62506 61.0832H36.6073H38.0958L41.7511 54.7791H12.5909L16.2006 48.5565Z" fill="white"/>
<path d="M19.8104 25.9823L23.4656 19.6782H1.62506L19.1184 49.8391L20.8937 52.9073H28.2043L12.5909 25.9823H19.8104Z" fill="white"/>
<path d="M36.6073 19.6782H35.1188L31.4635 25.9823H60.6237L57.8014 29.8436L61.0607 34.5661L71.5895 19.6782H36.6073Z" fill="white"/>
</g>
<defs>
<clipPath id="clip0_603_4177">
<rect width="149.333" height="80" fill="white"/>
</clipPath>
</defs>
</svg>
