<svg width="150" height="80" viewBox="0 0 150 80" fill="none" xmlns="http://www.w3.org/2000/svg">
<path d="M47.6233 60.8701L43.968 54.5706L36.6074 67.3963L34.0355 62.9549H26.725L36.6074 80" fill="url(#paint0_linear_558_3832)"/>
<path d="M39.4114 43.3356L35.4193 40.7568C35.0256 40.5244 34.6669 40.2376 34.3542 39.9048C34.219 39.7596 34.1144 39.589 34.0464 39.403C33.9784 39.217 33.9484 39.0194 33.9581 38.8216C33.9744 38.5427 34.0531 38.2709 34.1886 38.0263C34.3241 37.7816 34.5128 37.5702 34.7411 37.4076C35.3059 36.9965 35.995 36.7901 36.6939 36.823C37.4638 36.7857 38.2224 37.0182 38.8379 37.4802C39.0977 37.6876 39.3053 37.9525 39.4444 38.2538C39.5834 38.5551 39.6501 38.8845 39.639 39.2159H39.8484L40.0988 36.4106V36.1613H38.6922L38.237 36.1115C37.7818 36.0616 37.3721 36.0254 36.9625 35.9982C36.5528 35.971 36.2068 35.9574 35.9292 35.9574C35.1456 35.9327 34.3669 36.0878 33.6531 36.4106C33.0454 36.6913 32.5271 37.1336 32.1555 37.6886C31.7863 38.2606 31.5643 38.9144 31.5092 39.5921C31.4262 40.3417 31.5736 41.0987 31.9321 41.7631C32.2905 42.4275 32.843 42.9679 33.5166 43.3129L37.1582 45.7285C37.6451 45.9695 38.0762 46.3091 38.4237 46.7256C38.6757 47.0617 38.81 47.4709 38.806 47.8903C38.8085 48.2004 38.7426 48.5073 38.6128 48.7893C38.483 49.0712 38.2926 49.3213 38.0549 49.5218C37.4559 50.0087 36.697 50.2574 35.9246 50.2198C35.1705 50.2535 34.4219 50.0778 33.7624 49.7122C33.1785 49.3732 32.7046 48.8746 32.3968 48.2755C32.0831 47.6697 31.9489 46.9875 32.0099 46.3086H31.8642C31.6592 46.6516 31.5058 47.0226 31.409 47.4099C31.2937 47.8392 31.2281 48.2801 31.2133 48.7242C31.1905 49.0972 31.2399 49.4711 31.3589 49.8255C31.6667 50.1172 32.0284 50.3466 32.4241 50.5008C32.9174 50.7068 33.4318 50.8587 33.9581 50.954C34.5485 51.0601 35.1472 51.1132 35.7471 51.1126C37.4177 51.1126 38.7377 50.7319 39.7164 49.9796C40.1997 49.6016 40.5914 49.1202 40.8625 48.571C41.1335 48.0219 41.277 47.419 41.2823 46.8071C41.3483 46.1108 41.2049 45.4106 40.8701 44.7956C40.5353 44.1807 40.0244 43.6788 39.4023 43.3537L39.4114 43.3356Z" fill="black"/>
<path d="M56.3631 36.8773C54.9924 36.2679 53.5081 35.9529 52.0069 35.9529C50.5057 35.9529 49.0213 36.2679 47.6506 36.8773C46.4641 37.4546 45.4735 38.3653 44.801 39.4968C44.1432 40.7396 43.7995 42.1233 43.7995 43.5281C43.7995 44.9329 44.1432 46.3166 44.801 47.5594C45.478 48.6851 46.4676 49.5917 47.6506 50.1698C49.0213 50.7793 50.5057 51.0943 52.0069 51.0943C53.5081 51.0943 54.9924 50.7793 56.3631 50.1698C57.553 49.5902 58.5478 48.6785 59.2264 47.5458C59.8926 46.3064 60.2412 44.9225 60.2412 43.5168C60.2412 42.1111 59.8926 40.7271 59.2264 39.4878C58.547 38.3591 57.552 37.452 56.3631 36.8773ZM56.2084 47.079C55.8807 47.9882 55.3093 48.7907 54.556 49.3994C53.8165 49.9327 52.9268 50.2199 52.0137 50.2199C51.1006 50.2199 50.2108 49.9327 49.4714 49.3994C48.7113 48.7951 48.1358 47.9914 47.8099 47.079C47.3924 45.9354 47.1933 44.7242 47.2227 43.5077C47.1927 42.3012 47.3872 41.0997 47.7963 39.9636C48.1223 39.0525 48.6978 38.2503 49.4577 37.6478C50.1961 37.1118 51.0863 36.823 52 36.823C52.9138 36.823 53.804 37.1118 54.5423 37.6478C55.2955 38.2548 55.867 39.0558 56.1947 39.9636C56.9716 42.2724 56.9716 44.7703 56.1947 47.079H56.2084Z" fill="black"/>
<path d="M71.7854 36.4515H71.972C72.111 36.4551 72.2478 36.4872 72.3739 36.5456C72.5 36.6041 72.6126 36.6878 72.7049 36.7914C72.8153 36.9266 72.8804 37.0929 72.891 37.2668C72.9016 37.4408 72.8572 37.6137 72.764 37.7612L69.086 46.3404L65.5491 37.7612C65.4735 37.6272 65.4345 37.4757 65.436 37.3219C65.4376 37.1681 65.4796 37.0174 65.5579 36.8849C65.6362 36.7524 65.7481 36.6426 65.8823 36.5665C66.0166 36.4905 66.1685 36.4508 66.3229 36.4515H66.5096V36.2566H59.8773V36.4651H60.0412C60.393 36.4739 60.7358 36.5773 61.0335 36.7642C61.4099 37.0103 61.7046 37.362 61.8802 37.7748L68.1483 51.2124H68.3349C68.3654 50.9959 68.4188 50.7832 68.4943 50.5779C68.5853 50.3105 68.69 50.0295 68.8174 49.735C68.9449 49.4404 69.0587 49.1866 69.1634 48.9554C69.2681 48.7243 69.3318 48.5702 69.3591 48.5022L74.2343 37.7703C74.4157 37.3504 74.7204 36.995 75.1083 36.7506C75.3988 36.5663 75.7337 36.463 76.0779 36.4515H76.2691V36.2566H71.7854V36.4515Z" fill="black"/>
<path d="M88.8099 48.339C88.4513 48.8272 87.9838 49.2259 87.4443 49.5038C86.8776 49.7788 86.2538 49.917 85.6235 49.9071H82.8923V44.0653H85.6508C86.1272 44.0649 86.5847 44.2503 86.9254 44.5819C87.0907 44.7487 87.2204 44.9472 87.3065 45.1653C87.3925 45.3834 87.4332 45.6167 87.4261 45.8509V46.0186H87.6355V41.2418H87.3988V41.3868C87.4061 41.6231 87.3655 41.8583 87.2795 42.0786C87.1935 42.2989 87.0637 42.4996 86.898 42.6688C86.7323 42.838 86.534 42.9722 86.315 43.0635C86.0961 43.1547 85.8608 43.201 85.6235 43.1997H82.865V37.1358H86.5066C87.0122 37.1609 87.4912 37.3688 87.854 37.7204C88.0482 37.9251 88.1991 38.1666 88.2976 38.4305C88.3962 38.6945 88.4403 38.9755 88.4275 39.2568V39.506H88.6369V35.8804C88.4337 35.9572 88.2233 36.0134 88.0087 36.0481C87.7174 36.1024 87.3988 36.1523 87.0574 36.1931C86.7357 36.2333 86.4119 36.2545 86.0878 36.2565H78.1309V36.465H78.404C78.5741 36.4643 78.7425 36.4981 78.899 36.5643C79.0556 36.6305 79.1969 36.7278 79.3144 36.8502C79.5641 37.0879 79.711 37.413 79.7241 37.7566V49.2817C79.7073 49.6245 79.561 49.9483 79.3144 50.1881C79.1962 50.3097 79.0548 50.4064 78.8984 50.4726C78.742 50.5388 78.5739 50.573 78.404 50.5733H78.1309V50.7818H88.9555L89.916 46.5171H89.7066C89.5095 47.1691 89.2066 47.7845 88.8099 48.339Z" fill="black"/>
<path d="M103.067 36.1568C102.745 36.1994 102.421 36.2206 102.097 36.2203H93.8217C93.5004 36.22 93.1796 36.1988 92.8612 36.1568C92.5107 36.1161 92.1966 36.0707 91.9098 36.0118C91.6931 35.9755 91.4799 35.9209 91.2725 35.8487V39.4743H91.4819V39.2477C91.467 38.9641 91.5101 38.6805 91.6087 38.414C91.7073 38.1476 91.8593 37.9039 92.0555 37.6977C92.2601 37.5029 92.5014 37.3502 92.7654 37.2483C93.0294 37.1464 93.311 37.0974 93.5941 37.104H96.3935V49.2953C96.3768 49.6381 96.2304 49.9619 95.9839 50.2017C95.8652 50.3227 95.7237 50.419 95.5674 50.4851C95.4111 50.5513 95.2433 50.5859 95.0735 50.5869H94.8003V50.7954H101.15V50.5869H100.882C100.708 50.5886 100.536 50.5554 100.376 50.4892C100.215 50.423 100.07 50.3252 99.9487 50.2017C99.7038 49.9612 99.5591 49.6375 99.5435 49.2953V37.095H102.32C102.606 37.0869 102.891 37.1353 103.158 37.2371C103.425 37.339 103.67 37.4925 103.877 37.6887C104.074 37.8946 104.227 38.1381 104.326 38.4046C104.425 38.671 104.469 38.9548 104.455 39.2386V39.4653H104.66V35.8396C104.458 35.9152 104.249 35.9699 104.036 36.0028C103.727 36.0707 103.408 36.1161 103.067 36.1568Z" fill="black"/>
<path d="M121.147 36.2565H116.532V36.465H116.932C117.101 36.4602 117.269 36.49 117.425 36.5523C117.582 36.6147 117.724 36.7083 117.843 36.8275C118.086 37.0672 118.225 37.3929 118.23 37.7339V45.9551L107.696 35.9302H107.487C107.643 36.7888 107.727 37.659 107.737 38.5316V49.327C107.734 49.6624 107.598 49.9831 107.36 50.2204C107.122 50.4576 106.8 50.5924 106.463 50.5959H106.062V50.8044H112.389V50.5959H111.98C111.643 50.5924 111.321 50.4576 111.082 50.2204C110.844 49.9831 110.709 49.6624 110.705 49.327V41.0831L121.275 51.0945H121.461C121.38 50.6413 121.316 50.2243 121.275 49.8164C121.234 49.4085 121.211 48.9463 121.211 48.4296V37.7203C121.214 37.5507 121.25 37.3833 121.318 37.2278C121.386 37.0722 121.484 36.9316 121.607 36.8139C121.727 36.6958 121.869 36.6029 122.025 36.5406C122.182 36.4783 122.349 36.4479 122.518 36.4514H122.904V36.2565H121.17H121.147Z" fill="black"/>
<path d="M129.277 36.2566H124.575V36.4651H124.844C125.017 36.4623 125.19 36.4951 125.35 36.5613C125.511 36.6276 125.656 36.7259 125.777 36.8503C126.022 37.0908 126.166 37.4145 126.182 37.7567V49.2817C126.166 49.6239 126.022 49.9476 125.777 50.1882C125.655 50.3117 125.51 50.4094 125.35 50.4756C125.189 50.5418 125.017 50.5751 124.844 50.5734H124.575V50.7819H130.925V50.5734H130.643C130.473 50.5723 130.305 50.5377 130.149 50.4716C129.993 50.4055 129.851 50.3091 129.732 50.1882C129.488 49.9476 129.343 49.6239 129.327 49.2817V37.7612C129.343 37.4191 129.488 37.0954 129.732 36.8548C129.85 36.733 129.992 36.6362 130.148 36.57C130.305 36.5038 130.473 36.4697 130.643 36.4696H130.916V36.2566H129.277Z" fill="black"/>
<path d="M147.39 50.2516C147.009 49.9958 146.676 49.6752 146.407 49.3044L141.226 42.2344L145.346 37.3715C145.607 37.0988 145.916 36.8747 146.256 36.7098C146.658 36.5219 147.096 36.4259 147.54 36.4288H147.626V36.2566H142.856V36.4424H143.065C143.183 36.4299 143.301 36.4529 143.405 36.5084C143.509 36.5639 143.594 36.6493 143.649 36.7535C143.703 36.8578 143.725 36.9759 143.711 37.0926C143.697 37.2093 143.648 37.3191 143.571 37.4077L138.595 43.9611L139.483 45.1893L140.316 46.345L141.185 47.5369C141.463 47.9267 141.704 48.262 141.914 48.5385C142.123 48.8149 142.264 48.9917 142.332 49.1005C142.647 49.5239 143.049 49.8748 143.511 50.1292C143.941 50.3612 144.4 50.532 144.877 50.6368C145.272 50.7288 145.674 50.7849 146.079 50.8045C146.434 50.8045 146.689 50.8045 146.843 50.8045H148.555V50.596C148.142 50.5921 147.738 50.4727 147.39 50.2516Z" fill="black"/>
<path d="M139.26 50.596C139.09 50.595 138.922 50.5604 138.766 50.4942C138.61 50.4281 138.468 50.3318 138.349 50.2108C138.105 49.9703 137.96 49.6466 137.944 49.3044V37.7612C137.96 37.4191 138.105 37.0954 138.349 36.8548C138.467 36.733 138.609 36.6362 138.765 36.57C138.922 36.5038 139.09 36.4697 139.26 36.4696H139.533V36.2566H133.183V36.4651H133.451C133.625 36.4623 133.798 36.4951 133.958 36.5613C134.119 36.6276 134.264 36.7259 134.385 36.8503C134.63 37.0908 134.774 37.4145 134.79 37.7567V49.2817C134.774 49.6239 134.63 49.9476 134.385 50.1882C134.263 50.3117 134.118 50.4094 133.958 50.4756C133.797 50.5418 133.625 50.5751 133.451 50.5734H133.183V50.7819H139.533V50.5734H139.26V50.596Z" fill="black"/>
<path fill-rule="evenodd" clip-rule="evenodd" d="M25.1473 62.1113H32.8019V62.5113H25.8355L35.1516 78.8631L34.804 79.0611L25.1473 62.1113Z" fill="#3D72E0"/>
<path fill-rule="evenodd" clip-rule="evenodd" d="M18.5087 30.1735L35.9974 0.0129395L36.3434 0.213588L18.8546 30.3745L18.1079 31.6573L17.7622 31.4561L18.5087 30.1735Z" fill="#3D72E0"/>
<path fill-rule="evenodd" clip-rule="evenodd" d="M1.0152 60.3393L11.9355 41.5085L12.2815 41.7092L1.36122 60.5399L1.0152 60.3393Z" fill="#3D72E0"/>
<path fill-rule="evenodd" clip-rule="evenodd" d="M13.7882 53.9355H40.9136V54.3355H13.7882V53.9355Z" fill="#3D72E0"/>
<path fill-rule="evenodd" clip-rule="evenodd" d="M36.784 65.4259L43.002 54.4719L43.3499 54.6694L37.1319 65.6234L36.784 65.4259Z" fill="#3D72E0"/>
<path fill-rule="evenodd" clip-rule="evenodd" d="M37.6266 79.5061L48.1873 61.115L48.5341 61.3142L37.9735 79.7053L37.6266 79.5061Z" fill="#3D72E0"/>
<path fill-rule="evenodd" clip-rule="evenodd" d="M0.0490112 18.8301H22.2322V19.2301H0.743281L18.0579 49.095L19.8378 52.1587L19.4919 52.3596L17.712 49.296L0.0490112 18.8301Z" fill="#3D72E0"/>
<path fill-rule="evenodd" clip-rule="evenodd" d="M34.5666 18.8301H71.1526V19.2301H34.7972L31.2043 25.4344L30.8581 25.234L34.5666 18.8301Z" fill="#3D72E0"/>
<path d="M57.5376 56.7776H57.5057C57.5001 56.5896 57.4219 56.411 57.2872 56.2791C57.222 56.2127 57.1441 56.1601 57.0581 56.1243C56.9721 56.0885 56.8797 56.0702 56.7865 56.0706H56.6408V55.9618H57.5512L57.5376 56.7776ZM57.5376 62.9593V63.7751H56.6272V63.6618H56.7728C56.8658 63.6631 56.958 63.6456 57.044 63.6106C57.1301 63.5755 57.2081 63.5236 57.2736 63.4579C57.4074 63.3254 57.4856 63.1471 57.492 62.9593H57.5376ZM59.1763 55.9618V63.7751H57.4966V55.9618H59.1763ZM59.8728 55.9618C60.3668 55.9539 60.8594 56.0196 61.334 56.1567C61.7231 56.2622 62.0748 56.4742 62.349 56.7685C62.6045 57.0776 62.7359 57.47 62.7178 57.8698C62.7285 58.1718 62.6611 58.4714 62.522 58.74C62.4057 58.9658 62.2293 59.1555 62.0122 59.2884C61.811 59.4118 61.5862 59.4921 61.3522 59.524C61.7079 59.5436 62.054 59.6461 62.3627 59.8232C62.6581 59.9941 62.903 60.2395 63.0728 60.5347C63.2516 60.856 63.3412 61.2189 63.3323 61.5861C63.3454 62.0195 63.2071 62.444 62.9408 62.7871C62.6482 63.1289 62.2648 63.3817 61.8347 63.5168C61.3013 63.6892 60.7429 63.7719 60.1823 63.7615H59.0853C59.0853 63.5893 59.0853 63.4216 59.0853 63.2585H59.6907C60.005 63.2679 60.3171 63.2026 60.6011 63.0681C60.8605 62.9405 61.0725 62.7342 61.2065 62.4789C61.3636 62.1593 61.4387 61.8058 61.425 61.4502C61.4325 61.1634 61.3814 60.8782 61.2748 60.6117C61.1834 60.3967 61.045 60.2047 60.8696 60.0498C60.6985 59.904 60.4984 59.7959 60.2824 59.7325C60.0535 59.6646 59.8157 59.631 59.5769 59.6328V59.5331C59.7489 59.5317 59.9195 59.5027 60.0821 59.447C60.2508 59.3924 60.406 59.3028 60.5373 59.1841C60.6771 59.0523 60.7832 58.8891 60.8469 58.7083C61.0121 58.176 60.9896 57.6036 60.7832 57.0858C60.6799 56.8669 60.5049 56.6895 60.287 56.5827C60.0515 56.4756 59.7947 56.4229 59.5359 56.4286H58.0747C58.0747 56.4286 58.0747 56.3788 58.0474 56.2972L57.9655 55.9482L59.8728 55.9618Z" fill="#3D72E0"/>
<path d="M68.8084 55.8032C69.6153 55.7843 70.4153 55.9551 71.1435 56.3017C71.781 56.6114 72.3152 57.0977 72.6821 57.7021C73.0376 58.3685 73.2235 59.1116 73.2235 59.8662C73.2235 60.6207 73.0376 61.3638 72.6821 62.0302C72.3155 62.636 71.7813 63.1238 71.1435 63.4352C70.4082 63.7671 69.6104 63.94 68.803 63.9423C67.9956 63.9447 67.1968 63.7765 66.4595 63.4488C65.8239 63.1398 65.2924 62.6531 64.93 62.0484C64.5745 61.3819 64.3886 60.6389 64.3886 59.8843C64.3886 59.1297 64.5745 58.3867 64.93 57.7202C65.2917 57.1138 65.8233 56.6255 66.4595 56.3153C67.1908 55.9621 67.9957 55.7866 68.8084 55.8032ZM68.8084 63.4624C69.3022 63.471 69.7841 63.3111 70.174 63.0092C70.5873 62.6855 70.9024 62.2541 71.0844 61.7628C71.5031 60.525 71.5031 59.1847 71.0844 57.9468C70.9024 57.4556 70.5873 57.0242 70.174 56.7005C69.7766 56.4145 69.2987 56.2605 68.8084 56.2605C68.318 56.2605 67.8401 56.4145 67.4427 56.7005C67.0296 57.0244 66.7145 57.4557 66.5323 57.9468C66.1136 59.1847 66.1136 60.525 66.5323 61.7628C66.7145 62.2539 67.0296 62.6853 67.4427 63.0092C67.8347 63.3056 68.3163 63.4606 68.8084 63.4488V63.4624Z" fill="#3D72E0"/>
<path d="M74.8853 56.7777H74.8489C74.8452 56.5893 74.7666 56.41 74.6304 56.2792C74.5662 56.2128 74.4891 56.1601 74.4038 56.1242C74.3185 56.0884 74.2268 56.0702 74.1342 56.0707H73.9885V55.962H74.8989L74.8853 56.7777ZM74.8853 62.9595V63.7753H73.9749V63.662H74.1206C74.2195 63.6671 74.3184 63.6507 74.4104 63.6139C74.5024 63.5771 74.5852 63.5208 74.6531 63.4489C74.7886 63.3176 74.867 63.1386 74.8716 62.9504L74.8853 62.9595ZM76.5331 55.962V63.7753H74.8489V55.962H76.5331ZM77.8304 55.962C78.1628 55.9613 78.4941 55.9978 78.8182 56.0707C79.1237 56.1396 79.4148 56.2607 79.6786 56.4288C79.9287 56.5917 80.1338 56.8145 80.2749 57.0769C80.4351 57.3827 80.5135 57.7246 80.5025 58.0694C80.4994 58.3904 80.4328 58.7076 80.3067 59.003C80.1748 59.3124 79.9685 59.5848 79.7059 59.7961C79.4055 60.0277 79.0426 60.165 78.6635 60.1904C78.9105 60.2723 79.1349 60.4104 79.3189 60.5937C79.501 60.7698 79.6642 60.9642 79.806 61.1738C79.806 61.1738 79.8561 61.2554 79.9335 61.3733L80.2248 61.8265L80.589 62.3567C80.7164 62.5335 80.8348 62.6921 80.9395 62.8099C81.0791 62.9824 81.2312 63.1445 81.3947 63.2949C81.5197 63.4104 81.6646 63.5025 81.8226 63.5668C81.9879 63.6249 82.1616 63.6555 82.3369 63.6574V63.7707H81.2399C80.8701 63.7732 80.501 63.7383 80.1383 63.6665C79.8271 63.6001 79.5308 63.4772 79.2643 63.3039C78.9991 63.1201 78.7744 62.8841 78.6043 62.6105C78.5326 62.501 78.4673 62.3875 78.4085 62.2706C78.3357 62.1301 78.2629 61.9851 78.1901 61.8174C78.1172 61.6497 78.0398 61.5138 77.9716 61.3642C77.9033 61.2146 77.8395 61.0877 77.7849 60.9654C77.7303 60.843 77.6939 60.7524 77.6711 60.6889C77.5988 60.4862 77.4822 60.302 77.3297 60.1496C77.2148 60.0392 77.0686 59.9665 76.9109 59.9411V59.8278H77.2569C77.4605 59.8279 77.6619 59.7862 77.8487 59.7055C78.0495 59.615 78.2246 59.4764 78.3585 59.3021C78.5246 59.0746 78.6325 58.8101 78.6726 58.5317C78.6887 58.4553 78.7008 58.3781 78.709 58.3005C78.7184 58.1995 78.7184 58.0979 78.709 57.9969C78.7241 57.5678 78.5799 57.1483 78.3039 56.8185C78.1851 56.6978 78.0435 56.6016 77.8873 56.5355C77.731 56.4693 77.5632 56.4346 77.3935 56.4333C77.2888 56.4333 77.175 56.4333 77.052 56.4333H76.5058C76.5058 56.4333 76.5058 56.3835 76.4785 56.3064L76.3966 55.9438L77.8304 55.962ZM76.4967 62.9595H76.5331C76.5317 63.0525 76.5495 63.1447 76.5855 63.2305C76.6216 63.3163 76.675 63.3937 76.7425 63.458C76.8772 63.5898 77.0589 63.6631 77.2478 63.662H77.3843V63.7753H76.4967V62.9595Z" fill="#3D72E0"/>
<path d="M86.4884 55.8032C87.2953 55.7844 88.0953 55.9552 88.8235 56.3018C89.461 56.6115 89.9952 57.0977 90.3621 57.7022C90.7176 58.3686 90.9035 59.1117 90.9035 59.8662C90.9035 60.6208 90.7176 61.3639 90.3621 62.0303C89.9955 62.6361 89.4613 63.1239 88.8235 63.4352C88.0885 63.7637 87.2918 63.9336 86.4861 63.9336C85.6803 63.9336 84.8837 63.7637 84.1486 63.4352C83.513 63.1262 82.9816 62.6396 82.6192 62.0348C82.2637 61.3684 82.0778 60.6254 82.0778 59.8708C82.0778 59.1162 82.2637 58.3731 82.6192 57.7067C82.9809 57.1003 83.5124 56.612 84.1486 56.3018C84.8783 55.9546 85.6799 55.7838 86.4884 55.8032ZM86.4884 63.4624C86.9822 63.4711 87.4641 63.3112 87.854 63.0092C88.2673 62.6855 88.5824 62.2541 88.7644 61.7629C89.1831 60.5251 89.1831 59.1848 88.7644 57.9469C88.5824 57.4557 88.2673 57.0243 87.854 56.7006C87.4566 56.4145 86.9787 56.2605 86.4884 56.2605C85.998 56.2605 85.5201 56.4145 85.1228 56.7006C84.7096 57.0244 84.3945 57.4558 84.2124 57.9469C83.7936 59.1848 83.7936 60.5251 84.2124 61.7629C84.3945 62.254 84.7096 62.6854 85.1228 63.0092C85.5151 63.305 85.9964 63.4599 86.4884 63.4488V63.4624Z" fill="#3D72E0"/>
<path d="M99.5936 60.5166L99.6983 62.4336C99.5216 62.7204 99.2968 62.9749 99.0337 63.186C98.7264 63.4262 98.3778 63.6089 98.005 63.7253C97.5321 63.8717 97.0389 63.9421 96.5438 63.9338C95.7188 63.9419 94.9019 63.7718 94.1494 63.4352C93.4961 63.1356 92.9453 62.6519 92.5653 62.0439C92.1996 61.3774 92.0079 60.6302 92.0079 59.8708C92.0079 59.1113 92.1996 58.3641 92.5653 57.6976C92.9364 57.0833 93.4854 56.5952 94.1403 56.2972C94.9089 55.9513 95.746 55.7824 96.5893 55.8032C97.1303 55.7983 97.6699 55.8591 98.1961 55.9845C98.6125 56.0856 99.0147 56.2379 99.3933 56.4377V58.3457H99.2932C99.1612 57.7192 98.8114 57.159 98.3054 56.764C97.8317 56.4505 97.2716 56.2921 96.7031 56.3108C96.1557 56.3014 95.6186 56.4596 95.1645 56.764C94.726 57.0719 94.3849 57.498 94.1813 57.9922C93.9338 58.5943 93.8145 59.2408 93.8308 59.8911C93.8171 60.5425 93.9299 61.1904 94.1631 61.7991C94.3528 62.296 94.6794 62.7295 95.1053 63.05C95.5262 63.3455 96.0287 63.5039 96.5438 63.5032C97.0453 63.5191 97.5442 63.4247 98.005 63.2267C98.4104 63.0307 98.7444 62.7139 98.9609 62.3203C99.2414 61.7755 99.4262 61.1869 99.5071 60.58L99.5936 60.5166Z" fill="#3D72E0"/>
<path d="M101.578 56.7777H101.546C101.541 56.5897 101.463 56.4111 101.328 56.2792C101.263 56.2124 101.185 56.1595 101.099 56.1236C101.013 56.0878 100.921 56.0698 100.827 56.0707H100.682V55.9619H101.592L101.578 56.7777ZM101.578 62.9594V63.7752H100.668V63.6619H100.814C100.907 63.6637 100.999 63.6465 101.085 63.6114C101.171 63.5763 101.249 63.5241 101.314 63.4579C101.448 63.3255 101.526 63.1472 101.533 62.9594H101.578ZM103.231 55.9619V63.7752H101.546V55.9619H103.231ZM106.963 59.6465V60.1269H103.117V59.6465H106.963ZM103.194 56.7777V55.9619H104.105V56.0707H103.959C103.866 56.0699 103.775 56.0879 103.689 56.1238C103.604 56.1596 103.527 56.2125 103.463 56.2792C103.395 56.3433 103.34 56.4205 103.302 56.5062C103.265 56.5919 103.245 56.6842 103.244 56.7777H103.194ZM103.194 62.9594H103.231C103.232 63.0528 103.252 63.145 103.289 63.2306C103.327 63.3162 103.381 63.3935 103.449 63.4579C103.513 63.524 103.591 63.5762 103.676 63.6112C103.761 63.6463 103.853 63.6636 103.945 63.6619H104.091V63.7752H103.181L103.194 62.9594ZM106.895 56.7777H106.863C106.864 56.6843 106.846 56.5918 106.809 56.5059C106.772 56.4201 106.718 56.3429 106.649 56.2792C106.583 56.2127 106.504 56.16 106.418 56.1242C106.331 56.0884 106.238 56.0702 106.144 56.0707H105.998V55.9619H106.909L106.895 56.7777ZM106.895 62.9594V63.7752H105.985V63.6619H106.13C106.224 63.6632 106.317 63.6459 106.404 63.6108C106.49 63.5758 106.569 63.5238 106.636 63.4579C106.704 63.3939 106.758 63.3166 106.795 63.2308C106.831 63.1451 106.85 63.0527 106.85 62.9594H106.895ZM108.543 55.9619V63.7752H106.863V55.9619H108.543ZM108.511 56.7777V55.9619H109.421V56.0707H109.248C109.155 56.0698 109.063 56.0878 108.977 56.1236C108.89 56.1595 108.813 56.2124 108.748 56.2792C108.613 56.4111 108.535 56.5897 108.529 56.7777H108.511ZM108.511 62.9594H108.543C108.549 63.1472 108.627 63.3255 108.761 63.4579C108.826 63.5241 108.904 63.5763 108.991 63.6114C109.077 63.6465 109.169 63.6637 109.262 63.6619H109.408V63.7752H108.497L108.511 62.9594Z" fill="#3D72E0"/>
<path d="M114.611 55.8032C115.418 55.7843 116.218 55.9551 116.946 56.3017C117.585 56.6093 118.12 57.096 118.484 57.7021C118.84 58.3685 119.026 59.1116 119.026 59.8662C119.026 60.6207 118.84 61.3638 118.484 62.0302C118.119 62.637 117.585 63.1251 116.946 63.4352C116.211 63.7637 115.414 63.9335 114.608 63.9335C113.803 63.9335 113.006 63.7637 112.271 63.4352C111.635 63.1262 111.104 62.6396 110.741 62.0348C110.389 61.3675 110.204 60.6248 110.204 59.8707C110.204 59.1166 110.389 58.3739 110.741 57.7066C111.103 57.1002 111.635 56.6119 112.271 56.3017C113.001 55.9551 113.802 55.7843 114.611 55.8032ZM114.611 63.4624C115.105 63.471 115.586 63.3111 115.976 63.0092C116.39 62.6855 116.705 62.2541 116.887 61.7628C117.305 60.525 117.305 59.1847 116.887 57.9468C116.705 57.4556 116.39 57.0242 115.976 56.7005C115.579 56.4145 115.101 56.2605 114.611 56.2605C114.12 56.2605 113.642 56.4145 113.245 56.7005C112.839 57.0259 112.531 57.4574 112.357 57.9468C111.932 59.1836 111.932 60.5261 112.357 61.7628C112.531 62.2523 112.839 62.6838 113.245 63.0092C113.637 63.3049 114.119 63.4599 114.611 63.4488V63.4624Z" fill="#3D72E0"/>
<path d="M121.885 56.7777H119.914C119.819 56.5558 119.661 56.3667 119.459 56.2338C119.299 56.1319 119.115 56.0755 118.926 56.0707H118.835V55.9619H122.404V56.0707H122.299C122.216 56.0713 122.135 56.0934 122.063 56.1348C121.991 56.1762 121.932 56.2354 121.89 56.3068C121.848 56.3781 121.826 56.459 121.825 56.5416C121.824 56.6241 121.845 56.7055 121.885 56.7777ZM123.278 63.9973L119.563 56.0299H121.571L123.97 61.8445L123.278 63.9973ZM123.278 63.9973L123.241 62.6376L126.091 55.9936H126.897L123.929 62.5425L123.819 62.7917L123.633 63.2087C123.569 63.3673 123.51 63.5169 123.46 63.6619C123.42 63.7719 123.393 63.8859 123.378 64.0018L123.278 63.9973ZM125.754 56.7777C125.803 56.6981 125.827 56.6054 125.821 56.5121C125.815 56.4188 125.781 56.3295 125.722 56.2565C125.672 56.2002 125.612 56.1547 125.543 56.1227C125.475 56.0908 125.401 56.0731 125.326 56.0707H125.226V55.9619H127.625V56.0707H127.525C127.34 56.077 127.161 56.1334 127.006 56.2338C126.801 56.3642 126.643 56.5541 126.551 56.7777H125.754Z" fill="#3D72E0"/>
<path d="M128.681 56.7777H128.649C128.644 56.5897 128.565 56.4111 128.431 56.2792C128.365 56.2128 128.287 56.1602 128.201 56.1244C128.115 56.0885 128.023 56.0703 127.93 56.0707H127.784V55.9619H128.695L128.681 56.7777ZM128.681 62.9594V63.7752H127.771V63.6619H127.912C128.005 63.6631 128.097 63.6457 128.183 63.6107C128.269 63.5756 128.347 63.5237 128.412 63.4579C128.546 63.3255 128.624 63.1472 128.631 62.9594H128.681ZM130.329 55.9619V63.7752H128.649V55.9619H130.329ZM130.297 56.7777V55.9619H131.207V56.0707H131.062C130.968 56.0698 130.876 56.0878 130.79 56.1236C130.704 56.1595 130.626 56.2124 130.561 56.2792C130.426 56.4111 130.348 56.5897 130.342 56.7777H130.297ZM130.297 62.9594H130.329C130.335 63.1472 130.413 63.3255 130.547 63.4579C130.612 63.5241 130.69 63.5763 130.776 63.6114C130.863 63.6465 130.955 63.6637 131.048 63.6619H131.194V63.7752H130.283L130.297 62.9594Z" fill="#3D72E0"/>
<path d="M139.524 60.5165L139.624 62.4336C139.449 62.7202 139.226 62.9747 138.964 63.1859C138.654 63.4252 138.304 63.6078 137.931 63.7252C137.459 63.8717 136.968 63.9421 136.474 63.9337C135.649 63.9429 134.832 63.7727 134.08 63.4352C133.425 63.1356 132.873 62.652 132.491 62.0438C132.125 61.3774 131.934 60.6301 131.934 59.8707C131.934 59.1112 132.125 58.364 132.491 57.6976C132.863 57.0843 133.412 56.5965 134.066 56.2972C134.835 55.9517 135.672 55.7828 136.515 55.8032C137.058 55.7982 137.599 55.8591 138.126 55.9844C138.541 56.0863 138.942 56.2385 139.319 56.4376V58.3456H139.219C139.09 57.7177 138.74 57.1566 138.231 56.764C137.757 56.4505 137.197 56.292 136.629 56.3107C136.083 56.3005 135.547 56.4588 135.095 56.764C134.654 57.0702 134.311 57.4967 134.107 57.9921C133.861 58.5946 133.743 59.2411 133.761 59.8911C133.746 60.5421 133.857 61.19 134.089 61.7991C134.282 62.2942 134.608 62.7269 135.031 63.0499C135.454 63.3456 135.958 63.5039 136.474 63.5031C136.974 63.5185 137.471 63.4241 137.931 63.2267C138.337 63.0297 138.672 62.7133 138.891 62.3203C139.17 61.7751 139.353 61.1865 139.433 60.58L139.524 60.5165Z" fill="#3D72E0"/>
<path d="M141.509 56.7777H141.472C141.471 56.6842 141.452 56.5919 141.414 56.5062C141.376 56.4205 141.322 56.3433 141.254 56.2792C141.189 56.2127 141.112 56.16 141.027 56.1242C140.942 56.0883 140.85 56.0701 140.757 56.0707H140.612V55.9619H141.522L141.509 56.7777ZM141.509 62.9594V63.7752H140.598V63.6619H140.744C140.836 63.663 140.928 63.6456 141.013 63.6105C141.098 63.5754 141.175 63.5236 141.24 63.4579C141.308 63.3935 141.362 63.3162 141.4 63.2306C141.437 63.145 141.457 63.0528 141.458 62.9594H141.509ZM143.156 55.9619V63.7752H141.472V55.9619H143.156ZM146.889 59.6465V60.1269H143.043V59.6465H146.889ZM143.125 56.7777V55.9619H144.035V56.0707H143.889C143.796 56.0698 143.703 56.0878 143.617 56.1236C143.531 56.1595 143.453 56.2124 143.389 56.2792C143.254 56.4111 143.176 56.5897 143.17 56.7777H143.125ZM143.125 62.9594H143.156C143.169 63.1459 143.252 63.3208 143.389 63.4489C143.454 63.515 143.532 63.5673 143.618 63.6023C143.704 63.6374 143.796 63.6546 143.889 63.6528H144.035V63.7661H143.125V62.9594ZM146.821 56.7777H146.789C146.79 56.6843 146.772 56.5918 146.735 56.5059C146.698 56.4201 146.643 56.3429 146.575 56.2792C146.509 56.2127 146.43 56.16 146.343 56.1242C146.257 56.0884 146.164 56.0702 146.07 56.0707H145.924V55.9619H146.834L146.821 56.7777ZM146.821 62.9594V63.7752H145.91V63.6619H146.056C146.153 63.6639 146.249 63.646 146.338 63.6094C146.427 63.5727 146.508 63.5181 146.575 63.4489C146.643 63.3848 146.697 63.3075 146.734 63.2218C146.771 63.136 146.789 63.0436 146.789 62.9504L146.821 62.9594ZM148.473 55.9619V63.7752H146.789V55.9619H148.473ZM148.437 56.7777V55.9619H149.347V56.0707H149.201C149.109 56.0699 149.017 56.0879 148.932 56.1238C148.846 56.1596 148.769 56.2125 148.705 56.2792C148.637 56.3433 148.582 56.4205 148.545 56.5062C148.507 56.5919 148.488 56.6842 148.487 56.7777H148.437ZM148.437 62.9594H148.473C148.474 63.0528 148.494 63.145 148.532 63.2306C148.569 63.3162 148.624 63.3935 148.692 63.4579C148.756 63.524 148.833 63.5762 148.918 63.6112C149.004 63.6463 149.095 63.6636 149.188 63.6619H149.333V63.7752H148.423L148.437 62.9594Z" fill="#3D72E0"/>
<path d="M22.0273 38.5088L36.6074 13.3649L39.1793 17.8018H46.4898L36.6074 0.76123L19.1186 30.9221L18.372 32.2047L22.0273 38.5088Z" fill="url(#paint1_linear_558_3832)"/>
<path d="M16.2007 48.5565L12.5455 42.2524L1.62518 61.0832H36.6074H38.0959L41.7512 54.7791H12.591L16.2007 48.5565Z" fill="url(#paint2_linear_558_3832)"/>
<path d="M19.8105 25.9823L23.4657 19.6782H1.62518L19.1186 49.8391L20.8939 52.9073H28.2044L12.591 25.9823H19.8105Z" fill="url(#paint3_linear_558_3832)"/>
<path d="M36.6074 19.6782H35.1189L31.4636 25.9823H60.6238L57.8016 29.8436L61.0608 34.5661L71.5896 19.6782H36.6074Z" fill="url(#paint4_linear_558_3832)"/>
<defs>
<linearGradient id="paint0_linear_558_3832" x1="45.3994" y1="56.6556" x2="33.3045" y2="75.2057" gradientUnits="userSpaceOnUse">
<stop stop-color="#74B9EB"/>
<stop offset="1" stop-color="#3D72E0"/>
</linearGradient>
<linearGradient id="paint1_linear_558_3832" x1="43.4977" y1="3.85625" x2="24.8952" y2="29.7166" gradientUnits="userSpaceOnUse">
<stop stop-color="#74B9EB"/>
<stop offset="1" stop-color="#3D72E0"/>
</linearGradient>
<linearGradient id="paint2_linear_558_3832" x1="37.4813" y1="43.7964" x2="32.8514" y2="62.2085" gradientUnits="userSpaceOnUse">
<stop stop-color="#74B9EB"/>
<stop offset="1" stop-color="#3D72E0"/>
</linearGradient>
<linearGradient id="paint3_linear_558_3832" x1="25.376" y1="22.4028" x2="9.40281" y2="46.2471" gradientUnits="userSpaceOnUse">
<stop stop-color="#74B9EB"/>
<stop offset="1" stop-color="#3D72E0"/>
</linearGradient>
<linearGradient id="paint4_linear_558_3832" x1="67.3197" y1="20.8989" x2="64.3597" y2="35.7877" gradientUnits="userSpaceOnUse">
<stop stop-color="#74B9EB"/>
<stop offset="1" stop-color="#3D72E0"/>
</linearGradient>
</defs>
</svg>
