<svg width="150" height="150" viewBox="0 0 150 150" fill="none" xmlns="http://www.w3.org/2000/svg">
<path d="M100.884 41.727H83.046V55.524H100.884V41.727Z" fill="#EBEBEB"/>
<path d="M84.429 54.267L89.364 46.707L93.399 51.54L95.853 48.972L99.501 54.267H84.429Z" fill="#F5F5F5"/>
<path d="M94.149 47.166C94.149 47.382 94.085 47.5931 93.965 47.7727C93.845 47.9522 93.6744 48.0922 93.4749 48.1748C93.2754 48.2575 93.0558 48.2791 92.844 48.237C92.6321 48.1949 92.4376 48.0909 92.2848 47.9381C92.1321 47.7854 92.0281 47.5908 91.986 47.379C91.9438 47.1672 91.9655 46.9476 92.0481 46.7481C92.1308 46.5485 92.2707 46.378 92.4503 46.258C92.6299 46.138 92.841 46.074 93.057 46.074C93.3466 46.074 93.6244 46.189 93.8292 46.3938C94.0339 46.5986 94.149 46.8764 94.149 47.166Z" fill="#F5F5F5"/>
<path d="M71.604 61.104L61.353 65.13C60.5423 60.1509 58.9518 55.3308 56.64 50.847L66.015 46.815C69.6 51.216 70.92 56.034 71.604 61.104Z" fill="#EBEBEB"/>
<path d="M48.813 29.007L25.254 29.493L25.887 60.213L49.458 60.321L48.813 29.007Z" fill="#EBEBEB"/>
<path d="M47.286 30.132L26.67 30.558L27.246 58.419L47.874 58.689L47.286 30.132Z" fill="#FAFAFA"/>
<path d="M43.782 35.268L30.09 35.031L30.492 54.504L44.172 54.222L43.782 35.268Z" fill="#EBEBEB"/>
<path d="M30.492 54.504L43.965 44.217L30.09 35.031L30.492 54.504Z" fill="#F5F5F5"/>
<path d="M111.825 11.355L94.878 11.706L95.334 33.804L112.287 33.879L111.825 11.355Z" fill="#EBEBEB"/>
<path d="M110.724 12.165L95.898 12.471L96.309 32.514L111.15 32.709L110.724 12.165Z" fill="#FAFAFA"/>
<path d="M108.204 15.861L98.355 15.69L98.643 29.697L108.486 29.496L108.204 15.861Z" fill="#EBEBEB"/>
<path d="M98.643 29.697L108.336 22.299L98.355 15.69L98.643 29.697Z" fill="#F5F5F5"/>
<path d="M58.998 66.588L42.051 66.936L42.507 89.034L59.46 89.109L58.998 66.588Z" fill="#EBEBEB"/>
<path d="M57.897 67.395L43.068 67.701L43.482 87.744L58.32 87.939L57.897 67.395Z" fill="#FAFAFA"/>
<path d="M55.377 71.091L45.528 70.92L45.816 84.927L55.656 84.726L55.377 71.091Z" fill="#EBEBEB"/>
<path d="M45.816 84.927L55.509 77.529L45.528 70.92L45.816 84.927Z" fill="#F5F5F5"/>
<path d="M123.264 58.278L113.121 58.488L113.394 71.715L123.543 71.76L123.264 58.278Z" fill="#EBEBEB"/>
<path d="M122.607 58.764L113.73 58.947L113.979 70.944L122.859 71.058L122.607 58.764Z" fill="#FAFAFA"/>
<path d="M121.098 60.975L115.203 60.873L115.374 69.258L121.266 69.135L121.098 60.975Z" fill="#EBEBEB"/>
<path d="M115.374 69.258L121.176 64.827L115.203 60.873L115.374 69.258Z" fill="#F5F5F5"/>
<path d="M66.141 18.726C66.0336 18.6478 65.9332 18.5605 65.841 18.465C65.622 18.27 65.346 18.024 65.019 17.727C64.692 17.43 64.254 17.049 63.78 16.656C63.543 16.458 63.291 16.257 63.024 16.056C62.889 15.957 62.751 15.861 62.607 15.756C62.4736 15.6625 62.3225 15.5972 62.163 15.564C62.0062 15.5947 61.8591 15.6626 61.734 15.762C61.593 15.855 61.458 15.957 61.329 16.062C61.068 16.272 60.828 16.485 60.6 16.692C60.144 17.106 59.745 17.493 59.4 17.817L58.611 18.6C58.5196 18.7009 58.4192 18.7933 58.311 18.876C58.3842 18.7602 58.4708 18.6534 58.569 18.558C58.74 18.363 58.998 18.087 59.322 17.748C59.646 17.409 60.039 17.016 60.489 16.596C60.717 16.383 60.957 16.167 61.221 15.951C61.353 15.846 61.488 15.741 61.635 15.651C61.7868 15.5329 61.9667 15.4564 62.157 15.429C62.3438 15.462 62.5209 15.5358 62.676 15.645C62.826 15.738 62.976 15.84 63.102 15.945C63.375 16.146 63.624 16.353 63.861 16.545C64.332 16.947 64.74 17.325 65.079 17.646C65.418 17.967 65.679 18.246 65.871 18.42C65.9706 18.513 66.0611 18.6155 66.141 18.726Z" fill="#E0E0E0"/>
<path d="M54.129 18.759L54.372 30.732L69.987 30.414L70.044 18.435L54.129 18.759Z" fill="#EBEBEB"/>
<path d="M54.699 19.536L54.912 30.012L69.075 29.724L69.216 19.239L54.699 19.536Z" fill="#FAFAFA"/>
<path d="M57.309 21.318L57.186 28.275L67.086 28.074L66.945 21.123L57.309 21.318Z" fill="#EBEBEB"/>
<path d="M65.49 23.1C65.49 23.145 63.96 23.178 62.07 23.178C60.18 23.178 58.653 23.145 58.653 23.1C58.653 23.055 60.183 23.022 62.07 23.022C63.957 23.022 65.49 23.067 65.49 23.1Z" fill="#E0E0E0"/>
<path d="M65.49 24.192C65.49 24.234 63.96 24.27 62.07 24.27C60.18 24.27 58.653 24.234 58.653 24.192C58.653 24.15 60.183 24.114 62.07 24.114C63.957 24.114 65.49 24.147 65.49 24.192Z" fill="#E0E0E0"/>
<path d="M65.49 25.272C65.49 25.314 63.96 25.35 62.07 25.35C60.18 25.35 58.653 25.314 58.653 25.272C58.653 25.23 60.183 25.194 62.07 25.194C63.957 25.194 65.49 25.23 65.49 25.272Z" fill="#E0E0E0"/>
<path d="M61.083 26.352C60.6831 26.4307 60.2747 26.4569 59.868 26.43C59.4613 26.4569 59.0529 26.4307 58.653 26.352C59.4597 26.248 60.2763 26.248 61.083 26.352Z" fill="#E0E0E0"/>
<path d="M59.976 22.617C59.976 22.617 59.976 22.518 59.91 22.35C59.8422 22.1097 59.6966 21.8986 59.496 21.75C59.3512 21.6457 59.183 21.5785 59.0062 21.5545C58.8294 21.5304 58.6494 21.5501 58.482 21.612C58.2795 21.6878 58.105 21.8237 57.9818 22.0014C57.8586 22.1791 57.7926 22.3902 57.7926 22.6065C57.7926 22.8227 57.8586 23.0338 57.9818 23.2115C58.105 23.3892 58.2795 23.5251 58.482 23.601C58.6496 23.6624 58.8298 23.6816 59.0066 23.6571C59.1834 23.6325 59.3515 23.5648 59.496 23.46C59.6947 23.316 59.8403 23.1103 59.91 22.875C59.961 22.707 59.961 22.605 59.976 22.605C60.0014 22.7034 60.0014 22.8066 59.976 22.905C59.9226 23.1664 59.778 23.4003 59.568 23.565C59.4103 23.6874 59.2245 23.7685 59.0276 23.8009C58.8306 23.8334 58.6286 23.8162 58.44 23.751C58.2073 23.6675 58.0061 23.5142 57.8638 23.312C57.7216 23.1098 57.6452 22.8687 57.6452 22.6215C57.6452 22.3743 57.7216 22.1331 57.8638 21.9309C58.0061 21.7288 58.2073 21.5755 58.44 21.492C58.6284 21.4248 58.8307 21.4066 59.028 21.4391C59.2254 21.4716 59.4112 21.5538 59.568 21.678C59.7786 21.8421 59.9233 22.0763 59.976 22.338C59.9986 22.4296 59.9986 22.5254 59.976 22.617Z" fill="#E0E0E0"/>
<path d="M65.967 26.169C65.967 26.169 65.943 26.256 65.859 26.397C65.746 26.606 65.5619 26.7677 65.34 26.853C65.2571 26.8806 65.1689 26.8884 65.0825 26.8759C64.996 26.8634 64.9137 26.8309 64.842 26.781C64.7541 26.7181 64.6939 26.6238 64.6738 26.5176C64.6537 26.4114 64.6752 26.3016 64.734 26.211C64.7701 26.1604 64.8187 26.1201 64.875 26.094C64.9098 26.0798 64.9477 26.0748 64.985 26.0796C65.0224 26.0843 65.0578 26.0985 65.088 26.121C65.1334 26.1635 65.1684 26.216 65.1903 26.2742C65.2121 26.3325 65.2202 26.395 65.214 26.457C65.2075 26.6888 65.1193 26.9108 64.965 27.084C64.883 27.1759 64.7801 27.2469 64.665 27.291C64.6075 27.3148 64.5458 27.3271 64.4835 27.3271C64.4212 27.3271 64.3595 27.3148 64.302 27.291C64.1991 27.2441 64.1116 27.169 64.0495 27.0746C63.9874 26.9801 63.9533 26.87 63.951 26.757C63.9411 26.5622 63.9869 26.3686 64.083 26.199C64.0979 26.1723 64.1191 26.1496 64.1447 26.1328C64.1703 26.1161 64.1996 26.1059 64.23 26.103C64.2604 26.1034 64.2901 26.1116 64.3164 26.1268C64.3427 26.1421 64.3646 26.1638 64.38 26.19C64.4238 26.262 64.4504 26.343 64.458 26.427C64.4707 26.5462 64.4556 26.6667 64.414 26.7791C64.3724 26.8915 64.3053 26.9928 64.218 27.075C64.092 27.189 63.996 27.204 63.996 27.195C63.996 27.186 64.074 27.15 64.173 27.033C64.2445 26.952 64.2971 26.8562 64.3272 26.7524C64.3573 26.6487 64.3641 26.5396 64.347 26.433C64.3378 26.3681 64.3153 26.3058 64.281 26.25C64.242 26.208 64.23 26.208 64.188 26.25C64.1171 26.3974 64.0851 26.5606 64.095 26.724C64.098 26.8091 64.1241 26.8918 64.1707 26.9632C64.2172 27.0345 64.2823 27.0919 64.359 27.129C64.4468 27.1522 64.5395 27.148 64.6248 27.1169C64.7101 27.0858 64.7838 27.0292 64.836 26.955C64.967 26.8107 65.0425 26.6247 65.049 26.43C65.0539 26.3916 65.0508 26.3526 65.04 26.3154C65.0291 26.2782 65.0108 26.2437 64.986 26.214C64.953 26.184 64.884 26.214 64.839 26.271C64.8037 26.3324 64.7912 26.4043 64.8038 26.4741C64.8164 26.5438 64.8534 26.6068 64.908 26.652C64.9632 26.6929 65.027 26.7208 65.0946 26.7332C65.1623 26.7457 65.2318 26.7425 65.298 26.724C65.5019 26.6515 65.6774 26.516 65.799 26.337C65.907 26.235 65.958 26.163 65.967 26.169Z" fill="#E0E0E0"/>
<path d="M74.13 43.596L63.309 48.405L63.051 40.1579L73.86 35.049L74.13 43.596Z" fill="#EBEBEB"/>
<path d="M127.878 35.793C127.706 35.6755 127.545 35.5419 127.398 35.394L126.138 34.26C125.601 33.786 124.965 33.219 124.239 32.616C123.873 32.316 123.489 32.016 123.078 31.716C122.871 31.566 122.658 31.416 122.436 31.278C122.232 31.1344 122.002 31.0324 121.758 30.978C121.517 31.0236 121.291 31.1265 121.098 31.278C120.882 31.422 120.675 31.578 120.474 31.74C120.078 32.061 119.706 32.391 119.355 32.706C118.656 33.342 118.044 33.936 117.534 34.434L116.334 35.634C116.196 35.7893 116.042 35.93 115.875 36.054C115.988 35.879 116.12 35.717 116.268 35.571C116.535 35.271 116.928 34.845 117.423 34.329C117.918 33.813 118.524 33.204 119.223 32.556C119.571 32.232 119.943 31.899 120.345 31.569C120.546 31.407 120.759 31.245 120.981 31.092C121.213 30.9083 121.489 30.7892 121.782 30.747C122.07 30.7967 122.342 30.9105 122.58 31.08C122.808 31.224 123.024 31.38 123.234 31.53C123.651 31.83 124.035 32.157 124.398 32.466C125.121 33.066 125.748 33.666 126.27 34.155C126.792 34.644 127.203 35.055 127.47 35.355C127.621 35.4868 127.757 35.6335 127.878 35.793Z" fill="#E0E0E0"/>
<path d="M109.44 35.844L109.815 54.225L133.782 53.739L133.869 35.349L109.44 35.844Z" fill="#EBEBEB"/>
<path d="M110.319 37.038L110.643 53.118L132.381 52.677L132.597 36.585L110.319 37.038Z" fill="#FAFAFA"/>
<path d="M114.324 39.774L114.135 50.454L129.33 50.145L129.111 39.474L114.324 39.774Z" fill="#EBEBEB"/>
<path d="M126.879 42.525C126.879 42.591 124.53 42.645 121.632 42.645C118.734 42.645 116.4 42.6 116.4 42.525C116.4 42.45 118.749 42.405 121.647 42.405C124.545 42.405 126.879 42.459 126.879 42.525Z" fill="#E0E0E0"/>
<path d="M126.879 44.184C126.879 44.25 124.53 44.304 121.632 44.304C118.734 44.304 116.385 44.25 116.385 44.184C116.385 44.118 118.734 44.064 121.632 44.064C124.53 44.064 126.879 44.118 126.879 44.184Z" fill="#E0E0E0"/>
<path d="M126.879 45.843C126.879 45.909 124.53 45.963 121.632 45.963C118.734 45.963 116.4 45.9 116.4 45.843C116.4 45.786 118.749 45.723 121.647 45.723C124.545 45.723 126.879 45.777 126.879 45.843Z" fill="#E0E0E0"/>
<path d="M120.117 47.502C120.117 47.568 119.283 47.622 118.251 47.622C117.219 47.622 116.385 47.568 116.385 47.502C116.385 47.436 117.219 47.382 118.251 47.382C119.283 47.382 120.117 47.436 120.117 47.502Z" fill="#E0E0E0"/>
<path d="M118.416 41.769C118.392 41.769 118.392 41.616 118.317 41.358C118.207 40.9966 117.983 40.6807 117.678 40.458C117.435 40.2785 117.147 40.1699 116.846 40.1443C116.545 40.1188 116.243 40.1773 115.973 40.3134C115.703 40.4495 115.477 40.6577 115.318 40.915C115.16 41.1722 115.076 41.4684 115.076 41.7705C115.076 42.0726 115.16 42.3688 115.318 42.626C115.477 42.8833 115.703 43.0916 115.973 43.2276C116.243 43.3637 116.545 43.4222 116.846 43.3967C117.147 43.3711 117.435 43.2626 117.678 43.083C117.983 42.8598 118.207 42.5441 118.317 42.183C118.392 41.925 118.392 41.769 118.416 41.769C118.452 41.9118 118.452 42.0612 118.416 42.204C118.334 42.6057 118.112 42.9651 117.789 43.218C117.549 43.4092 117.264 43.5358 116.961 43.5857C116.658 43.6355 116.347 43.6071 116.058 43.503C115.699 43.3763 115.389 43.1415 115.169 42.831C114.949 42.5204 114.832 42.1494 114.832 41.769C114.832 41.3886 114.949 41.0176 115.169 40.707C115.389 40.3965 115.699 40.1617 116.058 40.035C116.348 39.933 116.66 39.907 116.963 39.9595C117.266 40.012 117.55 40.1413 117.789 40.335C118.111 40.5873 118.333 40.9455 118.416 41.346C118.45 41.485 118.45 41.63 118.416 41.769Z" fill="#E0E0E0"/>
<path d="M127.614 47.22C127.581 47.3453 127.525 47.4633 127.449 47.568C127.276 47.8903 126.993 48.1396 126.651 48.27C126.523 48.3115 126.387 48.3231 126.254 48.3038C126.121 48.2846 125.994 48.235 125.883 48.159C125.749 48.0614 125.658 47.9162 125.628 47.7532C125.597 47.5903 125.631 47.422 125.721 47.283C125.775 47.2048 125.85 47.1435 125.937 47.106C125.99 47.0841 126.047 47.0762 126.104 47.0831C126.161 47.0899 126.215 47.1112 126.261 47.145C126.331 47.2099 126.386 47.2903 126.42 47.3799C126.453 47.4695 126.466 47.5657 126.456 47.661C126.447 48.017 126.312 48.3584 126.075 48.624C125.954 48.7634 125.802 48.8723 125.631 48.942C125.543 48.979 125.449 48.9981 125.353 48.9981C125.258 48.9981 125.164 48.979 125.076 48.942C124.919 48.8688 124.785 48.7535 124.69 48.6089C124.595 48.4643 124.541 48.2961 124.536 48.123C124.522 47.8239 124.592 47.5269 124.737 47.265C124.761 47.2249 124.794 47.1909 124.834 47.1659C124.874 47.1409 124.918 47.1255 124.965 47.121C125.012 47.1217 125.057 47.1342 125.097 47.1573C125.138 47.1804 125.172 47.2133 125.196 47.253C125.261 47.3638 125.301 47.4878 125.313 47.616C125.332 47.799 125.31 47.9839 125.246 48.1566C125.183 48.3293 125.08 48.4851 124.947 48.612C124.755 48.786 124.605 48.807 124.605 48.798C124.605 48.789 124.725 48.726 124.878 48.546C124.984 48.4237 125.063 48.2802 125.109 48.1249C125.155 47.9697 125.167 47.8064 125.145 47.646C125.13 47.5465 125.097 47.4508 125.046 47.364C124.986 47.298 124.965 47.301 124.902 47.382C124.794 47.6092 124.743 47.8596 124.755 48.111C124.76 48.2417 124.801 48.3685 124.873 48.4779C124.945 48.5873 125.045 48.6751 125.163 48.732C125.297 48.768 125.44 48.762 125.57 48.7148C125.701 48.6676 125.815 48.5815 125.895 48.468C126.096 48.2446 126.211 47.958 126.222 47.658C126.23 47.5996 126.225 47.5402 126.208 47.4839C126.19 47.4275 126.162 47.3754 126.123 47.331C126.075 47.28 125.967 47.331 125.901 47.415C125.837 47.5087 125.812 47.6237 125.831 47.7356C125.85 47.8475 125.912 47.9477 126.003 48.015C126.088 48.0769 126.187 48.1188 126.291 48.1375C126.395 48.1562 126.501 48.1512 126.603 48.123C126.917 48.0107 127.186 47.8003 127.371 47.523C127.518 47.322 127.599 47.211 127.614 47.22Z" fill="#E0E0E0"/>
<path d="M122.7 134.493C122.7 134.538 99.573 134.571 71.052 134.571C42.531 134.571 19.401 134.538 19.401 134.493C19.401 134.448 42.522 134.415 71.052 134.415C99.582 134.415 122.7 134.451 122.7 134.493Z" fill="#263238"/>
<path d="M99.048 118.374C93.981 115.059 92.694 108.711 92.748 102.975C92.748 102.018 92.628 101.01 93.066 100.161C93.504 99.312 94.566 98.712 95.448 99.093C96.174 99.411 96.51 100.23 96.93 100.893C97.4921 101.798 98.298 102.526 99.255 102.993C99.879 103.293 100.647 103.47 101.25 103.122C102.075 102.648 102.15 101.505 102.114 100.554L101.952 95.235C101.922 94.284 101.895 93.312 102.171 92.403C102.447 91.494 103.092 90.639 104.004 90.363C104.916 90.087 106.059 90.582 106.278 91.509C106.323 91.9013 106.341 92.2963 106.332 92.691C106.368 93.087 106.566 93.519 106.95 93.621C107.334 93.723 107.715 93.444 107.997 93.159C108.969 92.175 109.614 90.921 110.214 89.676C110.814 88.431 111.396 87.156 112.275 86.076C113.154 84.996 114.375 84.147 115.758 84.036C117.141 83.925 118.629 84.732 119.01 86.061C119.391 87.39 118.632 88.761 117.81 89.88C116.563 91.523 115.086 92.9779 113.424 94.2C113.099 94.3853 112.842 94.6704 112.692 95.013C112.5 95.652 113.124 96.267 113.763 96.462C114.489 96.678 115.263 96.588 116.019 96.657C116.775 96.726 117.597 97.032 117.897 97.728C118.317 98.691 117.516 99.729 116.721 100.428C115.127 101.808 113.307 102.904 111.342 103.668C110.64 103.941 109.899 104.181 109.341 104.688C108.783 105.195 108.441 106.056 108.819 106.719C109.197 107.382 110.073 107.574 110.811 107.421C111.549 107.268 112.206 106.854 112.911 106.572C114.222 106.047 115.935 106.098 116.811 107.205C117.079 107.586 117.254 108.025 117.322 108.486C117.39 108.947 117.348 109.418 117.201 109.86C116.901 110.747 116.423 111.564 115.797 112.26C113.75 114.805 111.066 116.763 108.018 117.936C104.97 119.061 102.132 119.415 99.051 118.386" fill="#377926"/>
<path d="M117.6 84.798L117.507 84.891L117.225 85.149C116.979 85.374 116.625 85.707 116.157 86.148C114.858 87.3913 113.654 88.7311 112.557 90.156C111.861 91.056 111.138 92.07 110.382 93.174C109.626 94.278 108.834 95.469 108.045 96.747C107.21 98.0794 106.449 99.4565 105.765 100.872C105.411 101.607 105.096 102.372 104.778 103.161L103.8 105.546C102.557 108.562 101.485 111.646 100.59 114.783C99.8715 117.348 99.3994 119.976 99.18 122.631C99.0378 124.422 99.0528 126.222 99.225 128.01C99.294 128.64 99.354 129.132 99.408 129.462C99.432 129.624 99.45 129.747 99.465 129.84C99.48 129.933 99.48 129.969 99.48 129.969C99.3462 129.324 99.2461 128.672 99.18 128.016C98.9837 126.223 98.9525 124.415 99.087 122.616C99.2925 119.952 99.7567 117.315 100.473 114.741C101.36 111.595 102.43 108.504 103.677 105.483L104.643 103.098C104.961 102.315 105.276 101.541 105.633 100.803C106.321 99.3836 107.087 98.0035 107.928 96.669C108.723 95.388 109.524 94.203 110.283 93.099C111.042 91.995 111.783 90.981 112.473 90.084C113.574 88.6619 114.787 87.3297 116.1 86.1C116.565 85.662 116.934 85.335 117.189 85.116L117.489 84.87L117.6 84.798Z" fill="#263238"/>
<path d="M105.669 100.8C105.627 100.668 105.595 100.532 105.573 100.395C105.516 100.131 105.45 99.75 105.372 99.279C105.213 98.334 105.042 97.023 104.853 95.577C104.664 94.131 104.469 92.826 104.295 91.887C104.208 91.416 104.133 91.038 104.076 90.777C104.039 90.6427 104.016 90.505 104.007 90.366C104.059 90.4945 104.1 90.6269 104.13 90.762C104.202 91.02 104.292 91.398 104.394 91.866C104.595 92.802 104.808 94.11 104.994 95.559C105.18 97.008 105.342 98.289 105.468 99.264C105.531 99.717 105.585 100.092 105.624 100.386C105.653 100.522 105.668 100.661 105.669 100.8Z" fill="#263238"/>
<path d="M118.008 98.214C117.966 98.228 117.923 98.2361 117.879 98.238L117.513 98.277C117.195 98.31 116.736 98.358 116.169 98.436C115.038 98.58 113.469 98.838 111.774 99.195C110.079 99.552 108.54 99.954 107.445 100.272C106.896 100.428 106.455 100.572 106.149 100.662L105.795 100.767C105.754 100.782 105.712 100.792 105.669 100.797C105.705 100.772 105.744 100.753 105.786 100.74L106.131 100.608C106.431 100.497 106.869 100.344 107.415 100.176C108.507 99.831 110.037 99.42 111.744 99.057C113.451 98.694 115.02 98.457 116.157 98.334C116.727 98.271 117.189 98.238 117.51 98.223L117.879 98.208C117.922 98.2035 117.966 98.2056 118.008 98.214Z" fill="#263238"/>
<path d="M100.605 114.516C100.57 114.471 100.541 114.421 100.518 114.369L100.299 113.928C100.11 113.547 99.849 112.989 99.534 112.296C98.904 110.907 98.094 108.963 97.227 106.806C96.36 104.649 95.565 102.702 94.959 101.307C94.659 100.623 94.413 100.062 94.236 99.654C94.155 99.471 94.092 99.321 94.041 99.204C94.0173 99.1525 93.9972 99.0994 93.981 99.045C94.0159 99.0903 94.0452 99.1397 94.068 99.1921L94.287 99.63C94.476 100.014 94.737 100.572 95.052 101.265C95.682 102.654 96.492 104.598 97.359 106.755C98.226 108.912 99.021 110.856 99.627 112.254C99.927 112.938 100.17 113.499 100.35 113.907C100.431 114.09 100.494 114.24 100.545 114.357C100.569 114.408 100.589 114.462 100.605 114.516Z" fill="#263238"/>
<path d="M116.946 108.9C116.893 108.926 116.838 108.948 116.781 108.966L116.307 109.134L114.555 109.734C113.076 110.244 111.045 110.973 108.798 111.783C106.551 112.593 104.514 113.307 103.026 113.793C102.282 114.036 101.679 114.228 101.259 114.351L100.776 114.492C100.721 114.512 100.663 114.525 100.605 114.531C100.657 114.504 100.711 114.482 100.767 114.465L101.244 114.297L102.993 113.697C104.472 113.187 106.506 112.458 108.75 111.648C110.994 110.838 113.034 110.124 114.522 109.638C115.266 109.395 115.869 109.206 116.289 109.08L116.772 108.939C116.828 108.919 116.887 108.906 116.946 108.9Z" fill="#263238"/>
<path d="M72.189 62.334L71.547 134.493H100.131V63.318L72.189 62.334Z" fill="#455A64"/>
<path d="M73.086 74.325V84.441H86.625V74.805L73.086 74.325Z" fill="#263238"/>
<path d="M87.588 62.877L87.333 134.493H100.131V63.318L87.588 62.877Z" fill="#263238"/>
<path d="M73.086 63.225V73.341H86.625V63.702L73.086 63.225Z" fill="#263238"/>
<path d="M77.754 66.006V67.5H81.897V65.871L77.754 66.006Z" fill="#263238"/>
<path d="M82.032 68.757H77.754V69.369H82.032V68.757Z" fill="#263238"/>
<g opacity="0.4">
<path d="M77.754 66.006V67.5H81.897V65.871L77.754 66.006Z" fill="black"/>
<path d="M82.032 68.757H77.754V69.369H82.032V68.757Z" fill="black"/>
</g>
<path d="M73.086 98.67V108.783H86.625V99.147L73.086 98.67Z" fill="#263238"/>
<path d="M77.754 101.451V102.945H81.897V101.316L77.754 101.451Z" fill="#263238"/>
<path d="M82.032 104.202H77.754V104.814H82.032V104.202Z" fill="#263238"/>
<g opacity="0.4">
<path d="M77.754 101.451V102.945H81.897V101.316L77.754 101.451Z" fill="black"/>
<path d="M82.032 104.202H77.754V104.814H82.032V104.202Z" fill="black"/>
</g>
<path d="M73.086 110.07V120.183H86.625V110.547L73.086 110.07Z" fill="#263238"/>
<path d="M77.754 112.851V114.345H81.897V112.716L77.754 112.851Z" fill="#263238"/>
<path d="M82.032 115.602H77.754V116.214H82.032V115.602Z" fill="#263238"/>
<g opacity="0.4">
<path d="M77.754 112.851V114.345H81.897V112.716L77.754 112.851Z" fill="black"/>
<path d="M82.032 115.602H77.754V116.214H82.032V115.602Z" fill="black"/>
</g>
<path d="M72.942 121.47V131.583H86.481V121.947L72.942 121.47Z" fill="#263238"/>
<path d="M77.607 124.251V125.745H81.75V124.116L77.607 124.251Z" fill="#263238"/>
<path d="M81.885 127.002H77.607V127.614H81.885V127.002Z" fill="#263238"/>
<g opacity="0.4">
<path d="M77.607 124.251V125.745H81.75V124.116L77.607 124.251Z" fill="black"/>
<path d="M81.885 127.002H77.607V127.614H81.885V127.002Z" fill="black"/>
</g>
<path d="M72.828 86.25H59.289V96.366H72.828V86.25Z" fill="#455A64"/>
<path d="M64.047 90.807V92.211H67.941V90.681L64.047 90.807Z" fill="#263238"/>
<path d="M68.067 93.393H64.047V93.966H68.067V93.393Z" fill="#263238"/>
<g opacity="0.4">
<path d="M64.047 90.807V92.211H67.941V90.681L64.047 90.807Z" fill="black"/>
<path d="M68.067 93.3929H64.047V93.9659H68.067V93.3929Z" fill="black"/>
</g>
<path d="M72.828 86.25L86.175 86.151L85.932 96.363H72.828V86.25Z" fill="#263238"/>
<path opacity="0.4" d="M72.828 86.25L86.175 86.151L85.932 96.363H72.828V86.25Z" fill="black"/>
<path d="M85.701 77.064H72.357V86.148H85.701V77.064Z" fill="#FAFAFA"/>
<path d="M69.12 78.513L69.792 86.232L85.692 86.151L84.75 78.6C84.7172 78.3649 84.5929 78.1523 84.4041 78.0085C84.2153 77.8647 83.9773 77.8012 83.742 77.832L77.325 78.39L76.233 77.58C76.1332 77.5103 76.0123 77.4774 75.891 77.487L69.555 78.045C69.4359 78.0512 69.3239 78.1035 69.2427 78.1909C69.1615 78.2782 69.1175 78.3937 69.12 78.513Z" fill="#263238"/>
<path d="M69.12 78.513L69.792 86.232L85.692 86.151L84.75 78.6C84.7172 78.3649 84.5929 78.1523 84.4041 78.0085C84.2153 77.8647 83.9773 77.8012 83.742 77.832L77.325 78.39L76.233 77.58C76.1332 77.5103 76.0123 77.4774 75.891 77.487L69.555 78.045C69.4359 78.0512 69.3239 78.1035 69.2427 78.1909C69.1615 78.2782 69.1175 78.3937 69.12 78.513Z" fill="#3D72E0"/>
<path d="M64.557 84.222L64.221 82.212L78.93 81.24L80.223 86.229L64.848 86.151L64.557 84.222Z" fill="#FAFAFA"/>
<path d="M62.679 83.244L62.94 86.244H78.672L78.3 83.325C78.2672 83.0905 78.1433 82.8784 77.9552 82.7347C77.767 82.5909 77.5299 82.5271 77.295 82.557L70.878 83.115L69.783 82.305C69.6846 82.2348 69.5645 82.2019 69.444 82.212L63.108 82.773C62.9889 82.7792 62.877 82.8322 62.7967 82.9204C62.7164 83.0085 62.6741 83.1248 62.679 83.244Z" fill="#3D72E0"/>
<path opacity="0.7" d="M62.679 83.244L62.94 86.244H78.672L78.3 83.325C78.2672 83.0905 78.1433 82.8784 77.9552 82.7347C77.767 82.5909 77.5299 82.5271 77.295 82.557L70.878 83.115L69.783 82.305C69.6846 82.2348 69.5645 82.2019 69.444 82.212L63.108 82.773C62.9889 82.7792 62.877 82.8322 62.7967 82.9204C62.7164 83.0085 62.6741 83.1248 62.679 83.244Z" fill="#FAFAFA"/>
<path d="M79.281 82.587H81.381C81.4604 82.5872 81.5388 82.6053 81.6103 82.6399C81.6818 82.6746 81.7445 82.725 81.7938 82.7872C81.8431 82.8495 81.8777 82.9221 81.8951 82.9996C81.9124 83.0772 81.9121 83.1576 81.894 83.235L81.216 86.148H80.235L79.281 82.587Z" fill="#263238"/>
<path d="M89.118 39.099L89.211 38.976C89.277 38.898 89.37 38.781 89.49 38.622C89.8387 38.1593 90.1402 37.6628 90.39 37.14C90.5695 36.7631 90.72 36.3729 90.84 35.973C90.969 35.535 91.071 35.046 91.2 34.527C91.452 33.483 91.74 32.298 92.055 30.987C92.37 29.676 92.724 28.239 93.096 26.7C93.1817 26.3026 93.2919 25.9108 93.426 25.527C93.5734 25.1332 93.7582 24.7545 93.978 24.396C94.2081 24.0275 94.4755 23.6837 94.776 23.37C94.9282 23.2099 95.0895 23.0587 95.259 22.917H95.274C95.337 23.163 95.274 22.983 95.298 23.037H95.259L95.178 23.016L95.016 22.977L94.692 22.899L89.256 21.573L86.379 20.868L84.909 20.508L84.165 20.328H84.12H84.096C84.081 20.328 84.174 20.328 84.129 20.328L84.042 20.361L83.865 20.43C83.754 20.487 83.634 20.532 83.526 20.595C82.6338 21.0648 81.9157 21.8082 81.477 22.716C81.2689 23.1629 81.1197 23.6348 81.033 24.12C80.922 24.6 80.811 25.077 80.703 25.551C80.265 27.441 79.845 29.265 79.443 31.005L79.143 32.292C78.8325 33.5145 78.2852 34.6643 77.532 35.676C77.412 35.835 77.289 35.976 77.163 36.138L77.115 36.195L77.091 36.225C77.028 36.018 77.091 36.168 77.067 36.123H77.094L77.235 36.159L77.514 36.228L78.606 36.498L80.664 37.008L86.862 38.55L88.548 38.979L88.983 39.093L89.133 39.138L88.98 39.108L88.539 39.009L86.85 38.61L80.637 37.11L78.579 36.612L77.484 36.345L77.205 36.279L77.064 36.243H77.037C77.019 36.198 77.061 36.345 76.995 36.138L77.019 36.111L77.064 36.054C77.19 35.907 77.31 35.754 77.427 35.595C77.9112 34.9395 78.3094 34.2247 78.612 33.468C78.9121 32.656 79.1429 31.82 79.302 30.969C79.701 29.229 80.121 27.405 80.553 25.512C80.664 25.038 80.772 24.561 80.883 24.081C80.9712 23.5854 81.1235 23.1034 81.336 22.647C81.7748 21.6908 82.5116 20.9025 83.436 20.4C83.55 20.334 83.673 20.286 83.79 20.232L83.973 20.16L84.063 20.124H84.117H84.141H84.189L84.93 20.307L86.4 20.7L89.277 21.405L94.71 22.74L95.034 22.821L95.196 22.86L95.277 22.881H95.316C95.331 22.938 95.298 22.758 95.352 23.007H95.337C95.172 23.148 95.013 23.307 94.863 23.451C94.2822 24.0531 93.8309 24.7678 93.537 25.551C93.4047 25.9291 93.2955 26.3148 93.21 26.706L92.151 30.99L91.275 34.524C91.14 35.043 91.032 35.529 90.897 35.97C90.7731 36.3722 90.6187 36.7644 90.435 37.143C90.181 37.6659 89.8712 38.1598 89.511 38.616C89.3896 38.7846 89.2583 38.9459 89.118 39.099Z" fill="#263238"/>
<path d="M91.107 26.232C90.9931 26.2311 90.88 26.2139 90.771 26.181C90.558 26.139 90.249 26.073 89.871 25.989C89.112 25.818 88.071 25.572 86.913 25.278C85.755 24.984 84.723 24.678 83.976 24.468C83.601 24.357 83.301 24.261 83.094 24.192C82.984 24.1653 82.878 24.1239 82.779 24.069C82.892 24.0795 83.0036 24.1016 83.112 24.135L84.012 24.363L86.955 25.125L89.904 25.881L90.804 26.124C90.9084 26.1497 91.0099 26.1859 91.107 26.232Z" fill="#263238"/>
<path d="M90.9 27.489C90.7865 27.4842 90.6738 27.4671 90.564 27.4381C90.348 27.396 90.042 27.33 89.664 27.243C88.905 27.072 87.864 26.8261 86.703 26.5321C85.542 26.2381 84.516 25.9321 83.769 25.7251C83.394 25.6111 83.094 25.5181 82.887 25.4491C82.7827 25.4195 82.682 25.3783 82.587 25.326C82.7 25.3342 82.8118 25.3554 82.92 25.389L83.82 25.6171L86.763 26.3821L89.7 27.138L90.6 27.3781C90.7038 27.4039 90.8044 27.4412 90.9 27.489Z" fill="#263238"/>
<path d="M90.6 28.743C90.4864 28.7423 90.3733 28.7261 90.264 28.695C90.048 28.653 89.742 28.584 89.364 28.5C88.605 28.329 87.564 28.083 86.403 27.789C85.242 27.495 84.216 27.204 83.469 26.979C83.094 26.868 82.794 26.775 82.587 26.706C82.4781 26.6759 82.3725 26.6347 82.272 26.583C82.3853 26.5893 82.4973 26.6105 82.605 26.646L83.505 26.874L86.448 27.636L89.4 28.392L90.3 28.635C90.4032 28.6614 90.5037 28.6976 90.6 28.743Z" fill="#263238"/>
<path d="M90.339 30C90.2253 29.9971 90.1125 29.9799 90.003 29.949C89.79 29.907 89.481 29.841 89.103 29.757C88.344 29.586 87.303 29.34 86.145 29.043C84.987 28.746 83.955 28.461 83.208 28.236C82.836 28.125 82.536 28.029 82.329 27.96C82.2182 27.9328 82.1113 27.8915 82.011 27.837C82.124 27.8472 82.2357 27.8693 82.344 27.903L83.244 28.128L86.19 28.893L89.136 29.649L90.036 29.892C90.1406 29.9171 90.2422 29.9533 90.339 30Z" fill="#263238"/>
<path d="M89.934 31.257C89.8205 31.2522 89.7078 31.2351 89.598 31.206C89.382 31.164 89.076 31.098 88.698 31.011C87.939 30.84 86.898 30.594 85.737 30.3C84.576 30.006 83.55 29.7 82.803 29.49C82.428 29.379 82.128 29.286 81.921 29.217C81.8097 29.191 81.702 29.1517 81.6 29.1C81.7133 29.1063 81.8253 29.1275 81.933 29.163L82.833 29.391L85.776 30.156L88.725 30.909L89.625 31.152C89.7319 31.1744 89.8356 31.2097 89.934 31.257Z" fill="#263238"/>
<path d="M89.64 32.511C89.5261 32.51 89.413 32.4929 89.304 32.46C89.091 32.418 88.782 32.352 88.404 32.268C87.645 32.097 86.604 31.851 85.446 31.557C84.288 31.263 83.256 30.957 82.509 30.747C82.137 30.636 81.834 30.54 81.627 30.471C81.517 30.4443 81.411 30.4029 81.312 30.348C81.425 30.3585 81.5366 30.3806 81.645 30.414L82.545 30.642L85.491 31.404L88.437 32.16L89.337 32.403C89.4414 32.4287 89.5429 32.4649 89.64 32.511Z" fill="#263238"/>
<path d="M89.268 33.813C89.1543 33.8123 89.0413 33.7961 88.932 33.765C88.719 33.723 88.41 33.657 88.032 33.57C87.273 33.399 86.232 33.153 85.071 32.859C83.91 32.565 82.884 32.259 82.137 32.049C81.765 31.938 81.462 31.845 81.255 31.776C81.1507 31.7465 81.05 31.7052 80.955 31.653C81.0683 31.6593 81.1803 31.6805 81.288 31.716L82.188 31.944L85.131 32.709L88.08 33.462L88.98 33.705C89.0793 33.7316 89.1757 33.7678 89.268 33.813Z" fill="#263238"/>
<path d="M88.992 35.064C88.7486 35.0498 88.5074 35.0106 88.272 34.947C87.831 34.854 87.225 34.7191 86.559 34.5481C85.893 34.3771 85.299 34.191 84.867 34.062C84.6293 34.0054 84.3988 33.9219 84.18 33.813C84.423 33.8367 84.6631 33.8839 84.897 33.954C85.335 34.059 85.935 34.2241 86.598 34.3981C87.261 34.5721 87.864 34.719 88.299 34.839C88.5374 34.889 88.7697 34.9645 88.992 35.064Z" fill="#263238"/>
<path d="M69.666 64.767L59.415 68.793C58.604 63.8154 57.0146 58.9964 54.705 54.513L61.005 51.813C61.58 51.5664 62.1993 51.4402 62.8249 51.4422C63.4505 51.4441 64.0691 51.5742 64.6425 51.8243C65.2159 52.0745 65.732 52.4395 66.1589 52.8967C66.5859 53.354 66.9147 53.8938 67.125 54.483C68.3331 57.8116 69.1848 61.2588 69.666 64.767Z" fill="#FAFAFA"/>
<path d="M69.666 64.767C69.666 64.767 69.666 64.722 69.642 64.638C69.618 64.554 69.606 64.425 69.582 64.269C69.528 63.945 69.45 63.462 69.336 62.844C69.0119 61.0972 68.5993 59.368 68.1 57.663C67.938 57.123 67.767 56.556 67.572 55.974C67.377 55.392 67.182 54.774 66.924 54.174C66.6497 53.5556 66.2396 53.007 65.724 52.569C65.1695 52.1097 64.5166 51.7843 63.816 51.618C63.0785 51.4512 62.3109 51.4729 61.584 51.681C61.395 51.729 61.218 51.81 61.035 51.873L60.489 52.11L59.376 52.587L54.741 54.582L54.78 54.477C54.861 54.639 54.948 54.816 55.038 54.993C56.1893 57.3146 57.1592 59.7218 57.939 62.193C58.6145 64.3524 59.1309 66.5583 59.484 68.793L59.4 68.745L66.846 65.856L68.928 65.055L69.48 64.848C69.603 64.8 69.672 64.779 69.672 64.779C69.672 64.779 69.615 64.809 69.495 64.857L68.961 65.076L66.9 65.892L59.445 68.853L59.373 68.883V68.802C59.0102 66.5757 58.4889 64.3781 57.813 62.226C57.0259 59.7673 56.0521 57.3723 54.9 55.062L54.645 54.546L54.606 54.471L54.684 54.441L59.319 52.449L60.432 51.969L60.978 51.735C61.17 51.669 61.353 51.588 61.545 51.537C62.2971 51.3253 63.0903 51.3057 63.852 51.48C64.5732 51.6521 65.2448 51.9889 65.814 52.464C66.347 52.9156 66.7698 53.4831 67.05 54.123C67.314 54.741 67.497 55.353 67.695 55.938C67.893 56.523 68.055 57.09 68.214 57.63C68.708 59.341 69.1085 61.0776 69.414 62.832C69.516 63.456 69.588 63.936 69.63 64.269C69.648 64.428 69.663 64.551 69.675 64.644C69.6759 64.6852 69.6729 64.7264 69.666 64.767Z" fill="#263238"/>
<path d="M61.347 51.672C61.347 51.672 62.877 54.81 62.742 54.921C62.607 55.032 66.54 53.454 66.588 53.421C66.6 53.43 64.554 50.7 61.347 51.672Z" fill="#263238"/>
<path d="M60.774 55.902C60.3353 56.1732 59.8699 56.3984 59.385 56.574C58.9213 56.7967 58.437 56.9736 57.939 57.102C58.376 56.8297 58.8406 56.6045 59.325 56.43C59.7894 56.2066 60.2747 56.0297 60.774 55.902Z" fill="#263238"/>
<path d="M65.862 55.452C65.88 55.491 64.218 56.298 62.151 57.252C60.084 58.206 58.392 58.947 58.374 58.908C58.356 58.869 60.018 58.065 62.085 57.108C64.152 56.151 65.844 55.413 65.862 55.452Z" fill="#263238"/>
<path d="M66.552 57.3C66.57 57.339 64.908 58.143 62.841 59.1C60.774 60.057 59.082 60.798 59.064 60.759C59.046 60.72 60.708 59.916 62.775 58.959C64.842 58.002 66.534 57.258 66.552 57.3Z" fill="#263238"/>
<path d="M67.257 59.133C67.275 59.172 65.613 59.976 63.546 60.933C61.479 61.89 59.787 62.628 59.769 62.589C59.751 62.55 61.413 61.746 63.48 60.789C65.547 59.832 67.239 59.1 67.257 59.133Z" fill="#263238"/>
<path d="M65.274 62.538C65.0543 62.682 64.8212 62.8046 64.578 62.904C64.14 63.111 63.531 63.39 62.853 63.687C61.791 64.155 60.879 64.536 60.534 64.653L60.486 64.671V64.626C60.51 64.515 60.528 64.464 60.537 64.464C60.546 64.464 60.537 64.521 60.537 64.635L60.501 64.605C60.819 64.431 61.701 64.005 62.778 63.546C63.456 63.246 64.074 62.985 64.524 62.802C64.7638 62.6874 65.0153 62.5989 65.274 62.538Z" fill="#263238"/>
<path d="M112.758 64.5L101.379 59.58C102.576 58.592 103.513 57.3263 104.109 55.893L107.43 47.919C107.745 47.1916 108.237 46.5543 108.86 46.0645C109.483 45.5748 110.219 45.2481 111 45.114L121.554 49.686C120.412 50.3487 119.513 51.3603 118.989 52.572L115.2 61.311C114.658 62.5568 113.819 63.6515 112.758 64.5Z" fill="#3D72E0"/>
<path opacity="0.7" d="M112.758 64.5L101.379 59.58C102.576 58.592 103.513 57.3263 104.109 55.893L107.43 47.919C107.745 47.1916 108.237 46.5543 108.86 46.0645C109.483 45.5748 110.219 45.2481 111 45.114L121.554 49.686C120.412 50.3487 119.513 51.3603 118.989 52.572L115.2 61.311C114.658 62.5568 113.819 63.6515 112.758 64.5Z" fill="#FAFAFA"/>
<path d="M116.859 52.989C116.841 53.028 114.978 52.251 112.695 51.249C110.412 50.247 108.576 49.407 108.594 49.368C108.612 49.329 110.475 50.106 112.758 51.108C115.041 52.11 116.877 52.95 116.859 52.989Z" fill="#263238"/>
<path d="M116.4 54.558C116.382 54.597 114.456 53.79 112.095 52.758C109.734 51.726 107.838 50.853 107.856 50.814C107.874 50.775 109.8 51.579 112.158 52.614C114.516 53.649 116.4 54.519 116.4 54.558Z" fill="#263238"/>
<path d="M115.8 55.944C115.785 55.983 113.856 55.176 111.498 54.144C109.14 53.112 107.241 52.242 107.256 52.203C107.271 52.164 109.2 52.968 111.561 54.003C113.922 55.038 115.8 55.902 115.8 55.944Z" fill="#263238"/>
<path d="M115.179 57.33C115.161 57.369 113.235 56.562 110.874 55.53C108.513 54.498 106.617 53.628 106.635 53.586C106.653 53.544 108.579 54.354 110.937 55.386C113.295 56.418 115.2 57.3 115.179 57.33Z" fill="#263238"/>
<path d="M114.57 58.713C114.57 58.755 112.626 57.948 110.268 56.913C107.91 55.878 106.011 55.011 106.029 54.969C106.047 54.927 107.97 55.737 110.331 56.769C112.692 57.801 114.6 58.674 114.57 58.713Z" fill="#263238"/>
<path d="M109.857 58.299C109.625 58.248 109.399 58.1694 109.185 58.065C108.777 57.903 108.219 57.669 107.607 57.399C106.995 57.129 106.443 56.88 106.047 56.691C105.826 56.6036 105.615 56.4908 105.42 56.355C105.651 56.4096 105.877 56.488 106.092 56.589C106.5 56.754 107.058 56.988 107.67 57.255C108.282 57.522 108.834 57.777 109.23 57.966C109.45 58.0542 109.661 58.1658 109.857 58.299Z" fill="#263238"/>
<path d="M112.722 61.5C112.707 61.5 112.755 61.392 112.782 61.2C112.815 60.9235 112.758 60.6437 112.62 60.402C112.508 60.2111 112.346 60.0549 112.151 59.9505C111.956 59.8461 111.735 59.7977 111.515 59.8106C111.294 59.8235 111.081 59.8972 110.899 60.0236C110.718 60.1499 110.574 60.3241 110.486 60.5267C110.397 60.7293 110.366 60.9526 110.396 61.1718C110.426 61.3909 110.516 61.5975 110.656 61.7687C110.796 61.9399 110.981 62.069 111.19 62.1418C111.399 62.2146 111.624 62.2281 111.84 62.181C112.112 62.1201 112.357 61.9715 112.536 61.758C112.662 61.605 112.71 61.5 112.722 61.506C112.703 61.6163 112.655 61.7196 112.584 61.806C112.412 62.0505 112.157 62.2251 111.867 62.298C111.65 62.3548 111.423 62.3556 111.205 62.3005C110.988 62.2454 110.789 62.1362 110.625 61.983C110.423 61.7929 110.285 61.5448 110.23 61.273C110.174 61.0012 110.204 60.7189 110.316 60.4649C110.427 60.2108 110.614 59.9975 110.852 59.8541C111.089 59.7107 111.365 59.6443 111.642 59.664C111.866 59.68 112.081 59.7526 112.269 59.8748C112.457 59.9971 112.611 60.1651 112.716 60.363C112.857 60.6266 112.901 60.9315 112.839 61.224C112.822 61.3238 112.782 61.4182 112.722 61.5Z" fill="#263238"/>
<path d="M112.578 49.2535L109.28 47.8088L109.072 48.2842L112.37 49.7289L112.578 49.2535Z" fill="#263238"/>
<path d="M106.173 78.615L93.888 78.327L98.46 72.207H110.445L106.173 78.615Z" fill="#3D72E0"/>
<path d="M95.712 77.409L105.429 77.706L104.079 75.72L102.168 76.539L100.656 73.926L95.712 77.409Z" fill="#3D72E0"/>
<path d="M103.821 73.908C103.821 74.0326 103.784 74.1544 103.715 74.258C103.646 74.3616 103.547 74.4424 103.432 74.4901C103.317 74.5377 103.19 74.5502 103.068 74.5259C102.946 74.5016 102.834 74.4416 102.746 74.3535C102.657 74.2654 102.597 74.1531 102.573 74.0309C102.549 73.9087 102.561 73.782 102.609 73.6669C102.657 73.5518 102.737 73.4534 102.841 73.3842C102.945 73.315 103.066 73.278 103.191 73.278C103.358 73.278 103.518 73.3444 103.636 73.4625C103.755 73.5807 103.821 73.7409 103.821 73.908Z" fill="#3D72E0"/>
<g opacity="0.7">
<path d="M95.712 77.409L105.429 77.706L104.079 75.72L102.168 76.539L100.656 73.926L95.712 77.409Z" fill="#FAFAFA"/>
<path d="M103.821 73.908C103.821 74.0326 103.784 74.1544 103.715 74.258C103.646 74.3616 103.547 74.4424 103.432 74.4901C103.317 74.5377 103.19 74.5502 103.068 74.5259C102.946 74.5016 102.834 74.4416 102.746 74.3535C102.657 74.2654 102.597 74.1531 102.573 74.0309C102.549 73.9087 102.561 73.782 102.609 73.6669C102.657 73.5518 102.737 73.4534 102.841 73.3842C102.945 73.315 103.066 73.278 103.191 73.278C103.358 73.278 103.518 73.3444 103.636 73.4625C103.755 73.5807 103.821 73.7409 103.821 73.908Z" fill="#FAFAFA"/>
</g>
<path d="M72.855 42.642L62.034 47.448L61.776 39.204L72.585 34.095L72.855 42.642Z" fill="#3D72E0"/>
<path opacity="0.7" d="M72.855 42.642L62.034 47.448L61.776 39.204L72.585 34.095L72.855 42.642Z" fill="#FAFAFA"/>
<path d="M62.514 45.999L72.333 41.421L69.141 39.567L67.914 41.727L64.311 39.996L62.514 45.999Z" fill="#3D72E0"/>
<path d="M68.076 39.567C68.076 39.6722 68.0448 39.775 67.9863 39.8623C67.9278 39.9497 67.8447 40.0178 67.7475 40.0579C67.6503 40.098 67.5434 40.1083 67.4403 40.0876C67.3372 40.0669 67.2426 40.016 67.1685 39.9414C67.0943 39.8669 67.044 39.772 67.0238 39.6688C67.0037 39.5656 67.0146 39.4587 67.0553 39.3617C67.0959 39.2648 67.1645 39.182 67.2522 39.124C67.3399 39.0661 67.4429 39.0354 67.548 39.036C67.6176 39.036 67.6865 39.0498 67.7508 39.0765C67.815 39.1032 67.8734 39.1424 67.9224 39.1917C67.9715 39.2411 68.0103 39.2996 68.0367 39.364C68.063 39.4285 68.0764 39.4974 68.076 39.567Z" fill="#3D72E0"/>
<path d="M65.937 39.021C65.9065 38.7183 65.8574 38.4177 65.79 38.121C65.5741 37.31 65.0924 36.5949 64.422 36.09C63.9295 35.7201 63.3523 35.4791 62.743 35.389C62.1337 35.2989 61.5115 35.3625 60.933 35.574C60.5992 35.6924 60.2855 35.8613 60.003 36.075C59.7042 36.2933 59.442 36.5576 59.226 36.858C58.7641 37.4875 58.5151 38.2478 58.5151 39.0285C58.5151 39.8092 58.7641 40.5696 59.226 41.199C59.442 41.4994 59.7042 41.7637 60.003 41.982C60.2855 42.1957 60.5992 42.3647 60.933 42.483C61.5511 42.708 62.2177 42.7649 62.865 42.648C63.4303 42.5449 63.9636 42.3106 64.422 41.964C65.0922 41.4603 65.5739 40.7461 65.79 39.936C65.8577 39.6394 65.9068 39.3388 65.937 39.036C65.9422 39.1159 65.9422 39.1961 65.937 39.276C65.9384 39.3764 65.9314 39.4768 65.916 39.576C65.9025 39.7087 65.8784 39.8401 65.844 39.969C65.6753 40.6745 65.3064 41.3162 64.7816 41.8171C64.2569 42.3179 63.5986 42.6564 62.886 42.792C62.2187 42.9063 61.533 42.84 60.9 42.6C60.1875 42.3432 59.5673 41.8807 59.118 41.271C58.6328 40.6166 58.3709 39.8236 58.3709 39.009C58.3709 38.1944 58.6328 37.4014 59.118 36.747C59.3446 36.4358 59.619 36.1625 59.931 35.937C60.2257 35.7165 60.5525 35.5425 60.9 35.421C61.5002 35.2058 62.145 35.1461 62.7745 35.2473C63.404 35.3486 63.9976 35.6075 64.5 36C65.1816 36.5223 65.6617 37.2642 65.859 38.1C65.8937 38.2288 65.9177 38.3603 65.931 38.493C65.952 38.6682 65.958 38.8448 65.949 39.021H65.937Z" fill="#263238"/>
<path d="M59.7 41.793C59.73 41.826 58.62 42.8551 57.225 44.0911C55.83 45.3271 54.672 46.3051 54.645 46.2751C54.618 46.2451 55.725 45.2131 57.12 43.9741C58.515 42.7351 59.676 41.76 59.7 41.793Z" fill="#263238"/>
<path d="M36.282 56.232C35.25 55.674 33.705 56.016 33.075 57.006C32.6897 57.7159 32.5494 58.5332 32.676 59.331C32.757 60.129 32.958 60.912 32.976 61.713C33.01 62.1453 32.9517 62.5799 32.805 62.988C32.7311 63.1912 32.6171 63.3775 32.4697 63.5358C32.3223 63.694 32.1445 63.8209 31.947 63.909C31.332 64.155 30.564 63.909 30.015 64.29C29.8949 64.3853 29.795 64.5036 29.7212 64.638C29.6473 64.7723 29.6009 64.9201 29.5847 65.0725C29.5685 65.225 29.5828 65.3792 29.6268 65.526C29.6708 65.6729 29.7436 65.8095 29.841 65.928C30.0532 66.1565 30.3341 66.3094 30.6411 66.3636C30.9482 66.4177 31.2645 66.3701 31.542 66.228C30.963 66.765 31.071 67.8 31.656 68.328C31.9645 68.5761 32.3349 68.7352 32.7272 68.7881C33.1195 68.8409 33.5189 68.7856 33.882 68.628C34.6053 68.301 35.2211 67.7757 35.658 67.113C36.7845 65.4852 37.372 63.5452 37.338 61.566C37.3394 59.7161 36.936 57.8884 36.156 56.211" fill="#263238"/>
<path d="M69.975 73.74C69.63 73.182 67.236 74.517 67.023 74.613C66.81 74.709 66.666 74.409 66.861 74.331C67.14 74.22 70.059 72.966 69.723 72.417C69.537 72.117 69.018 72.495 69.018 72.495C69.018 72.495 66.375 73.869 66.225 73.602C66.075 73.335 67.599 72.474 68.133 72.222C68.667 71.97 68.757 71.622 68.451 71.478C68.244 71.379 66.588 72.117 66.066 72.378C65.544 72.639 64.122 73.389 64.524 72.45C64.926 71.511 64.881 70.65 64.704 70.413C64.6585 70.3639 64.5986 70.3305 64.5329 70.3175C64.4673 70.3045 64.3992 70.3125 64.3384 70.3404C64.2775 70.3683 64.227 70.4147 64.1941 70.473C64.1612 70.5313 64.1475 70.5985 64.155 70.665C64.1287 71.0085 64.055 71.3467 63.936 71.67C63.8519 71.9331 63.723 72.1797 63.555 72.399C63.357 72.657 63.18 72.864 63.024 73.038C61.5 73.572 57.147 74.922 53.079 74.538C52.932 74.523 52.719 74.238 52.479 73.785L46.962 75.561C47.169 75.987 47.394 76.461 47.637 76.932C50.715 83.082 64.983 76.701 64.983 76.701V76.686C66.0524 76.4814 67.11 76.219 68.151 75.9C69.579 75.387 69.534 75.258 69.447 75.102C69.21 74.682 66.9 75.912 67.242 75.36C67.584 74.808 70.242 74.169 69.975 73.74Z" fill="#EB996E"/>
<path d="M50.565 76.419L60.555 72.525L66.72 76.161L55.797 80.061L50.565 76.419Z" fill="#263238"/>
<path d="M60.837 72.693L61.788 72.438C63.5849 73.4623 65.2425 74.7136 66.72 76.161L66.441 75.996L60.837 72.693Z" fill="#FAFAFA"/>
<path d="M66.72 76.161C66.466 75.9927 66.2253 75.8052 66 75.6C65.559 75.243 64.944 74.757 64.251 74.241C63.558 73.725 62.916 73.275 62.451 72.96C62.1873 72.8014 61.9347 72.625 61.695 72.432C61.9814 72.5463 62.2541 72.6922 62.508 72.867C63.1416 73.2518 63.7554 73.6683 64.347 74.115C65.043 74.634 65.649 75.138 66.075 75.516C66.3108 75.7091 66.5269 75.9252 66.72 76.161Z" fill="#263238"/>
<path d="M48.801 84.966L48.366 75.966L48.333 75.588L53.1 73.383L51.582 69.666C49.908 63.393 43.932 63.3 43.932 63.3L39.375 62.853L37.32 63.3C37.32 63.3 33.513 63.957 33.369 69.384C33.3001 72.6907 34.0048 75.9679 35.427 78.954L36.822 78.225C36.8178 79.1084 36.5493 79.9704 36.051 80.7C35.4644 81.5512 35.0477 82.5077 34.824 83.517L48.801 84.966Z" fill="#F7771B"/>
<path d="M38.418 68.226C38.442 68.226 38.478 68.67 38.583 69.384C38.8572 71.2441 39.4232 73.0493 40.26 74.733C40.581 75.378 40.806 75.765 40.785 75.777C40.7118 75.7008 40.6492 75.615 40.599 75.522C40.485 75.354 40.335 75.102 40.161 74.784C39.2606 73.113 38.6883 71.2851 38.475 69.399C38.433 69.039 38.412 68.745 38.409 68.541C38.3967 68.4361 38.3997 68.33 38.418 68.226Z" fill="#263238"/>
<path d="M47.733 73.764C48.0518 73.6262 48.3372 73.4216 48.57 73.164C48.8084 72.8801 48.9381 72.5207 48.936 72.15C48.9384 71.9259 48.8848 71.7048 48.78 71.5068C48.6753 71.3087 48.5226 71.14 48.336 71.016C48.1953 70.9213 48.0371 70.8558 47.8706 70.8234C47.7042 70.7909 47.5329 70.7921 47.367 70.827L47.292 70.845L47.277 70.77C47.13 70.047 47.01 69.423 46.929 68.97C46.8764 68.736 46.8423 68.4983 46.827 68.259C46.9124 68.4827 46.9777 68.7136 47.022 68.949C47.127 69.387 47.265 70.008 47.424 70.728L47.331 70.671C47.5166 70.6287 47.709 70.6248 47.8962 70.6593C48.0834 70.6939 48.2617 70.7662 48.42 70.872C48.6257 71.0115 48.7929 71.2007 48.9062 71.422C49.0194 71.6432 49.0751 71.8895 49.068 72.138C49.0648 72.541 48.9131 72.9287 48.642 73.227C48.4624 73.423 48.2423 73.5775 47.997 73.68C47.916 73.7266 47.826 73.7552 47.733 73.764Z" fill="#263238"/>
<path d="M48.498 77.49C48.3566 76.8652 48.2752 76.2283 48.255 75.588C48.174 74.535 48.042 73.692 48.084 73.683C48.2779 74.2953 48.3879 74.9311 48.411 75.573C48.4816 76.2094 48.5107 76.8498 48.498 77.49Z" fill="#263238"/>
<path d="M53.115 73.419C52.9089 73.5728 52.6866 73.7036 52.452 73.809C52.032 74.028 51.444 74.319 50.781 74.616C50.118 74.913 49.515 75.162 49.071 75.33C48.8378 75.4373 48.5933 75.5178 48.342 75.57C48.5589 75.4331 48.7891 75.3185 49.029 75.228L50.718 74.472L52.404 73.71C52.6316 73.5915 52.8696 73.4941 53.115 73.419Z" fill="#263238"/>
<path d="M35.349 69.144C35.2966 68.8675 35.2966 68.5835 35.349 68.307C35.3461 68.0245 35.3949 67.7439 35.493 67.479C35.5455 67.7565 35.5455 68.0415 35.493 68.319C35.4957 68.6005 35.4469 68.8801 35.349 69.144Z" fill="#FAFAFA"/>
<path d="M35.796 71.004C35.563 70.9921 35.3355 70.9285 35.13 70.818C34.9091 70.7527 34.7046 70.6412 34.53 70.491C34.764 70.5007 34.9927 70.5632 35.199 70.674C35.541 70.815 35.814 70.962 35.796 71.004Z" fill="#FAFAFA"/>
<path d="M37.464 70.116C37.3751 69.9227 37.3529 69.7053 37.401 69.498C37.437 69.153 37.554 68.898 37.593 68.898C37.6136 69.0986 37.6015 69.3013 37.557 69.498C37.5579 69.7076 37.5265 69.916 37.464 70.116Z" fill="#FAFAFA"/>
<path d="M37.2 73.215C37.1524 72.9742 37.1951 72.7243 37.32 72.513C37.485 72.147 37.746 71.937 37.773 71.967C37.8 71.997 37.614 72.24 37.473 72.567C37.332 72.894 37.239 73.218 37.2 73.215Z" fill="#FAFAFA"/>
<path d="M36.6 74.922C36.3654 74.8228 36.1429 74.697 35.937 74.547C35.577 74.331 35.271 74.181 35.289 74.139C35.5514 74.162 35.8025 74.2564 36.015 74.412C36.393 74.631 36.636 74.892 36.6 74.922Z" fill="#FAFAFA"/>
<path d="M39.129 74.571C39.0747 74.8325 38.9912 75.0871 38.88 75.33C38.8161 75.5889 38.7224 75.8395 38.601 76.077C38.5711 75.8039 38.6168 75.5279 38.733 75.279C38.7994 75.0119 38.9362 74.7674 39.129 74.571Z" fill="#FAFAFA"/>
<path d="M36.6 76.827C36.388 76.8451 36.1748 76.8111 35.979 76.728C35.646 76.632 35.379 76.521 35.4 76.479C35.612 76.4609 35.8252 76.4949 36.021 76.578C36.36 76.674 36.618 76.8 36.6 76.827Z" fill="#FAFAFA"/>
<path d="M38.784 66.054C38.5893 66.2281 38.3619 66.3617 38.115 66.447C37.8897 66.5778 37.6411 66.6634 37.383 66.699C37.8014 66.3912 38.2781 66.1717 38.784 66.054Z" fill="#FAFAFA"/>
<path d="M36.924 63.96C36.957 63.993 36.711 64.26 36.441 64.62C36.2969 64.8517 36.1279 65.067 35.937 65.262C35.9953 64.9862 36.1269 64.7312 36.318 64.524C36.6 64.155 36.9 63.927 36.924 63.96Z" fill="#FAFAFA"/>
<path d="M41.727 68.718C41.4498 68.6248 41.2003 68.4639 41.001 68.25C40.7686 68.0722 40.5857 67.8377 40.47 67.569C40.7 67.7357 40.913 67.9246 41.106 68.133C41.448 68.448 41.751 68.679 41.727 68.718Z" fill="#FAFAFA"/>
<path d="M44.592 65.853C44.4587 66.1209 44.2935 66.3717 44.1 66.6C43.9537 66.854 43.7763 67.0888 43.572 67.299C43.6444 67.0089 43.7819 66.7391 43.974 66.51C44.265 66.093 44.562 65.823 44.592 65.853Z" fill="#FAFAFA"/>
<path d="M42.771 71.238C42.2855 71.342 41.7835 71.342 41.298 71.238C41.7835 71.134 42.2855 71.134 42.771 71.238Z" fill="#FAFAFA"/>
<path d="M45.48 70.2C45.3348 69.9572 45.26 69.6788 45.264 69.396C45.2177 69.1174 45.251 68.8315 45.36 68.571C45.4062 68.8394 45.4263 69.1117 45.42 69.384C45.4674 69.6533 45.4875 69.9267 45.48 70.2Z" fill="#FAFAFA"/>
<path d="M46.182 73.716C45.9077 73.6548 45.6466 73.5451 45.411 73.392C45.1531 73.2824 44.9173 73.1269 44.715 72.933C44.9896 72.9916 45.2509 73.1004 45.486 73.254C45.7451 73.3627 45.9812 73.5194 46.182 73.716Z" fill="#FAFAFA"/>
<path d="M48.114 71.931C48.135 71.97 47.961 72.102 47.727 72.231C47.493 72.36 47.283 72.432 47.262 72.393C47.241 72.354 47.415 72.222 47.652 72.093C47.889 71.964 48.096 71.892 48.114 71.931Z" fill="#FAFAFA"/>
<path d="M42.03 75.228C42.0211 74.9156 42.0912 74.606 42.234 74.328C42.3305 74.0324 42.5033 73.7675 42.735 73.56C42.6378 73.8449 42.5185 74.1218 42.378 74.388C42.2864 74.6775 42.17 74.9586 42.03 75.228Z" fill="#FAFAFA"/>
<path d="M45.21 76.74C44.974 76.4738 44.8052 76.1549 44.718 75.81C44.5815 75.481 44.5269 75.1237 44.559 74.769C44.6771 75.0943 44.7772 75.4258 44.859 75.762C44.9935 76.0814 45.1107 76.4079 45.21 76.74Z" fill="#FAFAFA"/>
<path d="M47.424 75.66C47.46 75.687 47.346 75.876 47.256 76.122C47.166 76.368 47.127 76.584 47.082 76.584C47.037 76.584 47.007 76.344 47.109 76.068C47.211 75.792 47.4 75.63 47.424 75.66Z" fill="#FAFAFA"/>
<path d="M50.718 73.029C50.2924 73.2924 49.816 73.4631 49.32 73.53C49.5196 73.3774 49.7483 73.2671 49.992 73.206C50.2197 73.099 50.4666 73.0388 50.718 73.029Z" fill="#FAFAFA"/>
<path d="M50.565 71.1C50.5132 70.8365 50.5382 70.5637 50.637 70.314C50.6851 70.0454 50.8114 69.7971 51 69.6C50.9502 69.8536 50.8758 70.1018 50.778 70.341C50.7335 70.6007 50.6621 70.855 50.565 71.1Z" fill="#FAFAFA"/>
<path d="M49.632 69.456C49.367 69.5302 49.0898 69.5506 48.8167 69.5161C48.5436 69.4816 48.2802 69.3928 48.042 69.255C48.3095 69.268 48.5754 69.3031 48.837 69.36C49.1043 69.3686 49.3703 69.4007 49.632 69.456Z" fill="#FAFAFA"/>
<path d="M48.546 67.521C48.6106 67.2762 48.7476 67.0566 48.939 66.891C49.221 66.591 49.521 66.426 49.539 66.462C49.557 66.498 49.32 66.708 49.05 66.999C48.78 67.29 48.6 67.545 48.546 67.521Z" fill="#FAFAFA"/>
<path d="M46.518 66.087C46.3107 65.652 46.2011 65.1769 46.197 64.695C46.4044 65.13 46.5139 65.6051 46.518 66.087Z" fill="#FAFAFA"/>
<path d="M36.6 81.156C36.624 81.189 36.516 81.321 36.357 81.456C36.198 81.591 36.057 81.66 36.018 81.627C35.979 81.594 36.099 81.462 36.258 81.327C36.417 81.192 36.582 81.123 36.6 81.156Z" fill="#FAFAFA"/>
<path d="M48.117 82.95C47.8214 83.0139 47.517 83.0271 47.217 82.989C46.9124 83.0001 46.6081 82.9595 46.317 82.869C46.9243 82.7938 47.5398 82.8211 48.138 82.95H48.117Z" fill="#FAFAFA"/>
<path d="M40.863 75.69C40.884 75.729 39.663 76.491 38.115 77.394C36.567 78.297 35.31 78.996 35.289 78.96C35.268 78.924 36.489 78.162 38.037 77.259C39.585 76.356 40.839 75.654 40.863 75.69Z" fill="#263238"/>
<path d="M35.001 82.884C34.857 82.884 33.267 87.576 34.788 90.684C34.941 90.984 35.472 91.698 36.135 92.715C39.285 97.548 47.271 108.372 47.511 110.037C47.811 112.053 52.956 133.137 52.956 133.137H57.156L53.625 109.08L48.363 86.259L35.001 82.884Z" fill="#FFBE9D"/>
<path d="M48.534 114.723C48.8311 114.45 49.0641 114.115 49.216 113.742C49.368 113.368 49.4353 112.966 49.413 112.563C49.377 111.117 48.531 107.667 48.531 107.667L47.178 108.495C47.178 108.495 48.243 111.327 48.294 112.215C48.354 113.208 48.168 113.532 48.168 113.532L48.534 114.723Z" fill="#EB996E"/>
<path d="M37.575 94.599L42.018 111.099L28.137 125.532L31.056 129C31.056 129 48.108 115.02 48.417 113.01C48.771 110.715 44.613 94.41 44.613 94.41L37.575 94.599Z" fill="#FFBE9D"/>
<path d="M31.875 128.574L28.758 124.887L27.936 125.664L28.989 127.095C29.715 128.049 32.214 131.214 32.919 131.667C33.705 132.171 31.875 128.574 31.875 128.574Z" fill="#3D72E0"/>
<path d="M33.147 131.607C33.177 131.58 32.046 130.218 30.621 128.562C29.196 126.906 28.011 125.589 27.981 125.616C27.951 125.643 29.082 127.005 30.507 128.661C31.932 130.317 33.117 131.634 33.147 131.607Z" fill="#263238"/>
<path d="M28.767 126.576C28.785 126.576 28.824 126.501 28.869 126.366C28.9257 126.184 28.9491 125.993 28.938 125.802C28.926 125.604 28.8466 125.415 28.713 125.268C28.605 125.16 28.509 125.136 28.503 125.151C28.497 125.166 28.56 125.226 28.632 125.334C28.7229 125.479 28.7774 125.644 28.791 125.814C28.7986 125.991 28.7896 126.169 28.764 126.345C28.749 126.483 28.746 126.573 28.767 126.576Z" fill="#263238"/>
<path d="M32.01 128.862C32.01 128.907 31.851 128.91 31.671 128.907C31.491 128.904 31.344 128.892 31.338 128.85C31.332 128.808 31.479 128.745 31.674 128.748C31.869 128.751 32.019 128.82 32.01 128.862Z" fill="#263238"/>
<path d="M32.187 129.207C32.187 129.252 32.037 129.282 31.863 129.279C31.689 129.276 31.563 129.234 31.545 129.189C31.527 129.144 31.686 129.114 31.869 129.12C32.052 129.126 32.19 129.165 32.187 129.207Z" fill="#263238"/>
<path d="M32.325 129.513C32.325 129.558 32.214 129.594 32.079 129.615C31.944 129.636 31.827 129.633 31.815 129.591C31.803 129.549 31.908 129.483 32.055 129.462C32.202 129.441 32.325 129.471 32.325 129.513Z" fill="#263238"/>
<path d="M31.977 128.892C32.0133 128.727 32.0884 128.573 32.196 128.442C32.3002 128.287 32.4325 128.153 32.586 128.046C32.6783 127.982 32.7793 127.931 32.886 127.896C32.9472 127.876 33.0108 127.865 33.075 127.863C33.1145 127.863 33.1536 127.87 33.1902 127.885C33.2267 127.9 33.26 127.922 33.288 127.95C33.3317 128.014 33.3486 128.093 33.3352 128.17C33.3217 128.247 33.279 128.315 33.216 128.361C33.1289 128.429 33.0355 128.488 32.937 128.538C32.7758 128.624 32.6071 128.695 32.433 128.751C32.2787 128.818 32.112 128.85 31.944 128.847C32.0866 128.764 32.2374 128.697 32.394 128.646C32.5557 128.578 32.713 128.5 32.865 128.412C32.9514 128.361 33.0346 128.305 33.114 128.244C33.186 128.187 33.207 128.094 33.171 128.055C33.135 128.016 33.03 128.013 32.931 128.055C32.8371 128.084 32.7473 128.126 32.664 128.178C32.5213 128.273 32.3939 128.39 32.286 128.523C32.1 128.742 31.998 128.904 31.977 128.892Z" fill="#263238"/>
<path d="M32.01 128.805C32.1631 128.729 32.3313 128.689 32.502 128.688C32.688 128.669 32.8756 128.675 33.06 128.706C33.1714 128.724 33.2802 128.755 33.384 128.799C33.4437 128.819 33.4995 128.85 33.549 128.889C33.5831 128.912 33.6102 128.944 33.627 128.982C33.6389 129.005 33.645 129.031 33.645 129.057C33.645 129.083 33.6389 129.109 33.627 129.132C33.5879 129.19 33.5359 129.239 33.4751 129.275C33.4143 129.31 33.3462 129.331 33.276 129.336C33.162 129.357 33.045 129.357 32.931 129.336C32.7478 129.298 32.5703 129.237 32.403 129.153C32.103 129.015 31.995 128.838 32.013 128.826C32.1533 128.91 32.2985 128.985 32.448 129.051C32.6125 129.114 32.7822 129.162 32.955 129.195C33.0545 129.209 33.1555 129.209 33.255 129.195C33.3447 129.186 33.4279 129.144 33.489 129.078C33.519 129.078 33.423 128.982 33.327 128.949C33.2304 128.908 33.1299 128.877 33.027 128.856C32.8543 128.821 32.6782 128.805 32.502 128.808C32.3382 128.821 32.1736 128.82 32.01 128.805Z" fill="#263238"/>
<path d="M31.815 128.499C31.773 128.532 31.011 127.779 30.174 126.777C29.337 125.775 28.719 124.917 28.761 124.887C28.803 124.857 29.49 125.664 30.327 126.663C31.164 127.662 31.857 128.466 31.815 128.499Z" fill="#263238"/>
<path d="M57.318 133.14L52.896 133.092L52.947 134.481H53.247C54.531 134.502 59.775 134.499 60.621 134.226C61.554 133.926 57.318 133.14 57.318 133.14Z" fill="#3D72E0"/>
<path d="M60.711 134.016C60.711 133.974 58.971 134.016 56.829 134.103C54.687 134.19 52.956 134.301 52.956 134.34C52.956 134.379 54.696 134.34 56.838 134.253C58.98 134.166 60.711 134.055 60.711 134.016Z" fill="#263238"/>
<path d="M54.354 134.268C54.372 134.253 54.33 134.175 54.243 134.055C54.1279 133.895 53.9833 133.759 53.817 133.653C53.6385 133.539 53.4282 133.486 53.217 133.5C53.055 133.515 52.971 133.578 52.98 133.593C52.989 133.608 53.079 133.593 53.22 133.593C53.401 133.609 53.5757 133.668 53.73 133.764C53.8838 133.865 54.0266 133.981 54.156 134.112C54.264 134.223 54.336 134.28 54.354 134.268Z" fill="#263238"/>
<path d="M57.648 133.2C57.678 133.236 57.582 133.353 57.462 133.5C57.342 133.647 57.234 133.749 57.192 133.728C57.15 133.707 57.192 133.551 57.333 133.398C57.474 133.245 57.621 133.179 57.648 133.2Z" fill="#263238"/>
<path d="M58.056 133.287C58.089 133.317 58.02 133.449 57.903 133.587C57.786 133.725 57.657 133.806 57.618 133.782C57.579 133.758 57.648 133.626 57.774 133.482C57.9 133.338 58.023 133.257 58.056 133.287Z" fill="#263238"/>
<path d="M58.404 133.368C58.443 133.392 58.404 133.503 58.329 133.623C58.254 133.743 58.176 133.833 58.134 133.815C58.092 133.797 58.104 133.674 58.182 133.545C58.26 133.416 58.368 133.341 58.404 133.368Z" fill="#263238"/>
<path d="M57.651 133.257C57.5408 133.127 57.4617 132.973 57.42 132.807C57.3603 132.629 57.3338 132.442 57.342 132.255C57.3504 132.142 57.3757 132.031 57.417 131.925C57.4404 131.865 57.4728 131.808 57.513 131.757C57.539 131.724 57.5717 131.697 57.6089 131.677C57.6461 131.657 57.687 131.646 57.729 131.643C57.8086 131.643 57.8849 131.675 57.9411 131.731C57.9974 131.787 58.029 131.863 58.029 131.943C58.0272 132.054 58.0151 132.164 57.993 132.273C57.9581 132.453 57.9069 132.63 57.84 132.801C57.7922 132.965 57.7093 133.116 57.597 133.245C57.6192 133.08 57.6625 132.919 57.726 132.765C57.7751 132.597 57.8132 132.425 57.84 132.252C57.8553 132.153 57.8634 132.052 57.864 131.952C57.864 131.862 57.798 131.787 57.741 131.793C57.684 131.799 57.615 131.874 57.576 131.973C57.5371 132.064 57.5118 132.16 57.501 132.258C57.4852 132.429 57.4984 132.601 57.54 132.768C57.5947 132.926 57.632 133.09 57.651 133.257Z" fill="#263238"/>
<path d="M57.6 133.179C57.6388 133.009 57.7169 132.851 57.828 132.717C57.9338 132.563 58.0588 132.423 58.2 132.3C58.2931 132.225 58.3936 132.16 58.5 132.105C58.5594 132.072 58.623 132.047 58.689 132.03C58.7313 132.019 58.7757 132.019 58.818 132.03C58.8448 132.035 58.8702 132.045 58.8925 132.061C58.9148 132.076 58.9334 132.096 58.947 132.12C58.97 132.187 58.9765 132.259 58.9661 132.33C58.9557 132.4 58.9285 132.467 58.887 132.525C58.8225 132.625 58.7425 132.714 58.65 132.789C58.494 132.908 58.3249 133.009 58.146 133.089C57.9861 133.186 57.7968 133.223 57.612 133.194C57.7768 133.138 57.9373 133.07 58.092 132.99C58.2525 132.905 58.4042 132.805 58.545 132.69C58.6218 132.624 58.6876 132.546 58.74 132.459C58.7661 132.422 58.7845 132.381 58.7943 132.337C58.8041 132.293 58.805 132.248 58.797 132.204C58.797 132.174 58.671 132.204 58.581 132.252C58.4853 132.299 58.3948 132.357 58.311 132.423C58.1681 132.536 58.0374 132.664 57.921 132.804C57.8246 132.938 57.7172 133.063 57.6 133.179Z" fill="#263238"/>
<path d="M57.213 133.14C56.5102 133.245 55.7989 133.282 55.089 133.251C54.3789 133.273 53.6682 133.233 52.965 133.131C53.6715 133.075 54.3809 133.063 55.089 133.095C55.7973 133.073 56.5063 133.088 57.213 133.14Z" fill="#263238"/>
<path d="M44.1 63.144C44.079 62.199 44.067 61.344 44.067 61.344C44.067 61.344 45.918 61.149 46.029 59.316C46.14 57.483 46.029 53.25 46.029 53.25L42.66 51.603L38.955 54.411L39.171 63.246C39.1882 63.888 39.4552 64.4979 39.9151 64.9461C40.3751 65.3943 40.9918 65.6454 41.634 65.646C41.9609 65.646 42.2845 65.581 42.5861 65.4549C42.8876 65.3287 43.1611 65.1438 43.3906 64.911C43.62 64.6782 43.8009 64.4021 43.9227 64.0987C44.0445 63.7954 44.1048 63.4708 44.1 63.144Z" fill="#FFBE9D"/>
<path d="M39.201 55.836C39.201 55.836 42.228 55.536 42.762 52.806L46.062 55.836C46.3371 55.1759 46.4058 54.4479 46.259 53.748C46.1123 53.0481 45.757 52.4091 45.24 51.915C43.419 50.025 42.171 50.415 41.457 50.415C40.794 50.415 37.431 51.129 36.429 54.954C36.357 55.233 36.297 55.92 36.252 56.232L39.201 55.836Z" fill="#263238"/>
<path d="M45.627 56.346C45.627 56.3923 45.6133 56.4375 45.5876 56.476C45.5618 56.5145 45.5253 56.5445 45.4825 56.5622C45.4398 56.5799 45.3927 56.5845 45.3473 56.5755C45.302 56.5665 45.2603 56.5442 45.2275 56.5115C45.1948 56.4787 45.1725 56.437 45.1635 56.3917C45.1545 56.3463 45.1591 56.2992 45.1768 56.2565C45.1945 56.2137 45.2245 56.1771 45.263 56.1514C45.3015 56.1257 45.3467 56.112 45.393 56.112C45.4551 56.112 45.5146 56.1367 45.5585 56.1805C45.6023 56.2244 45.627 56.2839 45.627 56.346Z" fill="#263238"/>
<path d="M45.855 56.1C45.825 56.13 45.651 55.983 45.399 55.968C45.147 55.953 44.955 56.076 44.931 56.043C44.907 56.01 44.949 55.971 45.03 55.914C45.1423 55.8418 45.2747 55.8071 45.408 55.815C45.5413 55.8229 45.6685 55.8734 45.771 55.959C45.846 56.016 45.87 56.076 45.855 56.1Z" fill="#263238"/>
<path d="M42.9 56.346C42.9 56.3923 42.8863 56.4375 42.8606 56.476C42.8349 56.5145 42.7983 56.5445 42.7556 56.5622C42.7128 56.5799 42.6657 56.5845 42.6204 56.5755C42.575 56.5665 42.5333 56.5442 42.5005 56.5115C42.4678 56.4787 42.4455 56.437 42.4365 56.3917C42.4275 56.3463 42.4321 56.2992 42.4498 56.2565C42.4675 56.2137 42.4975 56.1771 42.536 56.1514C42.5745 56.1257 42.6197 56.112 42.666 56.112C42.7281 56.112 42.7876 56.1367 42.8315 56.1805C42.8754 56.2244 42.9 56.2839 42.9 56.346Z" fill="#263238"/>
<path d="M43.053 56.1C43.023 56.13 42.849 55.983 42.597 55.968C42.345 55.953 42.153 56.076 42.126 56.043C42.099 56.01 42.147 55.971 42.228 55.914C42.3402 55.8416 42.4726 55.807 42.6059 55.8151C42.7392 55.8232 42.8664 55.8736 42.969 55.959C43.044 56.016 43.068 56.076 43.053 56.1Z" fill="#263238"/>
<path d="M43.965 58.224C44.1006 58.191 44.2395 58.1739 44.379 58.173C44.442 58.173 44.505 58.173 44.52 58.113C44.5277 58.0429 44.5152 57.9722 44.484 57.909L44.31 57.384C44.19 57.012 44.088 56.673 44.01 56.427C43.9637 56.2949 43.9325 56.1581 43.917 56.019C43.9941 56.1376 44.0557 56.2656 44.1 56.4C44.187 56.643 44.301 56.979 44.421 57.351C44.481 57.534 44.535 57.711 44.589 57.876C44.6259 57.9589 44.6344 58.0517 44.613 58.14C44.6041 58.1632 44.5896 58.1839 44.5708 58.2001C44.5519 58.2164 44.5293 58.2277 44.505 58.233C44.4691 58.237 44.4329 58.237 44.397 58.233C44.2532 58.249 44.108 58.246 43.965 58.224Z" fill="#263238"/>
<path d="M43.131 58.464C43.5285 58.6302 43.9364 58.7705 44.352 58.884C44.2602 59.0128 44.1275 59.1066 43.9754 59.1502C43.8234 59.1938 43.6611 59.1846 43.515 59.124C42.975 58.896 43.131 58.464 43.131 58.464Z" fill="#FAFAFA"/>
<path d="M44.064 61.356C43.1925 61.3204 42.3493 61.0362 41.634 60.537C41.634 60.537 42.234 61.887 44.064 61.812V61.356Z" fill="#EB996E"/>
<path d="M42.672 52.587C42.672 52.587 43.344 53.886 43.056 54.864L45.999 55.623C45.999 55.623 46.668 51.9 42.672 52.587Z" fill="#263238"/>
<path d="M36.237 56.232C36.237 56.232 35.718 60.171 39.288 60.933L39.201 55.833L36.237 56.232Z" fill="#263238"/>
<path d="M42.933 51.387C43.2373 51.357 43.5444 51.3939 43.833 51.495C44.5544 51.6957 45.2063 52.0919 45.7167 52.6399C46.227 53.1878 46.576 53.8662 46.725 54.6C46.804 54.8934 46.8183 55.2005 46.767 55.5C46.731 55.5 46.728 55.152 46.584 54.621C46.4055 53.9282 46.0569 53.2909 45.5696 52.767C45.0824 52.2431 44.4721 51.8492 43.794 51.621C43.275 51.45 42.93 51.42 42.933 51.387Z" fill="#263238"/>
<path d="M43.8 56.232C43.8 56.232 43.8 56.103 43.734 55.884C43.6492 55.5768 43.4645 55.3065 43.209 55.116C43.0024 54.9623 42.7571 54.8691 42.5006 54.8467C42.2441 54.8244 41.9864 54.8738 41.7564 54.9894C41.5263 55.105 41.3329 55.2823 41.1977 55.5014C41.0626 55.7206 40.991 55.973 40.991 56.2305C40.991 56.488 41.0626 56.7404 41.1977 56.9596C41.3329 57.1787 41.5263 57.356 41.7564 57.4716C41.9864 57.5872 42.2441 57.6366 42.5006 57.6143C42.7571 57.5919 43.0024 57.4987 43.209 57.345C43.4645 57.1545 43.6492 56.8842 43.734 56.577C43.794 56.358 43.788 56.229 43.8 56.232C43.8033 56.2619 43.8033 56.2921 43.8 56.322C43.8008 56.4109 43.7907 56.4995 43.77 56.586C43.7069 56.8599 43.5656 57.1095 43.3632 57.3044C43.1608 57.4994 42.906 57.6312 42.63 57.684C42.3559 57.7363 42.0726 57.7102 41.8126 57.6089C41.5526 57.5075 41.3264 57.335 41.16 57.111C40.9712 56.8562 40.8693 56.5476 40.8693 56.2305C40.8693 55.9134 40.9712 55.6048 41.16 55.35C41.3264 55.126 41.5526 54.9535 41.8126 54.8521C42.0726 54.7508 42.3559 54.7247 42.63 54.777C42.8563 54.8208 43.0691 54.9174 43.251 55.059C43.5133 55.2627 43.6967 55.5511 43.77 55.875C43.7905 55.9615 43.8006 56.0501 43.8 56.139C43.8032 56.1699 43.8032 56.2011 43.8 56.232Z" fill="#263238"/>
<path d="M47.121 56.232C47.121 56.232 47.121 56.103 47.058 55.884C46.9732 55.5768 46.7885 55.3066 46.533 55.116C46.3844 55.0056 46.2154 54.9258 46.0358 54.8811C45.8561 54.8364 45.6694 54.8278 45.4864 54.8557C45.3035 54.8836 45.1278 54.9475 44.9696 55.0436C44.8115 55.1398 44.674 55.2664 44.565 55.416C44.4006 55.641 44.3075 55.9102 44.2978 56.1887C44.2881 56.4672 44.3622 56.7422 44.5106 56.9781C44.6589 57.2141 44.8746 57.4 45.1298 57.512C45.385 57.6239 45.668 57.6567 45.942 57.606C46.1593 57.5696 46.3649 57.4822 46.542 57.351C46.7975 57.1605 46.9822 56.8902 47.067 56.583C47.124 56.364 47.118 56.235 47.13 56.238C47.1345 56.2678 47.1345 56.2982 47.13 56.328C47.1308 56.4169 47.1207 56.5056 47.1 56.592C47.0337 56.8634 46.8914 57.1103 46.6898 57.3037C46.4883 57.4971 46.2358 57.6291 45.9619 57.6842C45.688 57.7393 45.4041 57.7152 45.1434 57.6148C44.8827 57.5143 44.6561 57.3416 44.49 57.117C44.3012 56.8623 44.1993 56.5536 44.1993 56.2365C44.1993 55.9194 44.3012 55.6108 44.49 55.356C44.6628 55.1178 44.9047 54.9387 45.183 54.843C45.4317 54.7524 45.7004 54.7317 45.96 54.783C46.1852 54.8274 46.3969 54.924 46.578 55.065C46.841 55.2686 47.0254 55.5569 47.1 55.881C47.1205 55.9675 47.1306 56.0561 47.13 56.145C47.1309 56.1743 47.1279 56.2035 47.121 56.232Z" fill="#263238"/>
<path d="M44.247 56.277C44.247 56.304 44.127 56.328 43.983 56.328C43.839 56.328 43.719 56.304 43.719 56.277C43.719 56.25 43.839 56.226 43.983 56.226C44.127 56.226 44.247 56.247 44.247 56.277Z" fill="#263238"/>
<path d="M40.983 56.532C40.5694 56.6647 40.1461 56.765 39.717 56.832C39.2961 56.9332 38.8677 57.0004 38.436 57.033C38.8485 56.9001 39.2708 56.7998 39.699 56.733C40.1212 56.6332 40.5505 56.566 40.983 56.532Z" fill="#263238"/>
<path d="M39 58.692C38.85 58.7838 38.6729 58.8211 38.4986 58.7976C38.3243 58.7741 38.1634 58.6913 38.043 58.563C37.9274 58.4294 37.8448 58.2704 37.8021 58.0989C37.7593 57.9274 37.7576 57.7483 37.797 57.576C37.8251 57.3645 37.9323 57.1716 38.097 57.036C38.2276 56.976 38.371 56.9492 38.5144 56.9581C38.6579 56.967 38.7969 57.0113 38.919 57.087L39 58.692Z" fill="#FFBE9D"/>
<path d="M38.589 58.395C38.589 58.371 38.496 58.356 38.388 58.278C38.3198 58.2291 38.2654 58.1633 38.2302 58.087C38.1949 58.0108 38.1801 57.9267 38.187 57.843C38.1943 57.759 38.2241 57.6785 38.2732 57.6099C38.3222 57.5413 38.3888 57.4871 38.466 57.453C38.586 57.393 38.682 57.396 38.682 57.372C38.682 57.348 38.589 57.306 38.427 57.348C38.3207 57.3795 38.2262 57.442 38.1557 57.5277C38.0853 57.6133 38.0421 57.7181 38.0318 57.8285C38.0215 57.9389 38.0445 58.0499 38.0978 58.1471C38.1511 58.2444 38.2323 58.3234 38.331 58.374C38.484 58.443 38.589 58.416 38.589 58.395Z" fill="#EB996E"/>
<path d="M35.346 81.957C35.346 81.957 32.127 85.299 32.79 92.457C33.453 99.615 34.323 109.2 34.323 109.2C34.323 109.2 38.463 105.465 40.566 107.061C42.669 108.657 44.766 109.962 47.511 108.231C51.255 105.861 55.359 107.427 55.359 107.427L48.759 83.76L35.346 81.957Z" fill="#263238"/>
<path d="M39.528 82.8C39.537 83.0432 39.4909 83.2852 39.393 83.508C39.1897 84.063 38.8277 84.546 38.352 84.897C37.8738 85.2429 37.3038 85.4392 36.714 85.461C36.4722 85.4864 36.2279 85.4556 36 85.371C36 85.344 36.273 85.395 36.705 85.353C37.267 85.3036 37.8048 85.1018 38.2605 84.7693C38.7162 84.4367 39.0725 83.9861 39.291 83.466C39.462 83.076 39.501 82.8 39.528 82.8Z" fill="#455A64"/>
<path d="M36.654 82.899C36.612 82.884 36.633 82.716 36.702 82.518C36.771 82.32 36.855 82.176 36.897 82.188C36.939 82.2 36.915 82.374 36.849 82.569C36.783 82.764 36.693 82.911 36.654 82.899Z" fill="#455A64"/>
<path d="M35.943 85.722C35.9169 85.4762 35.9435 85.2277 36.021 84.993C36.0486 84.7484 36.1273 84.5123 36.252 84.3C36.2764 84.5448 36.2498 84.792 36.174 85.026C36.147 85.2717 36.0682 85.5089 35.943 85.722Z" fill="#455A64"/>
<path d="M35.574 88.611C35.5175 88.1232 35.5666 87.6291 35.718 87.162C35.7681 87.4034 35.7681 87.6526 35.718 87.894C35.7218 88.1405 35.6727 88.385 35.574 88.611Z" fill="#455A64"/>
<path d="M35.502 91.524C35.426 91.289 35.4004 91.0405 35.427 90.795C35.4005 90.5492 35.4271 90.3006 35.505 90.066C35.5807 90.3011 35.6073 90.5492 35.583 90.795C35.6091 91.041 35.5815 91.2897 35.502 91.524Z" fill="#455A64"/>
<path d="M35.682 94.434C35.5881 94.2058 35.5422 93.9607 35.547 93.714C35.5003 93.4715 35.5064 93.2219 35.565 92.982C35.66 93.2088 35.706 93.4531 35.7 93.699C35.7446 93.9426 35.7385 94.1928 35.682 94.434Z" fill="#455A64"/>
<path d="M36.051 97.326C35.9407 97.1036 35.8793 96.8601 35.871 96.612C35.8117 96.3724 35.8035 96.123 35.847 95.88C35.9552 96.1021 36.0164 96.3442 36.027 96.591C36.0844 96.8319 36.0926 97.0819 36.051 97.326Z" fill="#455A64"/>
<path d="M36.582 100.2C36.4586 99.9857 36.3829 99.7472 36.36 99.501C36.2883 99.2651 36.2658 99.0169 36.294 98.772C36.493 99.2217 36.5952 99.7082 36.594 100.2H36.582Z" fill="#455A64"/>
<path d="M37.242 103.026C37.1127 102.816 37.0289 102.581 36.996 102.336C36.913 102.103 36.8803 101.856 36.9 101.61C37.0293 101.82 37.1131 102.055 37.146 102.3C37.2291 102.532 37.2619 102.78 37.242 103.026Z" fill="#455A64"/>
<path d="M37.782 105.165C37.74 105.165 37.665 105.021 37.614 104.82C37.563 104.619 37.554 104.448 37.596 104.439C37.638 104.43 37.713 104.583 37.764 104.784C37.815 104.985 37.824 105.156 37.782 105.165Z" fill="#455A64"/>
<path d="M45.243 89.4C45.1788 89.1037 45.1387 88.8027 45.123 88.5C45.066 87.942 44.991 87.174 44.931 86.322C44.871 85.47 44.841 84.699 44.841 84.138C44.8274 83.8373 44.8415 83.5361 44.883 83.238C44.9308 83.5356 44.9539 83.8366 44.952 84.138C44.979 84.696 45.024 85.464 45.087 86.316C45.15 87.168 45.204 87.936 45.231 88.494C45.2627 88.795 45.2667 89.0982 45.243 89.4Z" fill="#455A64"/>
<path d="M45.741 83.379C45.8017 83.6855 45.8368 83.9966 45.846 84.309C45.894 84.882 45.945 85.674 45.993 86.553C46.014 86.988 46.035 87.405 46.053 87.789C46.0904 88.134 46.0525 88.483 45.942 88.812C45.8586 89.037 45.6981 89.2252 45.489 89.343C45.339 89.418 45.243 89.415 45.243 89.406C45.243 89.397 45.33 89.376 45.459 89.292C45.6371 89.163 45.7703 88.9815 45.84 88.773C45.9269 88.4557 45.9503 88.1243 45.909 87.798C45.888 87.411 45.861 86.997 45.837 86.562C45.789 85.683 45.753 84.888 45.738 84.315C45.7131 84.0034 45.7141 83.6903 45.741 83.379Z" fill="#455A64"/>
<path d="M49.464 86.28C49.2841 86.2823 49.1066 86.2389 48.948 86.154C48.5499 85.9818 48.1998 85.7151 47.928 85.377C47.656 85.0383 47.4697 84.639 47.385 84.213C47.3432 84.0385 47.3432 83.8565 47.385 83.682C47.4361 83.8484 47.4772 84.0177 47.508 84.189C47.6165 84.5864 47.8057 84.9571 48.0638 85.2781C48.3219 85.5992 48.6433 85.8636 49.008 86.055C49.1636 86.1224 49.3158 86.1975 49.464 86.28Z" fill="#455A64"/>
<path d="M55.251 105.837C55.1754 105.834 55.1001 105.825 55.026 105.81L54.381 105.711C53.586 105.593 52.7845 105.524 51.981 105.504C50.7991 105.471 49.6192 105.621 48.483 105.948C47.844 106.131 47.214 106.437 46.53 106.707C46.1806 106.845 45.8176 106.946 45.447 107.007C45.0582 107.071 44.6602 107.05 44.28 106.947C43.509 106.734 42.888 106.266 42.258 105.918C41.6502 105.584 40.9929 105.35 40.311 105.225C39.6919 105.111 39.0605 105.079 38.433 105.129C37.8872 105.182 37.3483 105.292 36.825 105.456C36.0673 105.703 35.3572 106.078 34.725 106.563C34.5511 106.692 34.3858 106.832 34.23 106.983C34.1759 107.037 34.1177 107.087 34.056 107.133C34.1008 107.071 34.1521 107.013 34.209 106.962C34.3559 106.801 34.5154 106.651 34.686 106.515C35.3111 106.005 36.0223 105.611 36.786 105.351C37.3151 105.177 37.8612 105.059 38.415 105C39.0538 104.944 39.6972 104.972 40.329 105.081C41.0288 105.206 41.7036 105.444 42.327 105.786C42.969 106.137 43.584 106.596 44.316 106.797C45.048 106.998 45.816 106.812 46.47 106.554C47.124 106.296 47.784 105.984 48.438 105.801C49.5886 105.476 50.7834 105.335 51.978 105.384C52.783 105.414 53.5849 105.5 54.378 105.642C54.657 105.693 54.873 105.735 55.02 105.771C55.0995 105.783 55.1771 105.805 55.251 105.837Z" fill="#455A64"/>
<path d="M56.901 78.957C57.618 78.801 58.983 78.24 59.001 78.057C59.058 77.715 57.801 78.117 57.45 78.186C57.099 78.255 55.227 77.916 55.227 77.916C54.768 77.661 54.327 77.394 53.961 77.178C53.7964 77.0169 53.6809 76.8125 53.6278 76.5884C53.5747 76.3644 53.5862 76.1298 53.661 75.912C53.841 75.381 53.853 74.937 53.76 74.769C53.7218 74.7151 53.6679 74.6743 53.6056 74.6522C53.5433 74.6301 53.4757 74.6277 53.4121 74.6454C53.3484 74.6631 53.2917 74.7001 53.2499 74.7512C53.208 74.8023 53.1829 74.8651 53.178 74.931C53.0982 75.2669 52.972 75.59 52.803 75.891C52.6729 76.1427 52.5015 76.3709 52.296 76.566C52.068 76.779 51.864 76.953 51.696 77.097C50.106 77.382 45.594 78.027 41.634 77.016C41.1391 76.7958 40.71 76.4504 40.389 76.014L35.934 78.696C38.001 85.254 53.034 81.018 53.034 81.018L57.153 79.623C57.153 79.623 59.445 79.062 59.445 78.867C59.457 78.558 57.762 78.945 56.901 78.957Z" fill="#FFBE9D"/>
<path d="M44.07 63.279C44.0868 63.3783 44.0868 63.4797 44.07 63.579C44.0297 63.8655 43.9447 64.1439 43.818 64.404C43.6328 64.7943 43.3547 65.1332 43.008 65.391C42.5757 65.7101 42.0441 65.8653 41.508 65.829C40.9741 65.8011 40.4663 65.5891 40.071 65.229C39.7544 64.9342 39.5127 64.568 39.366 64.161C39.2661 63.8905 39.2084 63.6061 39.195 63.318C39.1862 63.2175 39.1933 63.1163 39.216 63.018C39.2532 63.3993 39.3388 63.7744 39.471 64.134C39.6244 64.5163 39.8623 64.8589 40.167 65.136C40.5411 65.4718 41.0182 65.6706 41.52 65.7C42.0205 65.7328 42.5171 65.593 42.927 65.304C43.2595 65.0612 43.5315 64.745 43.722 64.38C43.8888 64.031 44.0059 63.6604 44.07 63.279Z" fill="#263238"/>
</svg>
