<svg width="150" height="150" viewBox="0 0 150 150" fill="none" xmlns="http://www.w3.org/2000/svg">
<path d="M76.9831 48.582C76.5751 48.168 76.1641 47.757 75.7531 47.343L75.0481 46.641C78.2761 43.317 79.9981 39.357 79.9981 34.722C79.9981 30.087 78.2821 26.127 75.0361 22.776C75.2671 22.557 75.5041 22.335 75.7351 22.107C76.1471 21.707 76.5561 21.3 76.9621 20.886C76.9708 20.8751 76.9779 20.8629 76.9831 20.85H77.0131C77.0364 20.8813 77.0614 20.9114 77.0881 20.94C77.5501 21.462 78.0301 21.969 78.4741 22.506C79.3804 23.6187 80.1546 24.8328 80.7811 26.124C81.5372 27.6419 82.0794 29.2572 82.3921 30.924C82.5391 31.716 82.6141 32.52 82.7101 33.324C82.7461 33.597 82.7521 35.367 82.7461 35.424C82.7071 35.97 82.6831 36.516 82.6231 37.059C82.4545 38.5634 82.1019 40.0415 81.5731 41.46C81.194 42.491 80.7273 43.4877 80.1781 44.439C79.6055 45.4462 78.9396 46.3974 78.1891 47.28C77.8081 47.727 77.4061 48.153 77.0131 48.588L76.9831 48.582Z" fill="#EBEBEB"/>
<path d="M71.1601 26.7L73.1011 24.744C75.2779 26.8803 76.6843 29.6785 77.1001 32.7C77.7271 37.329 76.3231 41.301 73.1341 44.67C72.4711 44.007 71.8291 43.359 71.1781 42.705C72.2339 41.6588 73.0697 40.412 73.6364 39.0379C74.2032 37.6639 74.4893 36.1903 74.4781 34.704C74.4781 31.593 73.3171 28.932 71.1601 26.7Z" fill="#EBEBEB"/>
<path d="M69.2071 40.758L67.2631 38.811C67.803 38.2735 68.2315 37.6347 68.5239 36.9312C68.8163 36.2277 68.9668 35.4733 68.9668 34.7115C68.9668 33.9496 68.8163 33.1953 68.5239 32.4918C68.2315 31.7882 67.803 31.1494 67.2631 30.612L69.2071 28.668C70.0073 29.4582 70.6426 30.3995 71.0762 31.4372C71.5098 32.4749 71.7331 33.5883 71.7331 34.713C71.7331 35.8376 71.5098 36.9511 71.0762 37.9888C70.6426 39.0264 70.0073 39.9677 69.2071 40.758Z" fill="#EBEBEB"/>
<path d="M124.44 110.583H132.384V107.226H124.44V110.583Z" fill="#EBEBEB"/>
<path d="M128.871 114.816H136.815V111.459H128.871V114.816Z" fill="#EBEBEB"/>
<path d="M120.006 114.816H127.95V111.459H120.006V114.816Z" fill="#EBEBEB"/>
<path d="M17.6161 114.816H25.5601V111.459H17.6161V114.816Z" fill="#EBEBEB"/>
<path d="M17.6161 24.228H25.5601V20.871H17.6161V24.228Z" fill="#EBEBEB"/>
<path d="M13.1851 28.4609H21.1291V25.1039H13.1851V28.4609Z" fill="#EBEBEB"/>
<path d="M128.871 24.231H136.815V20.874H128.871V24.231Z" fill="#EBEBEB"/>
<path d="M114.924 60.819H106.98V64.176H114.924V60.819Z" fill="#EBEBEB"/>
<path d="M110.493 56.5859H102.549V59.9429H110.493V56.5859Z" fill="#EBEBEB"/>
<path d="M11.835 131.565L27.627 131.493L43.419 131.466L75 131.415L106.581 131.466L122.373 131.493L138.165 131.565L122.373 131.64L106.581 131.664L75 131.715L43.419 131.664L27.627 131.64L11.835 131.565Z" fill="black"/>
<path d="M63.303 24.162H19.821V91.191H63.303V24.162Z" fill="#37474F"/>
<path d="M60 24.162L53.784 91.191H29.337L23.121 24.162H60Z" fill="#455A64"/>
<path d="M45.039 83.994H38.088V86.592H45.039V83.994Z" fill="#A6A6A6"/>
<path d="M33.453 83.994H26.502V86.592H33.453V83.994Z" fill="#3D72E0"/>
<path d="M56.6221 83.994H49.6711V86.592H56.6221V83.994Z" fill="#A6A6A6"/>
<path d="M34.827 31.512H33.93V39.639H34.827V31.512Z" fill="#37474F"/>
<path d="M36.6241 31.512H35.7271V39.639H36.6241V31.512Z" fill="#37474F"/>
<path d="M38.418 31.512H37.521V39.639H38.418V31.512Z" fill="#37474F"/>
<path d="M40.215 31.512H39.318V39.639H40.215V31.512Z" fill="#37474F"/>
<path d="M42.009 31.512H41.112V39.639H42.009V31.512Z" fill="#37474F"/>
<path d="M43.806 31.512H42.909V39.639H43.806V31.512Z" fill="#37474F"/>
<path d="M45.6001 31.512H44.703V39.639H45.6001V31.512Z" fill="#37474F"/>
<path d="M47.397 31.512H46.5V39.639H47.397V31.512Z" fill="#37474F"/>
<path d="M49.194 31.512H48.297V39.639H49.194V31.512Z" fill="#37474F"/>
<path d="M42.717 50.256V138.534H100.917V50.256H42.717ZM78.693 56.58H64.944V54.114H78.693V56.58Z" fill="#EBEBEB"/>
<path d="M100.92 73.422V138.534H42.717V106.719L100.92 73.422Z" fill="#3D72E0"/>
<path opacity="0.1" d="M100.92 73.422V138.534H42.717V106.719L100.92 73.422Z" fill="black"/>
<path d="M100.92 62.76V69.249L42.717 102.507V102.294L100.92 62.76Z" fill="#3D72E0"/>
<path d="M92.0941 62.553H51.5461V111.054H92.0941V62.553Z" fill="white"/>
<path d="M68.1 54.114H70.341C70.341 54.114 70.464 55.398 71.481 55.59C72.498 55.782 74.049 54.972 75.381 52.38C76.713 49.788 75.96 47.439 75.657 47.307C75.354 47.175 72.858 47.727 71.196 50.256H68.568C69.1967 49.0605 70.0397 47.9907 71.055 47.1C72.855 45.465 74.475 44.889 75.186 44.823L76.857 42.96L79.728 45.36L81.096 45.555L79.377 48.231C79.3735 49.0002 79.2921 49.7671 79.134 50.52C78.6651 51.9553 77.966 53.3049 77.064 54.516C76.227 55.569 74.823 57.168 72.327 57.12C69.831 57.072 68.586 55.59 68.1 54.114Z" fill="#455A64"/>
<path d="M76.857 42.96L79.728 45.357L81.096 45.552L78.198 43.104L76.857 42.96Z" fill="black"/>
<path d="M75.657 47.3071C75.357 47.1721 72.858 47.7271 71.196 50.2561H70.383C72.717 47.0131 75.318 46.8901 75.657 47.3071Z" fill="#37474F"/>
<path d="M71.481 55.59C71.481 55.59 70.209 55.842 69.681 54.114H70.353C70.353 54.114 70.47 55.335 71.421 55.572L71.481 55.59Z" fill="#37474F"/>
<path d="M81.096 45.5521L79.374 48.2281C79.3705 48.9962 79.2902 49.762 79.134 50.5141C78.894 51.4861 77.898 53.4571 77.064 54.5131C76.23 55.5691 74.823 57.1621 72.327 57.1171C71.9537 57.1128 71.5818 57.0706 71.217 56.9911H71.262C74.142 57.4081 75.906 55.4911 77.31 52.9951C78.621 50.6671 78.24 47.7751 78.24 47.7751L79.74 45.3511L81.096 45.5521Z" fill="#37474F"/>
<path d="M81.2421 44.9037L77.8875 42.2344L77.3738 42.8799L80.7284 45.5492L81.2421 44.9037Z" fill="#455A64"/>
<path d="M89.355 40.245C88.653 39.714 82.041 35.472 80.322 34.41C78.603 33.348 77.268 32.496 76.446 33.462C75.624 34.428 75.27 36.684 75.705 37.641C76.14 38.598 78.021 41.7 78.063 42C78.0732 42.0875 78.0633 42.1761 78.0342 42.2593C78.0051 42.3424 77.9575 42.4179 77.895 42.48L80.952 44.985C81.0712 44.8031 81.2491 44.6676 81.456 44.601C81.756 44.541 86.814 44.814 87.321 44.79C87.9532 44.8079 88.58 44.6694 89.1457 44.3867C89.7115 44.1041 90.1987 43.6862 90.564 43.17C91.68 41.553 90.057 40.779 89.355 40.245ZM86.826 43.2C85.326 43.179 82.776 42.834 80.853 41.559C79.839 40.884 77.184 38.427 76.953 36.648C76.9211 36.0346 77.0782 35.4262 77.403 34.905C77.682 34.407 79.278 35.559 80.574 36.405C81.87 37.251 87.537 41.043 87.975 41.346C88.413 41.649 89.115 42.042 89.076 42.282C89.037 42.522 88.314 43.215 86.826 43.2Z" fill="#455A64"/>
<path d="M83.1644 41.9925L79.9921 39.9095L79.3598 40.8725L82.5321 42.9555L83.1644 41.9925Z" fill="#455A64"/>
<path d="M90.564 43.152C90.1986 43.6685 89.7116 44.0871 89.1459 44.3707C88.5803 44.6543 87.9536 44.7942 87.321 44.778C86.814 44.799 81.747 44.526 81.456 44.589C81.2485 44.6528 81.0701 44.7877 80.952 44.97L79.881 44.1C79.941 44.1 80.319 43.626 80.676 43.602C81.033 43.578 86.484 44.412 87.819 44.412C89.154 44.412 90.255 43.212 90.579 42.384C90.945 41.445 89.439 40.341 89.361 40.26C90.063 40.782 91.68 41.556 90.564 43.152Z" fill="#37474F"/>
<path d="M60.042 116.622H58.95L58.728 117.207C58.7094 117.254 58.6772 117.294 58.6355 117.322C58.5937 117.351 58.5445 117.366 58.494 117.366C58.4654 117.366 58.437 117.361 58.41 117.351C58.3476 117.327 58.2969 117.28 58.2689 117.22C58.2408 117.159 58.2377 117.09 58.26 117.027L59.256 114.378C59.2755 114.331 59.3086 114.29 59.3511 114.262C59.3935 114.234 59.4435 114.218 59.4945 114.218C59.5456 114.218 59.5956 114.234 59.638 114.262C59.6805 114.29 59.7136 114.331 59.733 114.378L60.726 117.027C60.7486 117.089 60.7458 117.158 60.7184 117.219C60.6909 117.279 60.6409 117.327 60.579 117.351C60.5512 117.361 60.5217 117.366 60.492 117.366C60.4423 117.366 60.3938 117.351 60.3531 117.322C60.3123 117.294 60.2812 117.254 60.264 117.207L60.042 116.622ZM59.859 116.127L59.493 115.161L59.13 116.127H59.859Z" fill="black"/>
<path d="M61.839 117.117C61.8383 117.182 61.8127 117.244 61.7674 117.29C61.7222 117.337 61.6608 117.364 61.596 117.366C61.53 117.366 61.4667 117.34 61.42 117.293C61.3733 117.246 61.347 117.183 61.347 117.117V114.498C61.3462 114.458 61.3547 114.419 61.3719 114.383C61.3891 114.347 61.4145 114.315 61.446 114.291C61.4989 114.254 61.5641 114.239 61.628 114.249C61.6918 114.259 61.7492 114.293 61.788 114.345L63.243 116.358V114.504C63.243 114.44 63.2686 114.378 63.3142 114.332C63.3598 114.287 63.4216 114.261 63.486 114.261C63.5508 114.261 63.6129 114.287 63.6589 114.332C63.705 114.378 63.7312 114.439 63.732 114.504V117.117C63.732 117.183 63.7062 117.245 63.6602 117.292C63.6141 117.339 63.5516 117.365 63.486 117.366C63.4504 117.365 63.4152 117.357 63.3831 117.342C63.351 117.326 63.3227 117.304 63.3 117.276C63.2913 117.269 63.2841 117.259 63.279 117.249L61.839 115.251V117.117Z" fill="black"/>
<path d="M65.16 117.117C65.1593 117.182 65.1337 117.244 65.0884 117.29C65.0432 117.337 64.9818 117.364 64.917 117.366C64.851 117.366 64.7877 117.34 64.741 117.293C64.6943 117.246 64.668 117.183 64.668 117.117V114.498C64.6672 114.458 64.6757 114.419 64.6929 114.383C64.7101 114.347 64.7355 114.315 64.767 114.291C64.8199 114.254 64.8851 114.239 64.949 114.249C65.0128 114.259 65.0702 114.293 65.109 114.345L66.564 116.358V114.504C66.564 114.44 66.5896 114.378 66.6352 114.332C66.6808 114.287 66.7426 114.261 66.807 114.261C66.8718 114.261 66.9339 114.287 66.9799 114.332C67.026 114.378 67.0522 114.439 67.053 114.504V117.117C67.053 117.183 67.0272 117.245 66.9812 117.292C66.9351 117.339 66.8726 117.365 66.807 117.366C66.7714 117.365 66.7362 117.357 66.7041 117.342C66.672 117.326 66.6437 117.304 66.621 117.276C66.6123 117.269 66.6051 117.259 66.6 117.249L65.16 115.251V117.117Z" fill="black"/>
<path d="M67.842 117.117V114.462C67.8416 114.43 67.8477 114.397 67.8599 114.367C67.8722 114.337 67.8903 114.31 67.9132 114.287C67.9361 114.264 67.9634 114.246 67.9934 114.234C68.0235 114.222 68.0556 114.216 68.088 114.216H69.561C69.626 114.217 69.6882 114.243 69.7341 114.289C69.7801 114.335 69.8063 114.397 69.807 114.462C69.8071 114.528 69.7813 114.591 69.7354 114.638C69.6894 114.685 69.6268 114.713 69.561 114.714H68.34V115.539H69.39C69.4548 115.541 69.5165 115.567 69.5623 115.613C69.6081 115.659 69.6345 115.72 69.636 115.785C69.6364 115.818 69.6304 115.85 69.6182 115.881C69.6061 115.911 69.5881 115.939 69.5652 115.962C69.5424 115.985 69.5152 116.004 69.4851 116.017C69.455 116.03 69.4227 116.037 69.39 116.037H68.34V116.865H69.561C69.6228 116.872 69.6798 116.901 69.7212 116.947C69.7627 116.994 69.7856 117.054 69.7856 117.116C69.7856 117.178 69.7627 117.238 69.7212 117.284C69.6798 117.33 69.6228 117.359 69.561 117.366H68.1C68.0666 117.367 68.0332 117.362 68.002 117.35C67.9707 117.338 67.9422 117.32 67.9181 117.296C67.894 117.273 67.8749 117.245 67.8618 117.214C67.8487 117.184 67.842 117.151 67.842 117.117Z" fill="black"/>
<path d="M71.76 116.583C71.7998 116.535 71.8566 116.505 71.9183 116.499C71.98 116.493 72.0417 116.511 72.09 116.55C72.3314 116.755 72.6322 116.877 72.948 116.898C73.1489 116.901 73.3458 116.843 73.512 116.73C73.5681 116.696 73.6149 116.648 73.6483 116.592C73.6818 116.535 73.7009 116.472 73.704 116.406C73.7055 116.355 73.6919 116.305 73.665 116.262C73.6304 116.208 73.5844 116.162 73.53 116.127C73.3386 116.02 73.1291 115.949 72.912 115.917C72.7126 115.882 72.5182 115.822 72.333 115.74C72.162 115.666 72.0161 115.544 71.913 115.389C71.8455 115.278 71.8102 115.15 71.811 115.02C71.8154 114.89 71.8503 114.763 71.9128 114.649C71.9753 114.535 72.0638 114.437 72.171 114.363C72.3989 114.205 72.6706 114.122 72.948 114.126C73.3041 114.143 73.6465 114.269 73.929 114.486C73.9542 114.503 73.9758 114.524 73.9926 114.549C74.0094 114.574 74.021 114.602 74.0269 114.632C74.0328 114.661 74.0327 114.692 74.0267 114.721C74.0207 114.751 74.0089 114.779 73.992 114.804C73.9762 114.83 73.9552 114.852 73.9304 114.87C73.9056 114.888 73.8775 114.9 73.8478 114.907C73.8181 114.913 73.7874 114.913 73.7575 114.908C73.7276 114.902 73.6992 114.89 73.674 114.873C73.4684 114.701 73.215 114.596 72.948 114.573C72.7682 114.571 72.5921 114.624 72.444 114.726C72.3953 114.756 72.3544 114.797 72.3247 114.846C72.2949 114.895 72.2773 114.951 72.273 115.008C72.2702 115.052 72.2818 115.097 72.306 115.134C72.3374 115.181 72.3783 115.221 72.426 115.251C72.5995 115.353 72.791 115.42 72.99 115.449C73.2038 115.487 73.4122 115.551 73.611 115.638C73.7932 115.718 73.9492 115.848 74.061 116.013C74.1309 116.128 74.1683 116.26 74.169 116.394C74.1648 116.533 74.1275 116.669 74.0602 116.79C73.9929 116.912 73.8975 117.016 73.782 117.093C73.538 117.264 73.246 117.353 72.948 117.348C72.525 117.329 72.1201 117.171 71.796 116.898C71.7528 116.859 71.7253 116.805 71.7186 116.747C71.712 116.689 71.7267 116.631 71.76 116.583Z" fill="black"/>
<path d="M77.571 114.462V117.117C77.5695 117.183 77.5424 117.246 77.4953 117.292C77.4483 117.339 77.3851 117.365 77.319 117.366C77.253 117.366 77.1897 117.34 77.143 117.293C77.0963 117.246 77.07 117.183 77.07 117.117V115.224L76.422 116.124C76.3993 116.156 76.3691 116.182 76.3341 116.2C76.2991 116.218 76.2603 116.227 76.221 116.226C76.181 116.227 76.1413 116.218 76.1053 116.2C76.0694 116.182 76.0381 116.156 76.014 116.124L75.369 115.224V117.117C75.369 117.183 75.3428 117.246 75.2961 117.293C75.2494 117.34 75.1861 117.366 75.12 117.366C75.054 117.366 74.9907 117.34 74.944 117.293C74.8973 117.246 74.871 117.183 74.871 117.117V114.462C74.871 114.397 74.897 114.334 74.9431 114.288C74.9892 114.242 75.0518 114.216 75.117 114.216C75.1557 114.216 75.1938 114.226 75.2283 114.243C75.2627 114.261 75.2924 114.287 75.315 114.318L76.215 115.56L77.115 114.318C77.1378 114.286 77.168 114.26 77.203 114.242C77.238 114.225 77.2768 114.216 77.316 114.216C77.3821 114.216 77.4457 114.242 77.4932 114.288C77.5408 114.333 77.5687 114.396 77.571 114.462Z" fill="black"/>
<path d="M78.69 114.462C78.6896 114.429 78.6958 114.397 78.7082 114.367C78.7206 114.336 78.739 114.309 78.7622 114.286C78.7855 114.263 78.8131 114.245 78.8435 114.233C78.8739 114.221 78.9064 114.215 78.939 114.216C78.9717 114.216 79.0042 114.222 79.0346 114.234C79.0649 114.246 79.0926 114.264 79.116 114.287C79.1394 114.31 79.1581 114.337 79.1709 114.367C79.1838 114.397 79.1906 114.429 79.191 114.462V117.117C79.1903 117.183 79.1634 117.247 79.1162 117.293C79.069 117.34 79.0054 117.366 78.939 117.366C78.9062 117.366 78.8737 117.36 78.8433 117.348C78.8129 117.336 78.7853 117.317 78.7621 117.294C78.7389 117.271 78.7205 117.243 78.7082 117.213C78.6958 117.182 78.6896 117.15 78.69 117.117V114.462Z" fill="black"/>
<path d="M81.957 114.714H81.243V117.114C81.2469 117.149 81.2433 117.184 81.2327 117.217C81.222 117.251 81.2044 117.281 81.181 117.307C81.1577 117.334 81.1291 117.354 81.0971 117.369C81.0652 117.383 81.0305 117.39 80.9955 117.39C80.9605 117.39 80.9259 117.383 80.894 117.369C80.862 117.354 80.8334 117.334 80.8101 117.307C80.7867 117.281 80.7691 117.251 80.7584 117.217C80.7478 117.184 80.7442 117.149 80.748 117.114V114.714H80.037C79.9707 114.713 79.9074 114.686 79.8608 114.639C79.8142 114.592 79.788 114.528 79.788 114.462C79.7876 114.429 79.7938 114.397 79.8062 114.367C79.8186 114.336 79.837 114.309 79.8602 114.286C79.8835 114.263 79.9111 114.245 79.9415 114.233C79.9719 114.221 80.0044 114.215 80.037 114.216H81.957C82.0226 114.216 82.0854 114.242 82.1321 114.288C82.1787 114.334 82.2053 114.397 82.206 114.462C82.2053 114.528 82.1789 114.591 82.1325 114.638C82.086 114.685 82.0231 114.712 81.957 114.714Z" fill="black"/>
<path d="M82.947 117.117V114.462C82.9466 114.429 82.9528 114.397 82.9652 114.367C82.9776 114.336 82.996 114.309 83.0192 114.286C83.0425 114.263 83.0701 114.245 83.1005 114.233C83.1309 114.221 83.1634 114.215 83.196 114.216C83.2287 114.216 83.2612 114.222 83.2916 114.234C83.3219 114.246 83.3496 114.264 83.373 114.287C83.3964 114.31 83.4151 114.337 83.428 114.367C83.4408 114.397 83.4477 114.429 83.448 114.462V115.542H84.6V114.462C84.5996 114.429 84.6058 114.397 84.6182 114.367C84.6306 114.336 84.649 114.309 84.6722 114.286C84.6955 114.263 84.7231 114.245 84.7535 114.233C84.7839 114.221 84.8164 114.215 84.849 114.216C84.8817 114.216 84.9142 114.222 84.9446 114.234C84.9749 114.246 85.0026 114.264 85.026 114.287C85.0494 114.31 85.0681 114.337 85.0809 114.367C85.0938 114.397 85.1007 114.429 85.101 114.462V117.117C85.1011 117.15 85.0945 117.183 85.0818 117.213C85.0691 117.243 85.0505 117.271 85.0271 117.294C85.0036 117.317 84.9758 117.336 84.9453 117.348C84.9147 117.36 84.882 117.366 84.849 117.366C84.8162 117.366 84.7837 117.36 84.7533 117.348C84.7229 117.336 84.6953 117.317 84.6721 117.294C84.6489 117.271 84.6306 117.243 84.6182 117.213C84.6058 117.182 84.5996 117.15 84.6 117.117V116.037H83.436V117.117C83.436 117.15 83.4295 117.183 83.4168 117.213C83.4041 117.243 83.3855 117.271 83.3621 117.294C83.3386 117.317 83.3108 117.336 83.2803 117.348C83.2497 117.36 83.217 117.366 83.184 117.366C83.1199 117.364 83.0591 117.336 83.0148 117.29C82.9706 117.243 82.9462 117.181 82.947 117.117Z" fill="black"/>
<path d="M58.137 123.936C58.1366 123.916 58.1402 123.897 58.1474 123.879C58.1546 123.861 58.1653 123.844 58.179 123.83C58.1927 123.816 58.2091 123.805 58.2271 123.797C58.2451 123.79 58.2645 123.786 58.284 123.786C58.3241 123.786 58.3626 123.802 58.3912 123.83C58.4198 123.858 58.4363 123.896 58.437 123.936V125.529C58.4367 125.549 58.4324 125.568 58.4245 125.586C58.4166 125.604 58.4052 125.621 58.391 125.634C58.3768 125.648 58.36 125.659 58.3417 125.666C58.3233 125.673 58.3037 125.676 58.284 125.676C58.2646 125.676 58.2453 125.673 58.2273 125.666C58.2093 125.658 58.1929 125.648 58.1792 125.634C58.1655 125.62 58.1546 125.604 58.1474 125.586C58.1402 125.568 58.1366 125.548 58.137 125.529V123.936Z" fill="black"/>
<path d="M58.941 125.529V123.936C58.9406 123.916 58.9442 123.897 58.9514 123.879C58.9586 123.861 58.9693 123.844 58.983 123.83C58.9967 123.816 59.0131 123.805 59.0311 123.797C59.0491 123.79 59.0685 123.786 59.088 123.786H59.4C59.6507 123.786 59.891 123.886 60.0683 124.063C60.2455 124.24 60.345 124.48 60.345 124.731C60.345 124.982 60.2455 125.222 60.0683 125.399C59.891 125.576 59.6507 125.676 59.4 125.676H59.1C59.0797 125.678 59.059 125.676 59.0396 125.669C59.0201 125.663 59.0023 125.652 58.9872 125.639C58.9722 125.625 58.9603 125.608 58.9523 125.589C58.9443 125.57 58.9405 125.55 58.941 125.529ZM59.241 125.376H59.4C59.5711 125.376 59.7352 125.308 59.8561 125.187C59.9771 125.066 60.045 124.902 60.045 124.731C60.045 124.56 59.9771 124.396 59.8561 124.275C59.7352 124.154 59.5711 124.086 59.4 124.086H59.232L59.241 125.376Z" fill="black"/>
<path d="M61.989 125.529C61.9883 125.568 61.9725 125.605 61.9451 125.632C61.9177 125.66 61.8808 125.675 61.842 125.676C61.8226 125.676 61.8033 125.673 61.7853 125.666C61.7673 125.658 61.7509 125.648 61.7372 125.634C61.7235 125.62 61.7126 125.604 61.7054 125.586C61.6982 125.568 61.6946 125.548 61.695 125.529V123.96C61.6935 123.936 61.6982 123.912 61.7087 123.891C61.7192 123.869 61.7352 123.851 61.755 123.837C61.7862 123.814 61.825 123.805 61.8632 123.81C61.9013 123.816 61.9358 123.836 61.959 123.867L62.832 125.067V123.96C62.832 123.922 62.8471 123.885 62.874 123.857C62.901 123.83 62.9376 123.814 62.976 123.813C63.0151 123.814 63.0524 123.829 63.0802 123.857C63.1081 123.884 63.1245 123.921 63.126 123.96V125.529C63.1253 125.568 63.1091 125.606 63.0811 125.633C63.053 125.661 63.0153 125.676 62.976 125.676C62.9547 125.676 62.9338 125.671 62.9146 125.661C62.8954 125.652 62.8785 125.639 62.865 125.622V125.607L62.001 124.407L61.989 125.529Z" fill="black"/>
<path d="M63.867 125.481C63.7462 125.352 63.6796 125.181 63.681 125.004C63.6823 124.829 63.7486 124.661 63.867 124.533C63.9259 124.468 63.9976 124.416 64.0777 124.381C64.1578 124.345 64.2444 124.326 64.332 124.326C64.4177 124.325 64.5024 124.344 64.5802 124.379C64.6579 124.415 64.7269 124.468 64.782 124.533C64.9058 124.658 64.9749 124.828 64.974 125.004C64.9758 125.092 64.9596 125.18 64.9266 125.262C64.8937 125.344 64.8445 125.419 64.782 125.481C64.7258 125.545 64.6566 125.596 64.579 125.632C64.5014 125.667 64.4172 125.685 64.332 125.685C64.2447 125.685 64.1583 125.667 64.0783 125.631C63.9983 125.596 63.9264 125.545 63.867 125.481ZM63.975 125.004C63.9699 125.113 64.0051 125.22 64.074 125.304C64.144 125.369 64.2365 125.405 64.332 125.403C64.4246 125.403 64.5137 125.368 64.581 125.304C64.6532 125.221 64.6907 125.114 64.686 125.004C64.6878 124.901 64.6502 124.801 64.581 124.725C64.5137 124.661 64.4251 124.623 64.332 124.62C64.236 124.622 64.144 124.659 64.074 124.725C64.008 124.803 63.9728 124.902 63.975 125.004Z" fill="black"/>
<path d="M65.547 125.295C65.5734 125.295 65.5996 125.3 65.624 125.31C65.6483 125.32 65.6705 125.335 65.6892 125.354C65.7078 125.373 65.7226 125.395 65.7327 125.419C65.7428 125.444 65.748 125.47 65.748 125.496C65.748 125.522 65.7428 125.549 65.7327 125.573C65.7226 125.597 65.7078 125.62 65.6892 125.638C65.6705 125.657 65.6483 125.672 65.624 125.682C65.5996 125.692 65.5734 125.697 65.547 125.697C65.5206 125.697 65.4945 125.692 65.4701 125.682C65.4457 125.672 65.4236 125.657 65.4049 125.638C65.3862 125.62 65.3714 125.597 65.3613 125.573C65.3512 125.549 65.346 125.522 65.346 125.496C65.346 125.47 65.3512 125.444 65.3613 125.419C65.3714 125.395 65.3862 125.373 65.4049 125.354C65.4236 125.335 65.4457 125.32 65.4701 125.31C65.4945 125.3 65.5206 125.295 65.547 125.295Z" fill="black"/>
<path d="M67.293 123.936V125.529C67.293 125.549 67.2891 125.568 67.2816 125.586C67.274 125.604 67.2629 125.62 67.2489 125.634C67.235 125.648 67.2184 125.658 67.2002 125.666C67.182 125.673 67.1626 125.676 67.143 125.676C67.1235 125.676 67.104 125.673 67.0859 125.666C67.0677 125.658 67.0511 125.648 67.0371 125.634C67.0232 125.62 67.0121 125.604 67.0045 125.586C66.9969 125.568 66.993 125.549 66.993 125.529V124.2L66.885 124.263C66.8684 124.273 66.8499 124.28 66.8306 124.282C66.8114 124.285 66.7918 124.284 66.773 124.279C66.7542 124.274 66.7366 124.265 66.7214 124.253C66.7061 124.241 66.6934 124.226 66.684 124.209C66.6736 124.193 66.6666 124.174 66.6634 124.155C66.6602 124.136 66.6608 124.116 66.6653 124.097C66.6698 124.078 66.678 124.06 66.6894 124.044C66.7009 124.028 66.7154 124.015 66.732 124.005L67.065 123.807H67.152C67.152 123.807 67.152 123.807 67.167 123.807H67.182C67.182 123.807 67.182 123.807 67.182 123.822C67.1806 123.828 67.1806 123.834 67.182 123.84L67.293 123.936Z" fill="black"/>
<path d="M68.859 125.529C68.859 125.549 68.8552 125.568 68.8476 125.586C68.84 125.604 68.8289 125.62 68.8149 125.634C68.801 125.648 68.7844 125.659 68.7662 125.666C68.748 125.673 68.7286 125.676 68.709 125.676H67.749C67.7281 125.677 67.7073 125.673 67.6881 125.665C67.6689 125.656 67.6518 125.644 67.638 125.628C67.6106 125.6 67.5952 125.562 67.5952 125.523C67.5952 125.484 67.6106 125.446 67.638 125.418L68.439 124.695C68.4878 124.647 68.5213 124.585 68.5354 124.518C68.5494 124.451 68.5435 124.381 68.5183 124.317C68.493 124.253 68.4496 124.198 68.3934 124.159C68.3372 124.119 68.2707 124.097 68.202 124.095C68.1157 124.096 68.0326 124.128 67.968 124.185L67.884 124.26C67.8706 124.274 67.8543 124.286 67.8363 124.294C67.8182 124.301 67.7987 124.305 67.779 124.305C67.7594 124.305 67.7399 124.301 67.7218 124.294C67.7038 124.286 67.6875 124.274 67.674 124.26C67.6601 124.246 67.649 124.23 67.6414 124.212C67.6338 124.194 67.6299 124.175 67.6299 124.155C67.6299 124.135 67.6338 124.116 67.6414 124.098C67.649 124.08 67.6601 124.064 67.674 124.05L67.758 123.975C67.8753 123.866 68.0299 123.806 68.19 123.807C68.2808 123.808 68.3705 123.827 68.4535 123.864C68.5366 123.9 68.6113 123.953 68.673 124.02C68.7303 124.083 68.7746 124.157 68.8032 124.237C68.8318 124.317 68.8442 124.402 68.8398 124.488C68.8353 124.573 68.814 124.656 68.7772 124.733C68.7403 124.81 68.6886 124.878 68.625 124.935L68.115 125.397H68.7C68.7384 125.394 68.7763 125.407 68.8059 125.431C68.8355 125.456 68.8545 125.491 68.859 125.529Z" fill="black"/>
<path d="M70.593 125.175C70.593 125.195 70.5892 125.214 70.5816 125.232C70.574 125.25 70.5629 125.266 70.5489 125.28C70.535 125.294 70.5184 125.304 70.5002 125.312C70.482 125.319 70.4626 125.322 70.443 125.322H70.416V125.529C70.4161 125.549 70.4121 125.568 70.4046 125.586C70.397 125.604 70.3859 125.62 70.3719 125.634C70.358 125.648 70.3414 125.658 70.3232 125.666C70.305 125.673 70.2856 125.676 70.266 125.676C70.2466 125.676 70.2273 125.673 70.2093 125.666C70.1913 125.658 70.1749 125.648 70.1612 125.634C70.1475 125.62 70.1366 125.604 70.1294 125.586C70.1222 125.568 70.1186 125.548 70.119 125.529V125.322H69.267C69.2343 125.324 69.202 125.313 69.177 125.292C69.161 125.28 69.1476 125.265 69.1377 125.248C69.1277 125.231 69.1214 125.212 69.1192 125.192C69.1169 125.172 69.1187 125.153 69.1246 125.134C69.1304 125.115 69.1401 125.097 69.153 125.082L70.152 123.84H70.167H70.2H70.218H70.287V123.855V123.873C70.2885 123.878 70.2885 123.883 70.287 123.888V124.986H70.314C70.3391 124.949 70.3778 124.923 70.4217 124.915C70.4656 124.907 70.511 124.916 70.548 124.941C70.585 124.966 70.6106 125.005 70.619 125.049C70.6274 125.093 70.6181 125.138 70.593 125.175ZM70.119 124.359L69.582 125.025H70.119V124.359Z" fill="black"/>
<path d="M71.937 124.533C72.0005 124.594 72.0507 124.668 72.0848 124.75C72.1188 124.831 72.1359 124.919 72.135 125.007C72.1349 125.095 72.1173 125.182 72.0834 125.264C72.0494 125.345 71.9996 125.419 71.937 125.481C71.8756 125.543 71.8022 125.593 71.7213 125.626C71.6404 125.66 71.5536 125.677 71.466 125.676C71.3785 125.677 71.2917 125.66 71.2109 125.626C71.13 125.593 71.0566 125.543 70.995 125.481C70.9795 125.467 70.9669 125.45 70.958 125.431C70.9492 125.413 70.9444 125.392 70.9437 125.371C70.9431 125.35 70.9468 125.33 70.9545 125.31C70.9622 125.291 70.9737 125.273 70.9885 125.258C71.0032 125.244 71.0208 125.232 71.0402 125.224C71.0596 125.217 71.0803 125.213 71.1012 125.214C71.122 125.214 71.1425 125.219 71.1614 125.228C71.1803 125.237 71.1972 125.249 71.211 125.265C71.2452 125.299 71.2859 125.327 71.3307 125.345C71.3755 125.364 71.4236 125.373 71.472 125.373C71.5196 125.373 71.5667 125.363 71.6104 125.345C71.6542 125.326 71.6939 125.299 71.727 125.265C71.7612 125.231 71.7884 125.191 71.8069 125.147C71.8254 125.103 71.835 125.055 71.835 125.007C71.8362 124.959 71.8272 124.911 71.8086 124.867C71.79 124.822 71.7622 124.782 71.727 124.749C71.6943 124.715 71.6546 124.688 71.6107 124.669C71.5668 124.651 71.5195 124.643 71.472 124.644C71.4237 124.643 71.3756 124.651 71.3307 124.67C71.2858 124.688 71.2451 124.715 71.211 124.749C71.1824 124.778 71.1435 124.794 71.103 124.794C71.0626 124.794 71.0237 124.778 70.995 124.749L70.968 124.713C70.9686 124.707 70.9686 124.701 70.968 124.695C70.965 124.679 70.965 124.663 70.968 124.647L71.049 123.948C71.0569 123.904 71.0817 123.866 71.118 123.84C71.139 123.828 71.1628 123.822 71.187 123.822H71.985C72.0197 123.829 72.0509 123.848 72.0733 123.875C72.0957 123.902 72.1079 123.937 72.1079 123.972C72.1079 124.007 72.0957 124.042 72.0733 124.069C72.0509 124.096 72.0197 124.115 71.985 124.122H71.319L71.289 124.389C71.3478 124.374 71.4083 124.365 71.469 124.365C71.641 124.358 71.8091 124.418 71.937 124.533Z" fill="black"/>
<path d="M73.572 124.533C73.6349 124.595 73.6848 124.669 73.7188 124.75C73.7528 124.831 73.7702 124.919 73.77 125.007C73.7685 125.185 73.6974 125.355 73.572 125.481C73.51 125.543 73.4362 125.593 73.3547 125.626C73.2733 125.66 73.1861 125.677 73.098 125.676C73.0105 125.677 72.9237 125.66 72.8428 125.626C72.7619 125.593 72.6885 125.543 72.627 125.481C72.6121 125.467 72.6002 125.451 72.5921 125.432C72.584 125.413 72.5798 125.393 72.5798 125.373C72.5798 125.353 72.584 125.333 72.5921 125.314C72.6002 125.295 72.6121 125.279 72.627 125.265C72.6557 125.236 72.6946 125.22 72.735 125.22C72.7755 125.22 72.8144 125.236 72.843 125.265C72.8765 125.3 72.9166 125.327 72.9609 125.346C73.0053 125.364 73.053 125.373 73.101 125.373C73.1491 125.373 73.1967 125.364 73.241 125.345C73.2853 125.327 73.3254 125.299 73.359 125.265C73.4267 125.196 73.4654 125.104 73.467 125.007C73.4675 124.959 73.4582 124.911 73.4396 124.867C73.421 124.822 73.3936 124.782 73.359 124.749C73.3259 124.714 73.2858 124.687 73.2413 124.669C73.1969 124.651 73.149 124.642 73.101 124.644C73.0531 124.643 73.0055 124.651 72.9611 124.67C72.9167 124.688 72.8765 124.715 72.843 124.749C72.8144 124.778 72.7755 124.794 72.735 124.794C72.6946 124.794 72.6557 124.778 72.627 124.749L72.597 124.713C72.5976 124.707 72.5976 124.701 72.597 124.695C72.594 124.679 72.594 124.663 72.597 124.647L72.678 123.948C72.6807 123.926 72.688 123.905 72.6994 123.887C72.7107 123.868 72.726 123.852 72.744 123.84C72.7662 123.828 72.7909 123.822 72.816 123.822H73.611C73.6333 123.818 73.6562 123.818 73.6781 123.823C73.7001 123.829 73.7206 123.839 73.7381 123.854C73.7557 123.868 73.7698 123.886 73.7795 123.906C73.7892 123.927 73.7942 123.949 73.7942 123.972C73.7942 123.995 73.7892 124.017 73.7795 124.037C73.7698 124.058 73.7557 124.076 73.7381 124.09C73.7206 124.105 73.7001 124.115 73.6781 124.12C73.6562 124.126 73.6333 124.126 73.611 124.122H72.948L72.915 124.389C72.9739 124.374 73.0343 124.366 73.095 124.365C73.27 124.356 73.4415 124.416 73.572 124.533Z" fill="black"/>
<path d="M75.474 125.034C75.475 125.147 75.4467 125.257 75.3919 125.356C75.3371 125.454 75.2576 125.536 75.1614 125.594C75.0651 125.652 74.9553 125.685 74.8429 125.688C74.7304 125.69 74.6191 125.664 74.52 125.611C74.4208 125.558 74.3372 125.48 74.2774 125.384C74.2175 125.289 74.1835 125.18 74.1787 125.068C74.1738 124.955 74.1983 124.844 74.2498 124.743C74.3012 124.643 74.3778 124.558 74.472 124.497C74.4133 124.42 74.3816 124.327 74.382 124.23C74.382 124.111 74.4295 123.996 74.5138 123.912C74.5982 123.827 74.7127 123.78 74.832 123.78C74.9514 123.78 75.0658 123.827 75.1502 123.912C75.2346 123.996 75.282 124.111 75.282 124.23C75.2825 124.327 75.2508 124.42 75.192 124.497C75.2795 124.557 75.3509 124.637 75.4001 124.73C75.4493 124.824 75.4747 124.928 75.474 125.034ZM75.174 125.034C75.174 124.941 75.1375 124.853 75.0723 124.787C75.0071 124.721 74.9186 124.684 74.826 124.683C74.7774 124.679 74.7284 124.684 74.6821 124.7C74.6358 124.715 74.5933 124.74 74.5572 124.773C74.5211 124.806 74.4923 124.846 74.4725 124.891C74.4528 124.935 74.4426 124.984 74.4426 125.033C74.4426 125.081 74.4528 125.13 74.4725 125.174C74.4923 125.219 74.5211 125.259 74.5572 125.292C74.5933 125.325 74.6358 125.35 74.6821 125.365C74.7284 125.381 74.7774 125.387 74.826 125.382C74.872 125.382 74.9176 125.374 74.9601 125.356C75.0027 125.339 75.0414 125.314 75.0741 125.281C75.1067 125.249 75.1326 125.21 75.1503 125.168C75.1679 125.125 75.177 125.08 75.177 125.034H75.174ZM74.673 124.23C74.6724 124.26 74.6809 124.29 74.6974 124.316C74.7138 124.341 74.7375 124.361 74.7654 124.374C74.7933 124.386 74.8241 124.389 74.854 124.383C74.8839 124.378 74.9114 124.364 74.9331 124.342C74.9548 124.321 74.9697 124.294 74.9758 124.264C74.982 124.234 74.9791 124.203 74.9677 124.175C74.9562 124.147 74.9366 124.123 74.9113 124.106C74.8861 124.089 74.8564 124.08 74.826 124.08C74.7865 124.081 74.7488 124.097 74.7208 124.125C74.6929 124.153 74.6768 124.19 74.676 124.23H74.673Z" fill="black"/>
<path d="M77.1301 125.529C77.1305 125.548 77.1269 125.568 77.1197 125.586C77.1125 125.604 77.1016 125.62 77.0879 125.634C77.0742 125.648 77.0578 125.658 77.0398 125.666C77.0218 125.673 77.0025 125.676 76.983 125.676H76.02C75.9992 125.676 75.9785 125.672 75.9594 125.664C75.9402 125.656 75.9231 125.643 75.909 125.628C75.8951 125.614 75.884 125.598 75.8764 125.58C75.8688 125.562 75.8649 125.543 75.8649 125.523C75.8649 125.503 75.8688 125.484 75.8764 125.466C75.884 125.448 75.8951 125.432 75.909 125.418L76.707 124.695C76.775 124.632 76.8156 124.545 76.8201 124.452C76.8246 124.36 76.7926 124.269 76.7311 124.2C76.6988 124.164 76.659 124.135 76.6145 124.115C76.5699 124.095 76.5217 124.085 76.473 124.086C76.3866 124.086 76.3032 124.118 76.2391 124.176L76.1551 124.251C76.1416 124.265 76.1253 124.277 76.1073 124.285C76.0892 124.292 76.0697 124.296 76.05 124.296C76.0304 124.296 76.0109 124.292 75.9928 124.285C75.9748 124.277 75.9585 124.265 75.945 124.251C75.9311 124.237 75.92 124.221 75.9124 124.203C75.9048 124.185 75.9009 124.166 75.9009 124.146C75.9009 124.126 75.9048 124.107 75.9124 124.089C75.92 124.071 75.9311 124.055 75.945 124.041L76.029 123.966C76.1477 123.857 76.3031 123.797 76.4641 123.798C76.5544 123.798 76.6438 123.818 76.7264 123.854C76.809 123.891 76.8831 123.944 76.9441 124.011C77.0594 124.138 77.1194 124.306 77.111 124.478C77.1025 124.649 77.0263 124.811 76.899 124.926L76.3891 125.388H76.965C76.9852 125.386 77.0056 125.388 77.025 125.394C77.0444 125.4 77.0623 125.41 77.0777 125.423C77.0931 125.436 77.1057 125.453 77.1147 125.471C77.1237 125.489 77.1289 125.509 77.1301 125.529Z" fill="black"/>
<path d="M78.672 123.993L78 125.589C77.9893 125.616 77.9701 125.639 77.9453 125.655C77.9205 125.671 77.8913 125.678 77.862 125.676C77.8433 125.68 77.8238 125.68 77.805 125.676C77.7696 125.66 77.7415 125.63 77.7265 125.594C77.7115 125.558 77.7106 125.518 77.724 125.481L78.309 124.095H77.61C77.5708 124.094 77.5334 124.078 77.5059 124.05C77.4784 124.022 77.463 123.984 77.463 123.945C77.4626 123.925 77.4662 123.906 77.4734 123.888C77.4806 123.87 77.4913 123.853 77.505 123.839C77.5187 123.825 77.5351 123.814 77.5531 123.807C77.5711 123.799 77.5905 123.795 77.61 123.795H78.564C78.5835 123.801 78.6026 123.808 78.621 123.816C78.621 123.816 78.621 123.816 78.621 123.831C78.6241 123.851 78.6241 123.871 78.621 123.891L78.672 123.993Z" fill="black"/>
<path d="M80.016 124.53C80.0787 124.591 80.1285 124.665 80.1625 124.746C80.1965 124.826 80.214 124.913 80.214 125.001C80.2156 125.134 80.1773 125.265 80.1039 125.377C80.0305 125.488 79.9254 125.575 79.8022 125.627C79.6789 125.678 79.5432 125.691 79.4124 125.665C79.2815 125.638 79.1616 125.573 79.068 125.478C79.0525 125.464 79.0399 125.447 79.031 125.428C79.0222 125.409 79.0174 125.389 79.0167 125.368C79.0161 125.347 79.0198 125.327 79.0275 125.307C79.0352 125.288 79.0468 125.27 79.0615 125.255C79.0762 125.241 79.0938 125.229 79.1132 125.221C79.1326 125.214 79.1533 125.21 79.1742 125.211C79.195 125.211 79.2155 125.216 79.2344 125.225C79.2533 125.234 79.2702 125.246 79.284 125.262C79.353 125.329 79.4456 125.367 79.542 125.367C79.6384 125.367 79.7309 125.329 79.8 125.262C79.8349 125.228 79.8624 125.188 79.881 125.143C79.8995 125.098 79.9087 125.05 79.908 125.001C79.9088 124.953 79.8996 124.906 79.881 124.862C79.8624 124.818 79.8348 124.779 79.8 124.746C79.7327 124.678 79.641 124.639 79.545 124.638C79.5241 124.639 79.5032 124.635 79.484 124.627C79.4648 124.619 79.4477 124.606 79.434 124.59C79.4055 124.561 79.3894 124.522 79.3894 124.482C79.3894 124.442 79.4055 124.403 79.434 124.374L79.71 124.092H79.272C79.2521 124.092 79.2323 124.088 79.2139 124.08C79.1955 124.073 79.1789 124.061 79.1649 124.047C79.1509 124.033 79.1399 124.016 79.1326 123.997C79.1252 123.979 79.1216 123.959 79.122 123.939C79.1216 123.919 79.1252 123.899 79.1326 123.881C79.1399 123.862 79.1509 123.845 79.1649 123.831C79.1789 123.817 79.1955 123.805 79.2139 123.798C79.2323 123.79 79.2521 123.786 79.272 123.786H80.07C80.1106 123.786 80.1495 123.802 80.1782 123.831C80.2069 123.86 80.223 123.898 80.223 123.939C80.222 123.964 80.2159 123.988 80.205 124.011L80.178 124.05L79.836 124.401C79.9041 124.431 79.9654 124.475 80.016 124.53Z" fill="black"/>
<path d="M80.6281 124.44C80.6331 124.275 80.7001 124.118 80.8156 124C80.9312 123.882 81.0868 123.812 81.2516 123.804C81.4164 123.796 81.5783 123.85 81.7051 123.955C81.832 124.061 81.9144 124.21 81.936 124.374C81.936 124.425 81.936 124.479 81.936 124.53C81.9381 124.718 81.9056 124.905 81.84 125.082C81.7765 125.269 81.6545 125.431 81.4921 125.544C81.3714 125.623 81.2313 125.668 81.0871 125.673C81.0475 125.674 81.0091 125.659 80.98 125.632C80.9509 125.606 80.9334 125.568 80.931 125.529C80.931 125.489 80.9462 125.451 80.9735 125.422C81.0009 125.393 81.0383 125.375 81.0781 125.373C81.1677 125.371 81.2551 125.344 81.3301 125.295C81.4017 125.247 81.4604 125.182 81.5011 125.106L81.5371 125.037C81.4548 125.073 81.3659 125.092 81.2761 125.091C81.1044 125.089 80.9405 125.019 80.8194 124.898C80.6983 124.776 80.6296 124.612 80.6281 124.44ZM80.9281 124.44C80.9235 124.489 80.9293 124.539 80.9451 124.586C80.9609 124.633 80.9864 124.677 81.0198 124.713C81.0533 124.75 81.094 124.779 81.1394 124.799C81.1848 124.819 81.2339 124.83 81.2836 124.83C81.3332 124.83 81.3823 124.819 81.4277 124.799C81.4731 124.779 81.5138 124.75 81.5473 124.713C81.5807 124.677 81.6062 124.633 81.622 124.586C81.6378 124.539 81.6436 124.489 81.6391 124.44C81.6309 124.351 81.5899 124.269 81.5242 124.209C81.4584 124.149 81.3726 124.116 81.2836 124.116C81.1945 124.116 81.1087 124.149 81.043 124.209C80.9772 124.269 80.9362 124.351 80.9281 124.44Z" fill="black"/>
<path d="M82.359 124.731C82.3556 124.502 82.4204 124.278 82.545 124.086C82.5961 123.997 82.6689 123.923 82.7566 123.871C82.8443 123.818 82.9439 123.789 83.046 123.786C83.1482 123.789 83.2478 123.818 83.3355 123.871C83.4232 123.923 83.496 123.997 83.547 124.086C83.6649 124.281 83.7272 124.504 83.7272 124.731C83.7272 124.958 83.6649 125.182 83.547 125.376C83.4945 125.463 83.4214 125.536 83.334 125.589C83.2466 125.641 83.1478 125.671 83.046 125.676C82.9439 125.673 82.8443 125.644 82.7566 125.591C82.6689 125.539 82.5961 125.465 82.545 125.376C82.4204 125.184 82.3556 124.96 82.359 124.731ZM83.427 124.731C83.43 124.562 83.3853 124.396 83.298 124.251C83.2743 124.204 83.2385 124.164 83.1943 124.135C83.15 124.106 83.0989 124.089 83.046 124.086C82.9929 124.091 82.9417 124.108 82.8967 124.137C82.8518 124.166 82.8145 124.205 82.788 124.251C82.7035 124.397 82.659 124.562 82.659 124.731C82.659 124.9 82.7035 125.065 82.788 125.211C82.8149 125.257 82.8523 125.296 82.8972 125.325C82.942 125.353 82.993 125.371 83.046 125.376C83.0984 125.371 83.1488 125.354 83.1928 125.325C83.2368 125.296 83.273 125.257 83.298 125.211C83.3853 125.066 83.43 124.9 83.427 124.731Z" fill="black"/>
<path d="M85.542 125.034C85.5436 125.147 85.5157 125.258 85.4612 125.356C85.4067 125.455 85.3275 125.537 85.2313 125.596C85.1351 125.655 85.0253 125.687 84.9128 125.69C84.8002 125.694 84.6887 125.668 84.5893 125.615C84.4899 125.562 84.4061 125.484 84.346 125.388C84.2859 125.293 84.2517 125.184 84.2467 125.071C84.2418 124.959 84.2662 124.847 84.3176 124.747C84.3691 124.647 84.4457 124.561 84.54 124.5C84.4812 124.423 84.4496 124.329 84.45 124.233C84.45 124.114 84.4974 123.999 84.5818 123.915C84.6662 123.83 84.7807 123.783 84.9 123.783C85.0194 123.783 85.1338 123.83 85.2182 123.915C85.3026 123.999 85.35 124.114 85.35 124.233C85.3505 124.329 85.3188 124.423 85.26 124.5C85.3471 124.559 85.4182 124.639 85.4674 124.732C85.5165 124.825 85.5422 124.929 85.542 125.034ZM85.242 125.034C85.2413 124.941 85.204 124.852 85.1384 124.787C85.0727 124.721 84.9839 124.684 84.891 124.683C84.8424 124.678 84.7934 124.684 84.7471 124.7C84.7008 124.715 84.6583 124.74 84.6222 124.773C84.5861 124.806 84.5573 124.846 84.5375 124.891C84.5178 124.935 84.5076 124.984 84.5076 125.032C84.5076 125.081 84.5178 125.13 84.5375 125.174C84.5573 125.219 84.5861 125.259 84.6222 125.292C84.6583 125.325 84.7008 125.35 84.7471 125.365C84.7934 125.381 84.8424 125.386 84.891 125.382C84.9374 125.383 84.9834 125.374 85.0265 125.357C85.0696 125.34 85.1089 125.315 85.1421 125.282C85.1752 125.25 85.2017 125.211 85.2199 125.169C85.2381 125.126 85.2476 125.08 85.248 125.034H85.242ZM84.738 124.23C84.7374 124.26 84.7459 124.29 84.7624 124.316C84.7788 124.341 84.8025 124.361 84.8304 124.373C84.8583 124.385 84.8891 124.389 84.919 124.383C84.9489 124.378 84.9764 124.363 84.9981 124.342C85.0198 124.321 85.0347 124.294 85.0408 124.264C85.047 124.234 85.0441 124.203 85.0327 124.175C85.0212 124.147 85.0016 124.123 84.9763 124.106C84.9511 124.089 84.9214 124.08 84.891 124.08C84.852 124.081 84.8151 124.098 84.7877 124.126C84.7604 124.154 84.7448 124.191 84.744 124.23H84.738Z" fill="black"/>
<path d="M59.184 127.641H58.212V133.725H59.184V127.641Z" fill="black"/>
<path d="M62.262 127.641H61.29V133.725H62.262V127.641Z" fill="black"/>
<path d="M64.851 127.641H63.879V133.725H64.851V127.641Z" fill="black"/>
<path d="M66.096 127.641H65.124V133.725H66.096V127.641Z" fill="black"/>
<path d="M60.537 127.641H60.294V133.725H60.537V127.641Z" fill="black"/>
<path d="M85.428 127.641H85.185V133.725H85.428V127.641Z" fill="black"/>
<path d="M63.579 127.641H63.336V133.725H63.579V127.641Z" fill="black"/>
<path d="M70.41 127.641H70.167V133.725H70.41V127.641Z" fill="black"/>
<path d="M61.011 127.641H60.768V133.725H61.011V127.641Z" fill="black"/>
<path d="M60.003 127.641H59.517V133.725H60.003V127.641Z" fill="black"/>
<path d="M72.486 127.641H71.514V133.725H72.486V127.641Z" fill="black"/>
<path d="M73.839 127.641H73.596V133.725H73.839V127.641Z" fill="black"/>
<path d="M74.313 127.641H74.07V133.725H74.313V127.641Z" fill="black"/>
<path d="M73.305 127.641H72.819V133.725H73.305V127.641Z" fill="black"/>
<path d="M75.078 127.641H74.592V133.725H75.078V127.641Z" fill="black"/>
<path d="M75.861 127.641H75.375V133.725H75.861V127.641Z" fill="black"/>
<path d="M69.861 127.641H68.889V133.725H69.861V127.641Z" fill="black"/>
<path d="M77.145 127.641H76.173V133.725H77.145V127.641Z" fill="black"/>
<path d="M68.136 127.641H67.893V133.725H68.136V127.641Z" fill="black"/>
<path d="M68.61 127.641H68.367V133.725H68.61V127.641Z" fill="black"/>
<path d="M67.602 127.641H67.116V133.725H67.602V127.641Z" fill="black"/>
<path d="M63.033 127.641H62.547V133.725H63.033V127.641Z" fill="black"/>
<path d="M66.843 127.641H66.357V133.725H66.843V127.641Z" fill="black"/>
<path d="M71.172 127.641H70.686V133.725H71.172V127.641Z" fill="black"/>
<path d="M77.691 127.641H77.448V133.725H77.691V127.641Z" fill="black"/>
<path d="M79.7671 127.641H78.795V133.725H79.7671V127.641Z" fill="black"/>
<path d="M82.848 127.641H81.876V133.725H82.848V127.641Z" fill="black"/>
<path d="M84.111 127.641H83.139V133.725H84.111V127.641Z" fill="black"/>
<path d="M81.12 127.641H80.877V133.725H81.12V127.641Z" fill="black"/>
<path d="M81.594 127.641H81.351V133.725H81.594V127.641Z" fill="black"/>
<path d="M80.589 127.641H80.103V133.725H80.589V127.641Z" fill="black"/>
<path d="M78.456 127.641H77.97V133.725H78.456V127.641Z" fill="black"/>
<path d="M84.906 127.641H84.42V133.725H84.906V127.641Z" fill="black"/>
<path d="M77.91 119.088H65.448V119.775H77.91V119.088Z" fill="black"/>
<path d="M133.821 134.244C133.823 134.291 133.813 134.338 133.793 134.381C133.774 134.423 133.744 134.461 133.707 134.49C131.607 136.347 127.38 136.989 123.006 136.989H117.138C121.512 136.989 125.727 136.347 127.845 134.49C127.881 134.46 127.909 134.423 127.928 134.38C127.947 134.337 127.955 134.291 127.953 134.244C127.935 133.479 125.91 131.898 123.567 130.065C119.274 126.714 113.4 122.121 113.4 117.765C113.4 113.565 116.034 106.74 119.076 98.832C123.48 87.387 128.478 74.415 127.515 64.584C126.654 55.782 115.215 36.105 104.7 28.041C102.399 26.277 100.476 25.389 98.958 25.389H104.823C106.341 25.389 108.267 26.289 110.568 28.041C121.083 36.105 132.519 55.782 133.368 64.584C134.331 74.415 129.336 87.384 124.929 98.832C121.884 106.74 119.256 113.568 119.256 117.765C119.256 122.13 125.13 126.723 129.42 130.065C131.775 131.898 133.8 133.479 133.821 134.244Z" fill="#3D72E0"/>
<g opacity="0.2">
<path d="M133.821 134.244C133.823 134.291 133.813 134.338 133.793 134.381C133.774 134.423 133.744 134.461 133.707 134.49C131.607 136.347 127.38 136.989 123.006 136.989H117.138C121.512 136.989 125.727 136.347 127.845 134.49C127.881 134.46 127.909 134.423 127.928 134.38C127.947 134.337 127.955 134.291 127.953 134.244C127.935 133.479 125.91 131.898 123.567 130.065C119.274 126.714 113.4 122.121 113.4 117.765C113.4 113.565 116.034 106.74 119.076 98.832C123.48 87.387 128.478 74.415 127.515 64.584C126.654 55.782 115.215 36.105 104.7 28.041C102.399 26.277 100.476 25.389 98.958 25.389H104.823C106.341 25.389 108.267 26.289 110.568 28.041C121.083 36.105 132.519 55.782 133.368 64.584C134.331 74.415 129.336 87.384 124.929 98.832C121.884 106.74 119.256 113.568 119.256 117.765C119.256 122.13 125.13 126.723 129.42 130.065C131.775 131.898 133.8 133.479 133.821 134.244Z" fill="black"/>
</g>
<path d="M122.97 137.286H117.105C111.564 137.286 105.795 136.272 103.638 135.384C99.348 133.617 102.978 105.102 105.897 82.1911C107.496 69.6211 108.876 58.7641 108.339 56.6221C107.331 52.6321 103.668 46.7221 98.541 40.7911C94.257 35.8471 90.09 32.2681 88.641 32.2681H94.5C95.955 32.2681 100.122 35.8471 104.4 40.7911C109.527 46.7131 113.19 52.6321 114.198 56.6221C114.738 58.7641 113.358 69.6211 111.756 82.1911C108.84 105.102 105.207 133.617 109.497 135.384C111.663 136.272 117.429 137.286 122.97 137.286Z" fill="#3D72E0"/>
<g opacity="0.1">
<path d="M122.97 137.286H117.105C111.564 137.286 105.795 136.272 103.638 135.384C99.348 133.617 102.978 105.102 105.897 82.1911C107.496 69.6211 108.876 58.7641 108.339 56.6221C107.331 52.6321 103.668 46.7221 98.541 40.7911C94.257 35.8471 90.09 32.2681 88.641 32.2681H94.5C95.955 32.2681 100.122 35.8471 104.4 40.7911C109.527 46.7131 113.19 52.6321 114.198 56.6221C114.738 58.7641 113.358 69.6211 111.756 82.1911C108.84 105.102 105.207 133.617 109.497 135.384C111.663 136.272 117.429 137.286 122.97 137.286Z" fill="black"/>
</g>
<path d="M92.217 32.8561H86.352C86.9971 32.4648 87.6953 32.1688 88.425 31.9771H94.29C93.5603 32.1688 92.8621 32.4648 92.217 32.8561Z" fill="#3D72E0"/>
<g opacity="0.2">
<path d="M92.217 32.8561H86.352C86.9971 32.4648 87.6953 32.1688 88.425 31.9771H94.29C93.5603 32.1688 92.8621 32.4648 92.217 32.8561Z" fill="black"/>
</g>
<path d="M129.6 129.81C132.204 131.847 134.1 133.314 134.1 134.235C134.103 134.329 134.085 134.423 134.047 134.509C134.009 134.595 133.953 134.672 133.881 134.733C131.718 136.629 127.413 137.286 122.955 137.286C117.414 137.286 111.648 136.272 109.488 135.384C105.198 133.617 108.831 105.102 111.747 82.191C113.349 69.621 114.729 58.764 114.189 56.622C113.181 52.632 109.518 46.722 104.391 40.791C100.11 35.847 95.943 32.268 94.491 32.268C92.754 32.634 90.447 34.314 88.845 35.61C87.156 37.038 84.792 39.21 84.753 39.231L84.366 39.171C84.447 39.096 86.271 37.422 86.865 36.903C87.048 36.732 87.696 36.15 88.572 35.433C92.58 32.031 99.954 26.133 103.944 25.164C104.227 25.0968 104.517 25.0636 104.808 25.065C106.392 25.065 108.375 25.965 110.724 27.765C119.661 34.617 132.624 54.051 133.659 64.533C134.631 74.433 129.621 87.453 125.202 98.934C122.169 106.812 119.55 113.613 119.55 117.747C119.562 121.962 125.367 126.498 129.6 129.81ZM133.704 134.487C133.74 134.458 133.769 134.421 133.788 134.379C133.807 134.336 133.817 134.29 133.815 134.244C133.794 133.479 131.769 131.898 129.426 130.065C125.136 126.714 119.262 122.121 119.262 117.765C119.262 113.565 121.89 106.74 124.935 98.832C129.342 87.387 134.337 74.418 133.374 64.584C132.513 55.782 121.074 36.105 110.574 28.038C108.273 26.277 106.347 25.389 104.832 25.389C104.56 25.3886 104.29 25.4198 104.025 25.482C101.097 26.196 96.177 29.724 92.223 32.865C92.8681 32.4738 93.5663 32.1777 94.296 31.986C97.932 31.965 112.272 47.745 114.492 56.55C115.047 58.755 113.727 69.12 112.059 82.242C109.308 103.842 105.543 133.422 109.617 135.102C111.762 135.984 117.513 136.998 123.012 136.998C127.386 136.998 131.601 136.356 133.716 134.496" fill="#3D72E0"/>
<path d="M104.82 25.065C104.529 25.0631 104.239 25.0974 103.956 25.167C99.966 26.139 92.592 32.031 88.584 35.43C87.708 36.15 87.06 36.732 86.877 36.9C86.277 37.419 84.456 39.096 84.375 39.171L81 36.9C81.18 36.732 81.831 36.15 82.704 35.43C86.715 32.031 94.086 26.13 98.076 25.167C98.3587 25.0975 98.6489 25.0633 98.94 25.065H104.82Z" fill="#3D72E0"/>
<g opacity="0.1">
<path d="M104.82 25.065C104.529 25.0631 104.239 25.0974 103.956 25.167C99.966 26.139 92.592 32.031 88.584 35.43C87.708 36.15 87.06 36.732 86.877 36.9C86.277 37.419 84.456 39.096 84.375 39.171L81 36.9C81.18 36.732 81.831 36.15 82.704 35.43C86.715 32.031 94.086 26.13 98.076 25.167C98.3587 25.0975 98.6489 25.0633 98.94 25.065H104.82Z" fill="black"/>
</g>
<path d="M66.4499 67.104C63.3599 71.061 65.3429 75.522 64.2929 78.372C63.6509 80.112 60.8759 82.377 60.6179 84.288C60.1949 87.426 62.8949 87.978 62.6579 89.688C62.3279 92.106 59.2679 92.541 59.4689 96.345C59.6699 100.149 64.5299 103.257 74.3999 102.375C84.27 101.493 88.854 96.888 88.566 93.675C88.278 90.462 84.858 90.075 84.1679 87.777C83.7269 86.31 85.497 84.867 85.044 82.077C84.591 79.287 81.7229 78.951 80.868 76.677C80.0129 74.403 80.1 68.52 76.0739 66.3C72.0479 64.08 67.9739 65.151 66.4499 67.104Z" fill="black"/>
<path d="M66.9 67.101C66.004 68.0521 65.3514 69.2059 64.998 70.464C64.641 71.7931 64.4396 73.1593 64.398 74.535C64.3916 75.3508 64.2909 76.1632 64.098 76.956C63.8871 77.6297 63.558 78.2606 63.126 78.819C62.271 79.971 61.17 80.94 60.447 82.191C59.763 83.391 59.343 84.858 59.973 86.157C60.318 86.862 60.9299 87.372 61.3769 88.005C61.8239 88.638 62.079 89.4 61.626 90.06C61.236 90.627 60.5789 90.981 60.1109 91.476C59.645 91.96 59.2619 92.5175 58.9769 93.126C58.6821 93.7301 58.5175 94.3895 58.4937 95.0613C58.47 95.7331 58.5876 96.4025 58.839 97.026C60.012 99.915 63.171 101.052 65.988 101.604C66.381 101.682 66.7769 101.754 67.1699 101.823C67.2299 101.823 67.263 101.745 67.2 101.73C64.353 101.088 61.05 100.329 59.457 97.614C59.1007 97.0233 58.8856 96.3584 58.8284 95.6711C58.7711 94.9837 58.8733 94.2924 59.1269 93.651C59.3817 93.0133 59.7496 92.4268 60.213 91.92C60.66 91.428 61.2179 91.068 61.6769 90.591C61.9083 90.3702 62.0766 90.0918 62.1647 89.7844C62.2527 89.477 62.2573 89.1517 62.1779 88.842C62.0009 88.143 61.533 87.597 61.071 87.066C60.609 86.535 60.147 85.929 60.048 85.17C59.9842 84.4533 60.1159 83.7328 60.4289 83.085C61.0109 81.771 62.061 80.775 62.964 79.686C63.867 78.597 64.536 77.403 64.656 75.963C64.716 75.234 64.698 74.502 64.731 73.77C64.7579 73.0931 64.821 72.4181 64.9199 71.748C65.0944 70.406 65.5592 69.1181 66.282 67.974C66.4762 67.6804 66.6993 67.407 66.948 67.158C66.969 67.119 66.927 67.071 66.9 67.101Z" fill="black"/>
<path d="M88.5239 91.299C88.3043 90.8103 87.9796 90.376 87.5729 90.027C87.1529 89.67 86.6729 89.394 86.2229 89.076C85.7718 88.8012 85.407 88.4051 85.1699 87.933C84.9239 87.333 85.0619 86.697 85.2449 86.109C85.4645 85.5035 85.64 84.8829 85.7699 84.252C85.9176 83.3033 85.8415 82.3332 85.5478 81.4191C85.254 80.505 84.7507 79.6721 84.0779 78.987C83.6399 78.513 83.1779 78.087 82.7249 77.607C82.24 77.0975 81.8253 76.5255 81.492 75.906C80.763 74.538 80.3609 73.026 79.7099 71.625C79.0316 70.1921 78.2104 68.8312 77.2589 67.563C77.2349 67.533 77.1899 67.563 77.2139 67.605C78.0613 68.7533 78.7882 69.9858 79.3829 71.283C79.9499 72.513 80.3309 73.806 80.8229 75.063C81.0532 75.6844 81.3446 76.2813 81.6929 76.845C82.036 77.3616 82.4256 77.8456 82.8569 78.291C83.7239 79.221 84.6089 80.136 85.0439 81.36C85.4742 82.5634 85.5109 83.8724 85.1489 85.098C84.8489 86.16 84.3389 87.36 85.0079 88.398C85.5749 89.271 86.5979 89.658 87.36 90.324C87.7648 90.694 88.0871 91.1452 88.3058 91.6482C88.5244 92.1512 88.6346 92.6946 88.6289 93.243C88.6529 96.051 86.2289 97.938 83.7089 98.583C83.6931 98.5871 83.6795 98.5971 83.6709 98.611C83.6623 98.6249 83.6595 98.6416 83.663 98.6576C83.6665 98.6736 83.6761 98.6875 83.6897 98.6966C83.7033 98.7056 83.7199 98.709 83.7359 98.706C85.9349 98.235 88.1369 96.783 88.7549 94.506C89.0524 93.4426 88.9708 92.3088 88.5239 91.299Z" fill="black"/>
<path d="M85.5779 111.054H59.6579L60.2069 108.024L60.3209 107.406L60.6719 105.486L60.6989 105.333L61.2989 102.117L61.3349 101.916L61.6619 100.116V100.086L61.7129 99.825L61.7609 99.543C61.7609 99.543 61.6529 99.345 61.4999 99.006C61.4699 98.937 61.4369 98.865 61.4069 98.79C61.2809 98.49 61.1369 98.112 61.0049 97.683C60.9269 97.437 60.8549 97.173 60.7949 96.894C60.5758 96.1447 60.5139 95.3582 60.613 94.5838C60.7121 93.8095 60.9702 93.0639 61.3709 92.394C61.5809 92.004 61.8269 91.593 62.1029 91.161C64.1819 87.936 67.8809 83.898 68.7779 83.061C68.8709 82.977 68.9639 82.89 69.0599 82.812C69.2598 82.6414 69.4713 82.4851 69.6929 82.344C71.0819 81.444 72.7859 81.099 74.4239 81.786C74.8408 81.9628 75.233 82.1927 75.5909 82.47C75.6749 82.533 75.7559 82.599 75.8429 82.671C75.9299 82.743 76.0619 82.863 76.1729 82.971C76.3259 83.127 76.4729 83.289 76.6349 83.466C76.6622 83.4933 76.6863 83.5234 76.7069 83.556C76.8329 83.7 76.9589 83.856 77.0819 84.018C79.7609 87.543 81.8819 94.218 83.3249 100.062C84.7889 105.999 85.5779 111.054 85.5779 111.054Z" fill="#F7771B"/>
<path d="M69.054 82.824C69.054 82.824 68.034 86.424 69.039 86.667C70.044 86.91 72.459 85.113 75.588 82.467C75.6 82.479 72.6 79.239 69.054 82.824Z" fill="#F8C1B5"/>
<path d="M74.3699 82.239C74.2409 82.653 72.0239 85.26 70.0949 85.032C69.4679 84.957 69.7259 81.51 69.7259 81.51L69.6869 81.252L69.1409 77.628L73.5209 75.228L74.1509 74.928C74.1509 74.928 74.2349 75.93 74.3279 77.178C74.3279 77.235 74.3279 77.292 74.3279 77.355C74.3279 77.418 74.3279 77.49 74.3459 77.556C74.3639 77.742 74.3789 77.934 74.3909 78.123C74.4029 78.312 74.4089 78.423 74.4149 78.561C74.4209 78.699 74.4149 78.861 74.4359 79.014C74.4875 80.0892 74.4655 81.1667 74.3699 82.239Z" fill="#F8C1B5"/>
<path d="M74.3279 77.172C73.8962 78.1477 73.2576 79.018 72.4562 79.7225C71.6549 80.427 70.71 80.9489 69.6869 81.252L69.1409 77.628L73.5209 75.228L74.1509 74.928C74.1509 74.928 74.2349 75.924 74.3279 77.172Z" fill="black"/>
<path d="M64.686 71.583C63.651 77.931 67.338 79.266 68.706 79.488C69.951 79.689 74.208 80.214 75.891 74.007C77.574 67.8 74.949 65.307 72.132 64.707C69.315 64.107 65.718 65.235 64.686 71.583Z" fill="#F8C1B5"/>
<path d="M66.468 70.608C66.6157 70.5986 66.7629 70.5816 66.909 70.557C67.0672 70.5581 67.2217 70.5087 67.35 70.416C67.3842 70.3793 67.4051 70.3322 67.4095 70.2821C67.4138 70.2321 67.4013 70.1821 67.374 70.14C67.3078 70.0633 67.2221 70.0058 67.1261 69.9736C67.03 69.9414 66.927 69.9356 66.828 69.957C66.6214 69.9668 66.4262 70.0548 66.282 70.203C66.2504 70.2383 66.2298 70.282 66.2228 70.3288C66.2157 70.3756 66.2225 70.4235 66.2422 70.4665C66.262 70.5095 66.2938 70.5458 66.334 70.5709C66.3741 70.5961 66.4206 70.609 66.468 70.608Z" fill="black"/>
<path d="M70.7429 71.214C70.5929 71.181 70.4609 71.127 70.3169 71.082C70.161 71.0565 70.0177 70.9807 69.9089 70.866C69.8817 70.8231 69.8696 70.7724 69.8745 70.7219C69.8794 70.6713 69.901 70.6239 69.9359 70.587C70.014 70.5242 70.1073 70.4831 70.2063 70.4678C70.3053 70.4526 70.4066 70.4637 70.4999 70.5C70.7003 70.5499 70.8754 70.6716 70.9919 70.842C71.0182 70.8819 71.032 70.9287 71.0318 70.9765C71.0316 71.0242 71.0173 71.0709 70.9907 71.1105C70.9642 71.1502 70.9265 71.1812 70.8824 71.1996C70.8384 71.218 70.7898 71.223 70.7429 71.214Z" fill="black"/>
<path d="M69.7409 72.7499C69.7409 72.7349 69.7709 72.7739 69.7679 72.7919C69.7049 73.2269 69.7049 73.7339 70.0829 73.9229C70.0829 73.9229 70.0829 73.9499 70.0829 73.9469C69.5999 73.8239 69.5999 73.1519 69.7409 72.7499Z" fill="black"/>
<path d="M70.182 72.342C70.887 72.369 70.782 73.779 70.125 73.752C69.468 73.725 69.6 72.318 70.182 72.342Z" fill="black"/>
<path d="M70.452 72.438C70.569 72.525 70.68 72.675 70.827 72.702C70.974 72.729 71.127 72.594 71.262 72.459C71.262 72.459 71.286 72.459 71.283 72.477C71.268 72.75 71.142 73.017 70.851 73.035C70.56 73.053 70.41 72.801 70.365 72.522C70.356 72.471 70.404 72.402 70.452 72.438Z" fill="black"/>
<path d="M67.161 72.381C67.161 72.366 67.125 72.399 67.125 72.417C67.107 72.855 67.017 73.356 66.612 73.473C66.612 73.473 66.612 73.5 66.612 73.497C67.101 73.461 67.215 72.798 67.161 72.381Z" fill="black"/>
<path d="M66.8009 71.8979C66.1019 71.7989 65.9519 73.2029 66.5999 73.2959C67.2479 73.3889 67.3889 71.9999 66.8009 71.8979Z" fill="black"/>
<path d="M66.498 71.961C66.378 72.021 66.255 72.147 66.12 72.141C65.985 72.135 65.868 71.97 65.787 71.814C65.787 71.796 65.766 71.814 65.763 71.814C65.727 72.081 65.787 72.372 66.039 72.45C66.291 72.528 66.465 72.312 66.558 72.051C66.576 72.015 66.546 71.934 66.498 71.961Z" fill="black"/>
<path d="M69.1799 76.0799C69.0839 76.1909 68.9909 76.3379 68.8319 76.3799C68.6697 76.3885 68.5074 76.364 68.3549 76.3079C68.3534 76.3068 68.3516 76.3059 68.3497 76.3054C68.3478 76.3049 68.3458 76.3048 68.3438 76.3051C68.3419 76.3054 68.34 76.306 68.3383 76.307C68.3366 76.308 68.3351 76.3094 68.3339 76.3109C68.3328 76.3125 68.3319 76.3143 68.3314 76.3162C68.3309 76.3181 68.3308 76.3201 68.3311 76.3221C68.3314 76.324 68.332 76.3259 68.333 76.3276C68.334 76.3293 68.3354 76.3308 68.3369 76.3319C68.4069 76.4118 68.4968 76.4716 68.5975 76.5053C68.6982 76.5391 68.806 76.5455 68.9099 76.5239C68.9949 76.4918 69.0686 76.4354 69.122 76.3619C69.1753 76.2883 69.2059 76.2007 69.2099 76.1099C69.2279 76.0709 69.1919 76.0619 69.1799 76.0799Z" fill="black"/>
<path d="M67.4609 74.4C67.4609 74.4 67.3139 75.045 67.2869 75.351C67.2869 75.381 67.3589 75.399 67.4609 75.414C67.7205 75.4853 67.9946 75.4838 68.2534 75.4097C68.5121 75.3356 68.7455 75.1918 68.9279 74.994C68.932 74.9879 68.934 74.9807 68.9335 74.9734C68.933 74.9662 68.9302 74.9593 68.9254 74.9538C68.9206 74.9483 68.9141 74.9446 68.907 74.9432C68.8999 74.9418 68.8925 74.9427 68.8859 74.946C68.4706 75.1799 67.9905 75.2726 67.5179 75.21C67.5179 75.123 67.8179 74.118 67.7609 74.109C67.5197 74.1092 67.2797 74.1415 67.0469 74.205C67.3169 72.855 67.7969 71.562 68.0429 70.212C68.0444 70.2023 68.0424 70.1924 68.0373 70.184C68.0322 70.1757 68.0244 70.1693 68.0151 70.1661C68.0059 70.1629 67.9958 70.1631 67.9866 70.1665C67.9775 70.1699 67.9698 70.1765 67.9649 70.185C67.3649 71.508 67.0229 73.056 66.7109 74.442C66.6809 74.601 67.3349 74.427 67.4609 74.4Z" fill="black"/>
<path d="M67.521 75.3C67.6699 75.5675 67.8847 75.7926 68.1449 75.954C68.291 76.0356 68.4586 76.0701 68.6249 76.053C68.9879 76.014 69.0419 75.696 69.0179 75.411C69.0043 75.2608 68.973 75.1128 68.9249 74.97C68.5045 75.2278 68.0122 75.3435 67.521 75.3Z" fill="black"/>
<path d="M68.1449 75.9389C68.291 76.0205 68.4586 76.0551 68.6249 76.0379C68.9879 75.9989 69.0419 75.6809 69.0179 75.3959C68.8327 75.3759 68.6461 75.4185 68.4878 75.5169C68.3296 75.6153 68.2089 75.7639 68.1449 75.9389Z" fill="#FF9ABB"/>
<path d="M75.234 74.001C73.779 73.821 74.097 71.529 74.097 71.529C74.097 71.529 72.465 71.16 72.699 68.484C72.699 68.484 71.691 69.984 69.399 70.017C68.916 70.017 70.665 69.006 70.665 69.006C70.665 69.006 68.535 70.473 65.094 69.354C64.851 69.273 65.652 65.226 68.589 64.326C71.526 63.426 74.148 64.872 75.627 66.843C75.627 66.843 77.532 68.043 77.505 69.999C77.478 71.955 75.801 74.07 75.234 74.001Z" fill="black"/>
<path d="M72.579 72.999C72.5278 72.6033 72.3641 72.2306 72.1072 71.9253C71.8503 71.6201 71.5111 71.395 71.13 71.277C71.034 71.25 70.935 71.229 70.83 71.211C70.7733 71.202 70.7162 71.196 70.659 71.193H70.518C70.0953 71.1925 69.6825 71.3209 69.3346 71.561C68.9868 71.8012 68.7204 72.1416 68.571 72.537C68.571 72.579 68.541 72.618 68.529 72.66C68.517 72.702 68.496 72.774 68.484 72.831C68.3755 73.3392 68.4613 73.8697 68.7245 74.3178C68.9877 74.7659 69.4092 75.0992 69.906 75.252C70.0707 75.3025 70.2409 75.3327 70.413 75.342C70.8735 75.3633 71.3282 75.2311 71.7055 74.9661C72.0829 74.7012 72.3616 74.3184 72.498 73.878C72.5575 73.6835 72.5878 73.4813 72.588 73.278C72.591 73.1849 72.588 73.0917 72.579 72.999ZM72.243 73.8C72.1443 74.1221 71.9572 74.4101 71.703 74.6312C71.4487 74.8523 71.1376 74.9976 70.8048 75.0506C70.4721 75.1035 70.1312 75.062 69.8209 74.9308C69.5105 74.7996 69.2433 74.5839 69.0495 74.3084C68.8557 74.0328 68.7431 73.7083 68.7246 73.3719C68.706 73.0355 68.7823 72.7006 68.9447 72.4054C69.1071 72.1102 69.349 71.8665 69.6431 71.702C69.9371 71.5375 70.2714 71.4589 70.608 71.475C70.758 71.4818 70.9063 71.5091 71.049 71.556C71.5045 71.6958 71.8859 72.0106 72.1097 72.4312C72.3336 72.8519 72.3815 73.3441 72.243 73.8Z" fill="#F7771B"/>
<path d="M67.422 71.6581C67.3876 71.5054 67.3353 71.3573 67.266 71.2171C67.1414 70.959 66.9484 70.74 66.708 70.5841C66.5762 70.5017 66.4293 70.4466 66.276 70.4221H66.225C66.014 70.4018 65.8012 70.4308 65.6034 70.5068C65.4055 70.5828 65.2281 70.7037 65.085 70.8601C64.9831 70.9598 64.8925 71.0704 64.815 71.1901C64.7876 71.2275 64.7625 71.2665 64.74 71.3071C64.5821 71.5862 64.4745 71.8908 64.422 72.2071C64.3562 72.5887 64.3767 72.9803 64.482 73.3531C64.482 73.3951 64.506 73.4341 64.518 73.4761C64.5465 73.5544 64.5806 73.6306 64.62 73.7041C64.6527 73.7733 64.6898 73.8404 64.731 73.9051C64.8276 74.0601 64.9553 74.1935 65.1061 74.2968C65.2569 74.4001 65.4274 74.471 65.607 74.5051C65.6516 74.5132 65.6967 74.5182 65.742 74.5201C65.9443 74.5236 66.1451 74.4834 66.3305 74.4021C66.5159 74.3208 66.6815 74.2003 66.816 74.0491C66.992 73.8699 67.1361 73.6619 67.242 73.4341C67.35 73.2067 67.4257 72.9654 67.467 72.7171C67.467 72.6691 67.467 72.6211 67.467 72.5791C67.467 72.5371 67.467 72.5161 67.467 72.4861C67.467 72.4081 67.467 72.3331 67.467 72.2581C67.4766 72.057 67.4614 71.8555 67.422 71.6581ZM67.185 72.6751C67.1794 72.7207 67.1704 72.7658 67.158 72.8101C67.1599 72.821 67.1599 72.8321 67.158 72.8431C67.1304 72.9638 67.0933 73.0822 67.047 73.1971C67.023 73.2541 66.999 73.3081 66.972 73.3591C66.672 73.9591 66.159 74.3191 65.646 74.2351C65.4266 74.1845 65.2259 74.0733 65.0668 73.9142C64.9077 73.7551 64.7965 73.5544 64.746 73.3351C64.6412 72.989 64.6186 72.6233 64.68 72.2671C64.7273 71.9882 64.8216 71.7194 64.959 71.4721C65.0443 71.3211 65.1504 71.1827 65.274 71.0611C65.382 70.9436 65.5132 70.8499 65.6594 70.7859C65.8055 70.7219 65.9634 70.6889 66.123 70.6891H66.225C66.3987 70.726 66.5611 70.8042 66.6984 70.917C66.8357 71.0297 66.9439 71.1738 67.014 71.3371C67.1653 71.6569 67.2335 72.0098 67.212 72.3631C67.2172 72.4672 67.2132 72.5716 67.2 72.6751H67.185Z" fill="#F7771B"/>
<path d="M68.568 72.9L68.778 72.72C68.511 72.42 67.851 71.937 67.278 72.39L67.446 72.609C67.959 72.207 68.541 72.876 68.568 72.9Z" fill="#F7771B"/>
<path d="M77.598 74.946L77.862 74.862C77.823 74.739 77.4569 73.662 76.8629 73.452C76.2689 73.242 72.582 72.999 72.423 72.99L72.405 73.266C73.473 73.341 76.344 73.566 76.773 73.716C77.202 73.866 77.502 74.649 77.598 74.946Z" fill="#F7771B"/>
<path d="M74.3609 74.307C74.3609 74.307 75.9089 72.411 76.7819 72.978C77.6549 73.545 76.3829 76.368 75.2819 76.686C75.144 76.7358 74.9975 76.7572 74.8511 76.7491C74.7047 76.741 74.5614 76.7035 74.4299 76.6388C74.2983 76.5741 74.1811 76.4836 74.0852 76.3727C73.9894 76.2617 73.9168 76.1326 73.8719 75.993L74.3609 74.307Z" fill="#F8C1B5"/>
<path d="M76.398 73.776C76.413 73.776 76.416 73.8 76.398 73.806C75.627 74.052 75.18 74.706 74.853 75.414C74.9021 75.3437 74.9657 75.2847 75.0396 75.2411C75.1135 75.1975 75.1958 75.1702 75.2811 75.1611C75.3664 75.152 75.4526 75.1613 75.534 75.1884C75.6154 75.2154 75.6901 75.2596 75.753 75.318C75.771 75.333 75.753 75.363 75.732 75.357C75.6034 75.3058 75.4623 75.2953 75.3276 75.3269C75.1929 75.3586 75.0712 75.4309 74.979 75.534C74.8271 75.7094 74.6944 75.9005 74.583 76.104C74.544 76.167 74.424 76.122 74.457 76.047C74.4557 76.0411 74.4557 76.0349 74.457 76.029C74.526 75.075 75.366 73.8 76.398 73.776Z" fill="black"/>
<path d="M61.7261 91.0285L60.4655 109.037L74.3015 110.006L75.5621 91.997L61.7261 91.0285Z" fill="#37474F"/>
<path d="M64.9505 92.4414L71.4933 92.8875L71.6284 90.9061L65.0856 90.46L64.9505 92.4414Z" fill="#A6A6A6"/>
<path d="M66.5699 90.5641L67.3769 90.6181L67.4369 89.706L69.396 89.838L69.3329 90.7531L70.1399 90.8071L70.2539 89.1421L66.6719 88.899L66.5699 90.5641Z" fill="#A6A6A6"/>
<path d="M88.257 111.054H74.157C73.257 110.847 72.381 110.628 71.604 110.418C71.091 110.28 70.617 110.145 70.188 110.016L69.627 109.836C69.5761 109.819 69.532 109.787 69.501 109.743C68.952 109.047 70.119 105.039 71.331 102.522C71.931 101.307 72.516 100.44 72.933 100.464C72.9579 100.461 72.9831 100.461 73.008 100.464C73.221 100.536 73.485 100.617 73.779 100.698L74.634 100.932C75.897 101.265 77.376 101.613 78.186 101.793C78.522 101.865 78.738 101.91 78.786 101.91C78.834 101.91 78.825 101.823 78.807 101.652C78.777 101.334 78.66 100.731 78.489 99.933C78.4904 99.9241 78.4904 99.915 78.489 99.906C77.76 96.525 76.044 89.751 75.417 86.652C74.799 83.613 75.246 82.698 76.173 82.962C77.034 83.208 78.309 84.477 79.524 85.992C82.044 89.133 84.276 93.438 85.893 97.653C85.914 97.716 85.941 97.782 85.965 97.845C86.016 97.977 86.067 98.115 86.115 98.247C88.098 103.635 89.049 108.771 88.257 111.054Z" fill="#F8C1B5"/>
<path d="M60.4409 97.2C59.7959 98.04 60.4229 98.937 60.4229 98.937C59.9299 99.1231 59.5172 99.4753 59.2559 99.9329C58.8329 100.761 59.9459 101.787 59.9459 101.787C59.4744 102.086 59.1034 102.52 58.8809 103.032C58.5569 103.866 59.5349 105.06 59.5349 105.06C59.2532 105.574 59.1659 106.173 59.2889 106.746C59.6789 108.264 61.9589 108.99 63.4049 109.464C64.8509 109.938 69.4049 109.932 70.2629 110.019L73.3919 100.767C73.3919 100.767 67.5149 96.7919 65.7359 96.4739C64.2359 96.2099 61.1669 96.264 60.4409 97.2Z" fill="#F8C1B5"/>
<path d="M60.5369 98.814C62.1989 98.715 63.801 99.114 65.421 99.414C65.427 99.416 65.4322 99.4198 65.4359 99.4249C65.4396 99.43 65.4416 99.4362 65.4416 99.4425C65.4416 99.4488 65.4396 99.455 65.4359 99.4601C65.4322 99.4652 65.427 99.469 65.421 99.471C63.813 99.147 62.163 99.147 60.546 98.886C60.5384 98.884 60.5316 98.8799 60.5264 98.874C60.5212 98.8681 60.5179 98.8608 60.5169 98.8531C60.516 98.8453 60.5174 98.8374 60.5209 98.8304C60.5245 98.8235 60.5301 98.8177 60.5369 98.814Z" fill="black"/>
<path d="M60.0179 101.679C60.3976 101.693 60.7739 101.756 61.1369 101.868C61.5269 101.964 61.9169 102.066 62.3039 102.168C63.0809 102.384 63.852 102.615 64.614 102.873C64.65 102.873 64.641 102.936 64.614 102.927C63.84 102.714 63.063 102.513 62.28 102.327C61.89 102.237 61.4969 102.15 61.1039 102.066C60.7279 102.007 60.3596 101.907 60.006 101.766C60.0003 101.76 59.996 101.752 59.9935 101.744C59.991 101.736 59.9903 101.728 59.9915 101.72C59.9926 101.711 59.9956 101.703 60.0002 101.696C60.0047 101.689 60.0108 101.683 60.0179 101.679Z" fill="black"/>
<path d="M59.5679 105.072C59.9103 105.09 60.247 105.166 60.564 105.297C60.918 105.402 61.2689 105.507 61.6199 105.597C62.3279 105.801 63.0329 106.002 63.7439 106.197C63.7511 106.197 63.758 106.2 63.763 106.205C63.7681 106.21 63.771 106.217 63.771 106.224C63.771 106.231 63.7681 106.238 63.763 106.243C63.758 106.248 63.7511 106.251 63.7439 106.251C63.0209 106.074 62.295 105.909 61.572 105.723C61.215 105.633 60.861 105.543 60.507 105.447C60.1765 105.393 59.8584 105.281 59.5679 105.114C59.5624 105.114 59.557 105.112 59.5531 105.108C59.5492 105.104 59.547 105.099 59.547 105.093C59.547 105.087 59.5492 105.082 59.5531 105.078C59.557 105.074 59.5624 105.072 59.5679 105.072Z" fill="black"/>
<path d="M88.6769 111.054H72.4349C71.9699 110.943 71.6759 110.865 71.5649 110.835L71.5139 110.82L71.6069 110.418L71.7209 109.899L73.3919 102.45L73.7819 100.71L73.7999 100.635V100.614L74.6429 100.818C75.9479 101.118 78.3209 101.667 78.4289 101.586C78.4492 101.567 78.4638 101.544 78.4709 101.517C78.4724 101.506 78.4724 101.495 78.4709 101.484C78.6329 100.713 77.3309 95.967 76.2659 91.584C75.7589 89.508 75.3059 87.51 75.0869 86.064C74.7419 83.79 75.0599 82.722 75.8279 82.677C76.6409 82.626 77.9609 83.736 79.5359 85.791C82.2176 89.4077 84.4096 93.3629 86.0549 97.554C86.0789 97.62 86.1059 97.686 86.1329 97.752C86.1779 97.872 86.2259 97.986 86.2679 98.106C87.5129 101.391 88.4459 104.949 88.6679 108.492C88.7519 109.467 88.8419 110.343 88.6769 111.054Z" fill="#F7771B"/>
<path d="M73.8269 110.928C75.0029 106.914 75.6269 102.528 75.7979 101.757C75.796 101.751 75.7922 101.746 75.787 101.742C75.7819 101.738 75.7758 101.736 75.7694 101.736C75.7631 101.736 75.757 101.738 75.7519 101.742C75.7467 101.746 75.7429 101.751 75.7409 101.757C75.6179 102.51 74.3549 107.457 73.7639 110.925C73.7549 110.961 73.8149 110.967 73.8269 110.928Z" fill="black"/>
<path d="M83.3309 102.807C82.9404 102.658 82.5393 102.539 82.1309 102.45C81.7529 102.351 81.3749 102.243 80.9969 102.15L80.5079 102.021H80.5559L81.2309 101.982C81.4559 101.967 81.6809 101.934 81.9059 101.937C81.9419 101.937 81.9449 101.877 81.9059 101.88C81.6809 101.88 81.4589 101.88 81.2339 101.865C81.0089 101.85 80.7689 101.865 80.5349 101.865C80.3009 101.865 80.1269 101.865 79.9349 101.865C79.5689 101.772 79.2029 101.682 78.8369 101.598C78.7349 100.854 78.5369 100.098 78.3749 99.3719C78.2129 98.6459 78.0239 97.8389 77.8289 97.0739C77.6339 96.3089 77.4359 95.5739 77.2139 94.8389C77.1029 94.4669 76.5359 92.1989 76.3379 91.6019C76.3379 91.5659 76.2779 91.5779 76.2869 91.6229C76.3799 92.2229 76.9589 94.5449 77.0399 94.9229C77.0999 95.1959 77.1599 95.4689 77.2229 95.7449L77.1929 95.6999L76.7969 95.0669C76.524 94.6409 76.2727 94.2013 76.0439 93.7499C76.0259 93.7109 75.9659 93.7499 75.9839 93.7799C76.1909 94.2509 76.3889 94.7249 76.6139 95.1869C76.7279 95.4179 76.8449 95.6459 76.9709 95.8679C77.0853 96.0928 77.223 96.305 77.3819 96.5009C77.4329 96.7259 77.4809 96.9509 77.5319 97.1759C77.6999 97.9289 77.8709 98.6759 78.0389 99.4349C78.1919 100.125 78.3149 100.833 78.4979 101.517C77.7479 101.349 76.9979 101.196 76.2359 101.04C75.8519 100.959 75.4649 100.881 75.0809 100.806C74.6969 100.731 74.2289 100.686 73.8269 100.578C73.7909 100.578 73.7729 100.626 73.8059 100.632C74.2139 100.713 74.6189 100.875 75.0059 100.98L76.1399 101.28C76.9409 101.487 77.7419 101.697 78.5399 101.88C79.3379 102.063 80.1359 102.231 80.9399 102.393L82.1399 102.63C82.5266 102.725 82.9196 102.792 83.3159 102.831C83.321 102.83 83.3253 102.826 83.3281 102.822C83.3309 102.817 83.3319 102.812 83.3309 102.807Z" fill="black"/>
<path d="M72.6839 111.054H72.1859C71.8859 110.964 71.6819 110.907 71.5859 110.88C71.5809 110.88 71.5761 110.878 71.572 110.875C71.568 110.872 71.5648 110.868 71.5629 110.863C71.5611 110.858 71.5605 110.853 71.5614 110.848C71.5623 110.843 71.5646 110.839 71.5679 110.835C71.5679 110.835 71.5679 110.835 71.5949 110.835C71.9159 110.898 72.2819 110.976 72.6839 111.054Z" fill="black"/>
<path d="M29.271 113.43C28.9458 114.616 28.7309 115.829 28.629 117.054C28.662 117.114 28.656 117.339 28.629 117.276C28.629 117.477 28.329 117.441 28.329 117.243C28.329 117.114 28.329 116.988 28.329 116.862C27.621 115.983 26.592 115.428 25.761 114.663C25.0918 114.063 24.6043 113.288 24.354 112.425C23.667 110.052 24.312 107.535 23.484 105.168C22.77 103.125 21.489 101.349 20.403 99.498C19.26 97.542 18.414 95.487 18.33 93.198C18.261 91.443 18.471 89.103 19.809 87.798C21.225 86.403 22.98 87.45 24.066 88.698C27.213 92.298 28.668 96.87 29.256 101.535C29.58 104.115 29.916 106.713 29.838 109.32C29.7851 110.705 29.5952 112.082 29.271 113.43Z" fill="#377926"/>
<path d="M28.644 118.002C28.8139 115.57 28.7848 113.128 28.557 110.7C28.557 110.7 28.557 110.7 28.557 110.673C28.596 108.696 28.752 106.728 28.677 104.748C28.5802 102.608 28.288 100.481 27.804 98.394C27.804 98.37 27.762 98.376 27.768 98.394C28.1526 100.445 28.3823 102.522 28.455 104.607C28.494 105.726 28.488 106.842 28.428 107.958C28.41 108.321 28.374 108.687 28.35 109.053C27.5276 103.504 25.5223 98.1959 22.47 93.489C22.428 93.426 22.314 93.489 22.353 93.561C24.5386 97.1364 26.1577 101.028 27.153 105.099C25.653 102.297 23.358 99.999 21.663 97.299C21.663 97.284 21.627 97.299 21.636 97.314C23.16 100.314 25.674 102.675 27.276 105.63C27.554 106.83 27.78 108.043 27.954 109.269C28.1797 110.946 28.3009 112.635 28.317 114.327C27.396 112.605 26.439 110.958 25.686 109.137C25.665 109.089 25.596 109.137 25.614 109.17C26.253 111.063 27.114 113.1 28.314 114.714C28.314 115.914 28.284 117.114 28.215 118.314C28.026 121.506 27.48 124.656 27.228 127.839C27.2293 127.857 27.2367 127.873 27.249 127.886C27.2613 127.899 27.2777 127.906 27.2952 127.908C27.3128 127.91 27.3304 127.906 27.345 127.896C27.3596 127.886 27.3702 127.871 27.375 127.854C28.0204 124.603 28.4444 121.311 28.644 118.002Z" fill="black"/>
<path d="M25.251 93.378C25.251 93.354 25.209 93.378 25.218 93.393C25.8 95.007 26.118 96.642 26.55 98.295C26.5528 98.3109 26.5618 98.325 26.575 98.3343C26.5883 98.3436 26.6046 98.3473 26.6205 98.3445C26.6364 98.3417 26.6506 98.3327 26.6599 98.3195C26.6692 98.3063 26.6728 98.2899 26.67 98.274C26.499 96.6 25.902 94.923 25.251 93.378Z" fill="black"/>
<path d="M40.062 100.137C39.6727 101.082 39.2249 102.002 38.721 102.891C37.671 104.799 36.573 106.548 36.375 108.768C36.288 109.758 36.255 110.754 35.955 111.711C35.6779 112.532 35.2827 113.308 34.782 114.015C33.642 115.671 32.22 117.102 31.182 118.815C30.0856 120.61 29.2759 122.564 28.782 124.608C28.755 124.719 28.578 124.689 28.605 124.578C28.6082 124.569 28.6082 124.56 28.605 124.551C28.6036 124.548 28.6029 124.544 28.6029 124.541C28.6029 124.537 28.6036 124.533 28.605 124.53C28.437 119.769 28.818 114.969 30.27 110.409C30.9122 108.404 31.6828 106.442 32.577 104.535C33.354 102.879 34.326 101.289 35.691 100.053C36.576 99.2551 38.499 97.7431 39.759 98.5531C40.344 98.9341 40.299 99.5431 40.062 100.137Z" fill="#377926"/>
<path d="M35.478 108.9C34.4339 110.238 33.5292 111.68 32.778 113.202C32.778 113.223 32.799 113.244 32.811 113.223C33.711 111.795 34.611 110.358 35.526 108.927C35.535 108.9 35.496 108.873 35.478 108.9Z" fill="black"/>
<path d="M15.21 104.652C15.828 105.714 16.533 106.989 16.266 108.267C16.098 109.074 15.507 109.731 15.402 110.553C15.162 112.371 16.974 113.574 18.285 114.432C21.555 116.577 26.04 118.491 26.634 122.871C26.655 123.027 26.934 122.988 26.904 122.835C26.9054 122.826 26.9054 122.817 26.904 122.808C26.904 122.808 26.922 122.793 26.922 122.781C27.3498 120.569 27.3283 118.294 26.859 116.091C26.373 113.832 25.386 111.804 24.225 109.821C22.257 106.464 20.172 103.026 17.196 100.455C16.374 99.7441 14.688 98.4661 14.031 100.071C13.374 101.676 14.454 103.356 15.21 104.652Z" fill="#377926"/>
<path d="M18.204 111.768C20.37 114.114 23.817 115.431 25.683 118.068C24.6404 114.067 22.6714 110.367 19.935 107.268C19.9213 107.252 19.9142 107.231 19.9152 107.21C19.9162 107.188 19.9252 107.168 19.9404 107.153C19.9557 107.139 19.976 107.13 19.9972 107.13C20.0185 107.129 20.0392 107.137 20.055 107.151C22.048 109.087 23.643 111.394 24.75 113.943C24.2358 112.161 23.5589 110.429 22.728 108.771C22.698 108.708 22.788 108.654 22.824 108.714C23.8537 110.526 24.5898 112.489 25.005 114.531C27.462 120.483 27.705 127.461 27.177 133.731C27.177 133.818 27.033 133.821 27.033 133.731C27.177 128.787 27.096 123.756 25.911 118.929C25.887 118.827 25.86 118.728 25.833 118.629C23.802 115.8 20.373 114.489 18.165 111.801C18.144 111.78 18.18 111.741 18.204 111.768Z" fill="black"/>
<path d="M17.7 109.752C18.84 110.796 19.959 111.852 21.099 112.908C21.099 112.908 21.099 112.938 21.081 112.929C19.7933 112.058 18.6331 111.012 17.634 109.821C17.595 109.773 17.655 109.71 17.7 109.752Z" fill="black"/>
<path d="M17.52 105.228C18.5265 106.879 19.6652 108.445 20.925 109.911C20.943 109.932 20.925 109.959 20.898 109.941C19.4843 108.598 18.3202 107.014 17.46 105.264C17.442 105.225 17.496 105.189 17.52 105.228Z" fill="black"/>
<path d="M22.644 138.159H32.61L31.269 124.749H24.18L22.644 138.159Z" fill="#455A64"/>
<path d="M23.928 126.93H31.488L31.269 124.749H24.177L23.928 126.93Z" fill="black"/>
<path d="M22.956 125.406H32.298V123.264H22.956V125.406Z" fill="#455A64"/>
</svg>
