<svg width="24" height="24" viewBox="0 0 24 24" fill="none" xmlns="http://www.w3.org/2000/svg">
<path d="M22.0453 12.7102L2.02312 20.9677C1.9675 20.9938 1.90619 21.0056 1.84484 21.0018C1.78349 20.9981 1.72405 20.9791 1.67198 20.9464C1.61991 20.9137 1.57688 20.8685 1.54683 20.8149C1.51678 20.7613 1.50068 20.701 1.5 20.6395V15.3281C1.5 15.2408 1.53049 15.1562 1.5862 15.0889C1.64191 15.0217 1.71935 14.976 1.80516 14.9597L13.4123 12.7566C14.2261 12.6023 14.2261 11.437 13.4123 11.2828L1.80469 9.07968C1.71904 9.06334 1.64177 9.01765 1.58616 8.9505C1.53056 8.88334 1.50009 8.79891 1.5 8.71172V3.40265C1.5 3.13359 1.77562 2.92171 2.02312 3.02765L22.0453 11.3325C22.1799 11.3905 22.2946 11.4866 22.3751 11.609C22.4557 11.7314 22.4986 11.8748 22.4986 12.0213C22.4986 12.1679 22.4557 12.3112 22.3751 12.4336C22.2946 12.556 22.1799 12.6522 22.0453 12.7102Z" fill="white"/>
</svg>
